SplineFontDB: 1.0
FontName: AkrutiMal1Normal
FullName: AkrutiMal1 Normal
FamilyName: AkrutiMal1
Weight: Book
Copyright: Copyright (C) Cyberscape Multimedia Limited, Bangalore, INDIA. Contact: mssridhar@vsnl.com This program is free software; you can redistribute it and/or modify it under the terms of the GNU General Public License as published by the Free Software Foundation.
Version: Macromedia Fontographer 4.1 10/3/02
ItalicAngle: 0
UnderlinePosition: -133
UnderlineWidth: 20
Ascent: 686
Descent: 314
NeedsXUIDChange: 1
FSType: 1
PfmFamily: 81
TTFWeight: 400
TTFWidth: 5
Panose: 0 0 0 0 0 0 0 0 0 0
LineGap: 0
VLineGap: 0

LangName: 1033 "" "" "" "Macromedia Fontographer 4.1 AkrutiMal1 Normal" "" "Macromedia Fontographer 4.1 10/3/02" 
Encoding: unicode
DisplaySize: -24
BeginChars: 65938 191
StartChar: .notdef
Encoding: 0 -1
Width: 500
Flags: W
Fore
63 0 m 1
 63 686 l 1
 438 686 l 1
 438 0 l 1
 63 0 l 1
125 63 m 1
 375 63 l 1
 375 624 l 1
 125 624 l 1
 125 63 l 1
EndSplineSet
EndChar
StartChar: exclam
Encoding: 33 33
Width: 238
Flags: W
Fore
155 555 m 1
 150 470 l 1
 135 140 l 1
 105 140 l 1
 85 555 l 1
 84.3333 581 96 596 120 600 c 1
 141.333 600 153 585 155 555 c 1
165 40 m 0
 165.667 27.3333 161.5 16.8333 152.5 8.5 c 0
 143.5 0.166667 132.667 -4.33333 120 -5 c 0
 107.333 -5.66667 96.8333 -1.5 88.5 7.5 c 0
 80.1667 16.5 75.6667 27.3333 75 40 c 0
 74.3333 51.3333 78.6667 60.6667 88 68 c 0
 97.3333 75.3333 108 79.3333 120 80 c 0
 132 80.6667 142.333 77.1667 151 69.5 c 0
 159.667 61.8333 164.333 52 165 40 c 0
EndSplineSet
EndChar
StartChar: dollar
Encoding: 36 36
Width: 550
Flags: W
Fore
512 29 m 1
 492 5 l 1
 308 192 l 1
 121 -1 l 1
 97 21 l 1
 290 214 l 1
 103 392 l 1
 127 416 l 1
 308 231 l 1
 486 411 l 1
 510 390 l 1
 335 210 l 1
 512 29 l 1
EndSplineSet
EndChar
StartChar: quotesingle
Encoding: 39 39
Width: 262
Flags: W
Fore
185 545 m 0
 185 495.667 158.333 455.667 105 425 c 1
 85 450 l 1
 127.667 470 149.333 495 150 525 c 0
 150 539.667 137.667 552.833 113 564.5 c 0
 88.3333 576.167 75.6667 589.667 75 605 c 0
 74.3333 617 77.8333 627.333 85.5 636 c 0
 93.1667 644.667 103 649.333 115 650 c 0
 133 650.667 149.167 640.5 163.5 619.5 c 0
 177.833 598.5 185 573.667 185 545 c 0
EndSplineSet
EndChar
StartChar: parenleft
Encoding: 40 40
Width: 394
Flags: W
Fore
320 -320 m 1
 295 -350 l 1
 223.667 -289.333 168.667 -214 130 -124 c 0
 94 -38.6667 75.6667 52.6667 75 150 c 0
 74.3333 247.333 92.6667 339 130 425 c 0
 168 514.333 223 589.333 295 650 c 1
 320 620 l 1
 257.333 568 210 496.667 178 406 c 0
 150 327.333 135.667 242 135 150 c 0
 134.333 51.3333 150.167 -39.3333 182.5 -122 c 0
 214.833 -204.667 260.667 -270.667 320 -320 c 1
EndSplineSet
EndChar
StartChar: parenright
Encoding: 41 41
Width: 382
Flags: W
Fore
305 150 m 0
 305.667 44.6667 288 -51.3333 252 -138 c 0
 216 -224.667 165.333 -295.333 100 -350 c 1
 75 -320 l 1
 133.667 -271.333 178 -199.333 208 -104 c 0
 232 -26 244.333 58.6667 245 150 c 0
 245.667 254 231 347.333 201 430 c 0
 171.667 510.667 129.667 574 75 620 c 1
 100 650 l 1
 168 592.667 220 517 256 423 c 0
 288 338.333 304.333 247.333 305 150 c 0
EndSplineSet
EndChar
StartChar: comma
Encoding: 44 44
Width: 262
Flags: W
Fore
185 0 m 0
 185 -49.3333 158.333 -89.3333 105 -120 c 1
 85 -90 l 1
 127.667 -70 149.333 -46.6667 150 -20 c 0
 150 -5.33333 137.667 7.83333 113 19.5 c 0
 88.3333 31.1667 75.6667 44.6667 75 60 c 0
 74.3333 72 77.8333 82.3333 85.5 91 c 0
 93.1667 99.6667 103 104.333 115 105 c 0
 133 105.667 149.167 95.5 163.5 74.5 c 0
 177.833 53.5 185 28.6667 185 0 c 0
EndSplineSet
EndChar
StartChar: hyphen
Encoding: 45 45
Width: 398
Flags: W
Fore
325 200 m 1
 75 200 l 1
 75 240 l 1
 325 240 l 1
 325 200 l 1
EndSplineSet
EndChar
StartChar: period
Encoding: 46 46
Width: 238
Flags: W
Fore
165 40 m 0
 165.667 27.3333 161.5 16.8333 152.5 8.5 c 0
 143.5 0.166667 132.667 -4.33333 120 -5 c 0
 107.333 -5.66667 96.8333 -1.5 88.5 7.5 c 0
 80.1667 16.5 75.6667 27.3333 75 40 c 0
 74.3333 51.3333 78.5 61.5 87.5 70.5 c 0
 96.5 79.5 107.333 84.3333 120 85 c 0
 131.333 85.6667 141.5 81.5 150.5 72.5 c 0
 159.5 63.5 164.333 52.6667 165 40 c 0
EndSplineSet
EndChar
StartChar: slash
Encoding: 47 47
Width: 550
Flags: W
Fore
475 650 m 1
 125 -180 l 1
 75 -180 l 1
 425 650 l 1
 475 650 l 1
EndSplineSet
EndChar
StartChar: zero
Encoding: 48 48
Width: 448
Flags: W
Fore
376 244 m 0
 376.667 171.333 362.667 111.333 334 64 c 0
 306.667 19.3333 270 -3.33333 224 -4 c 0
 169.333 -4.66667 128.667 24.6667 102 84 c 0
 82.6667 128 72.6667 181.333 72 244 c 0
 71.3333 306.667 81 360.667 101 406 c 0
 127.667 465.333 168.667 495.333 224 496 c 0
 276.667 496.667 316.667 466 344 404 c 0
 364.667 357.333 375.333 304 376 244 c 0
328 244 m 0
 328.667 338 313 403.667 281 441 c 0
 265.667 459 246.667 468 224 468 c 0
 154.667 468 120 393.333 120 244 c 0
 120 98.6667 154.667 25.3333 224 24 c 0
 264.667 23.3333 293.667 52 311 110 c 0
 321.667 146.667 327.333 191.333 328 244 c 0
EndSplineSet
EndChar
StartChar: one
Encoding: 49 49
Width: 448
Flags: W
Fore
356 0 m 1
 91 0 l 1
 91 48 l 1
 196 48 l 1
 196 336 l 2
 196 349.333 190.667 362 180 374 c 0
 170.667 384 158.667 391 144 395 c 0
 125.333 399 112.5 403.333 105.5 408 c 0
 98.5 412.667 94 419.333 92 428 c 1
 92 441.333 100 448 116 448 c 0
 166.667 448.667 201.333 456.667 220 472 c 0
 230.667 480.667 240 486 248 488 c 1
 256 488 260 481.333 260 468 c 2
 260 48 l 1
 356 48 l 1
 356 0 l 1
EndSplineSet
EndChar
StartChar: two
Encoding: 50 50
Width: 448
Flags: W
Fore
400 144 m 1
 384 0 l 1
 48 0 l 1
 48 48 l 1
 122 110 l 2
 126 113.333 152.333 136.333 201 179 c 0
 246.333 218.333 278.667 250.667 298 276 c 0
 320.667 304.667 332 330 332 352 c 0
 332.667 414 299.667 445 233 445 c 0
 163 445 127.667 408.667 127 336 c 0
 127 310 118.333 296.667 101 296 c 0
 82.3333 295.333 72.6667 314 72 352 c 0
 71.3333 396.667 88.6667 431.333 124 456 c 0
 154.667 476.667 193.333 487.333 240 488 c 0
 283.333 488.667 318.5 476.333 345.5 451 c 0
 372.5 425.667 386.333 391.333 387 348 c 0
 387.667 318.667 364.667 278.667 318 228 c 0
 281.333 188 216.667 129 124 51 c 1
 296 51 l 2
 320.667 51 344.333 73.3333 367 118 c 0
 371.667 127.333 376 137.333 380 148 c 0
 381.333 151.333 385.333 154 392 156 c 0
 395.333 156 398 152 400 144 c 1
EndSplineSet
EndChar
StartChar: three
Encoding: 51 51
Width: 448
Flags: W
Fore
392 136 m 0
 392 94 374 59.6667 338 33 c 0
 306 9 268 -3.33333 224 -4 c 0
 184.667 -4.66667 148.667 5 116 25 c 0
 78.6667 48.3333 60 78.6667 60 116 c 0
 60 152 74.6667 170.667 104 172 c 0
 123.333 172.667 134 160.667 136 136 c 1
 132 108 l 1
 132 102 130.667 96.3333 128 91 c 1
 124 80 l 1
 124 61.3333 134.667 46.6667 156 36 c 0
 172 28.6667 190.667 24.6667 212 24 c 0
 246.667 23.3333 276.5 33.3333 301.5 54 c 0
 326.5 74.6667 339.333 102 340 136 c 0
 340.667 167.333 326 192.333 296 211 c 0
 270 227.667 240.667 236 208 236 c 2
 160 236 l 1
 160 268 l 1
 208 268 l 2
 238 268 264.167 277.333 286.5 296 c 0
 308.833 314.667 320 338.667 320 368 c 0
 320 396.667 307.667 420.333 283 439 c 0
 260.333 455 234 463.333 204 464 c 0
 184.667 464.667 167.333 460.333 152 451 c 0
 134.667 440.333 125.333 426 124 408 c 1
 128 384 l 1
 132 356 l 1
 132 336 120 324 96 320 c 1
 87.3333 320 78.5 325 69.5 335 c 0
 60.5 345 56 357.333 56 372 c 0
 56 409.333 72.6667 439.333 106 462 c 0
 135.333 481.333 169.333 491.333 208 492 c 0
 247.333 492.667 283.333 483 316 463 c 0
 353.333 439.667 372 409.333 372 372 c 0
 372 315.333 340 276.667 276 256 c 1
 308.667 248 336.167 232.5 358.5 209.5 c 0
 380.833 186.5 392 162 392 136 c 0
EndSplineSet
EndChar
StartChar: four
Encoding: 52 52
Width: 448
Flags: W
Fore
404 0 m 1
 204 0 l 1
 204 46 l 1
 284 46 l 1
 284 124 l 1
 44 124 l 1
 44 184 l 1
 300 488 l 1
 348 488 l 1
 348 180 l 1
 404 180 l 1
 404 124 l 1
 348 124 l 1
 348 46 l 1
 404 46 l 1
 404 0 l 1
284 180 m 1
 284 408 l 1
 84 180 l 1
 284 180 l 1
EndSplineSet
EndChar
StartChar: five
Encoding: 53 53
Width: 444
Flags: W
Fore
388 168 m 0
 388.667 118.667 370.5 77.6667 333.5 45 c 0
 296.5 12.3333 253.333 -4 204 -4 c 0
 165.333 -4 131.667 6.66667 103 28 c 0
 72.3333 52 56.6667 82.6667 56 120 c 0
 55.3333 152 66 168 88 168 c 0
 104 168 112 160 112 144 c 1
 108 120 l 1
 104 104 l 1
 104 80 115 60.3333 137 45 c 0
 156.333 31.6667 178.667 24.6667 204 24 c 0
 240.667 23.3333 271 36.5 295 63.5 c 0
 319 90.5 331.333 122.667 332 160 c 0
 332.667 196.667 321.667 229 299 257 c 0
 276.333 285 247.333 299.333 212 300 c 0
 166.667 300.667 132 276.667 108 228 c 1
 72 248 l 1
 100 492 l 1
 364 492 l 1
 364 444 l 1
 128 444 l 1
 108 272 l 1
 133.333 306 176 323.333 236 324 c 0
 274 324.667 308.667 308.333 340 275 c 0
 371.333 241.667 387.333 206 388 168 c 0
EndSplineSet
EndChar
StartChar: six
Encoding: 54 54
Width: 448
Flags: W
Fore
380 160 m 0
 380.667 114.667 366.667 76.1667 338 44.5 c 0
 309.333 12.8333 272.667 -3.33333 228 -4 c 0
 178.667 -4.66667 138.667 19 108 67 c 0
 82 109 68.6667 156 68 208 c 0
 67.3333 273.333 82 333.333 112 388 c 0
 147.333 454 195.333 487.333 256 488 c 0
 287.333 488.667 314.333 480.333 337 463 c 0
 359.667 445.667 371.333 424.667 372 400 c 0
 372 388.667 369.667 379.333 365 372 c 0
 360.333 364.667 353.333 360.667 344 360 c 0
 328 360 320 370.667 320 392 c 1
 328 424 l 1
 328 434.667 318.333 443.667 299 451 c 0
 283 457 268.667 460 256 460 c 0
 210 460 174 430.667 148 372 c 0
 127.333 326.667 116.667 277.333 116 224 c 1
 124 248 139 268 161 284 c 0
 183 300 206.667 308 232 308 c 0
 274 308 309 293.833 337 265.5 c 0
 365 237.167 379.333 202 380 160 c 0
332 160 m 0
 332.667 193.333 322.333 221.5 301 244.5 c 0
 279.667 267.5 252.667 279.333 220 280 c 0
 190 280.667 165.333 268 146 242 c 0
 129.333 218.667 120.667 191.333 120 160 c 0
 119.333 126.667 127.333 96.6667 144 70 c 0
 162.667 39.3333 188 24 220 24 c 0
 250 24 276 37 298 63 c 0
 320 89 331.333 121.333 332 160 c 0
EndSplineSet
EndChar
StartChar: seven
Encoding: 55 55
Width: 444
Flags: W
Fore
384 464 m 0
 384.667 450 375.333 426 356 392 c 1
 282.667 286.667 245.333 180 244 72 c 0
 244 45.3333 241.833 26.8333 237.5 16.5 c 0
 233.167 6.16667 224.667 0.666667 212 0 c 0
 202 -0.666667 194.833 3 190.5 11 c 0
 186.167 19 184 31.3333 184 48 c 0
 184 126.667 236 257.333 340 440 c 1
 164 440 l 2
 142.667 440 124.667 432.667 110 418 c 0
 95.3333 403.333 88 385.333 88 364 c 2
 88 342 l 1
 60 337 l 1
 68 484 l 1
 364 484 l 2
 376.667 484 383.333 477.333 384 464 c 0
EndSplineSet
EndChar
StartChar: eight
Encoding: 56 56
Width: 448
Flags: W
Fore
380 128 m 0
 380.667 92.6667 365.5 61.8333 334.5 35.5 c 0
 303.5 9.16667 266.667 -4 224 -4 c 0
 182.667 -4 147 7.33333 117 30 c 0
 84.3333 55.3333 68 88 68 128 c 0
 68 182.667 101.333 224 168 252 c 1
 140 262.667 117.667 278.667 101 300 c 0
 84.3333 321.333 76 346.667 76 376 c 0
 76 412 92 442 124 466 c 0
 153.333 488 186.667 499.333 224 500 c 0
 261.333 500.667 294.667 489.667 324 467 c 0
 355.333 442.333 371.333 412 372 376 c 0
 372.667 348 364.333 323 347 301 c 0
 329.667 279 307.333 262.667 280 252 c 1
 310 244 334 228.333 352 205 c 0
 370 181.667 379.333 156 380 128 c 0
324 368 m 0
 324.667 394 315 417.667 295 439 c 0
 275 460.333 251.333 471.333 224 472 c 0
 196 472.667 172.5 462.667 153.5 442 c 0
 134.5 421.333 124.667 396.667 124 368 c 0
 123.333 340 132.833 316.5 152.5 297.5 c 0
 172.167 278.5 196 268.667 224 268 c 0
 252 267.333 275.5 276.833 294.5 296.5 c 0
 313.5 316.167 323.333 340 324 368 c 0
332 136 m 0
 332.667 164.667 322.333 189.667 301 211 c 0
 279.667 232.333 254 243.333 224 244 c 0
 194 244.667 168.667 234.333 148 213 c 0
 127.333 191.667 116.667 166 116 136 c 0
 115.333 104.667 125.333 78.3333 146 57 c 0
 166.667 35.6667 192.667 24.6667 224 24 c 0
 254 23.3333 279.333 34.1667 300 56.5 c 0
 320.667 78.8333 331.333 105.333 332 136 c 0
EndSplineSet
EndChar
StartChar: nine
Encoding: 57 57
Width: 444
Flags: W
Fore
380 240 m 0
 380 172 361.5 114.5 324.5 67.5 c 0
 287.5 20.5 242 -3.33333 188 -4 c 0
 158 -4.66667 131.333 3 108 19 c 0
 82 36.3333 68.6667 59.3333 68 88 c 0
 67.3333 114 78 127.333 100 128 c 0
 114.667 128.667 122.667 112.667 124 80 c 0
 124.667 66 130.667 52.6667 142 40 c 0
 144 38.6667 149.667 35 159 29 c 0
 166.333 25.6667 176 24 188 24 c 0
 232.667 23.3333 267.667 50.3333 293 105 c 0
 313 147 323.333 193.333 324 244 c 1
 294 202 254 180.667 204 180 c 0
 163.333 179.333 129.333 195.333 102 228 c 0
 77.3333 258 64.6667 294 64 336 c 0
 63.3333 376.667 76.5 412.833 103.5 444.5 c 0
 130.5 476.167 164 492 204 492 c 0
 320.667 492.667 379.333 408.667 380 240 c 0
324 336 m 0
 324.667 368 315.667 396.667 297 422 c 0
 276.333 449.333 250.667 463.333 220 464 c 0
 188 464.667 161.667 451 141 423 c 0
 122.333 398.333 112.667 369.333 112 336 c 0
 111.333 302 121 272.333 141 247 c 0
 161 221.667 187.333 208.667 220 208 c 0
 250.667 207.333 276 221.333 296 250 c 0
 314 275.333 323.333 304 324 336 c 0
EndSplineSet
EndChar
StartChar: colon
Encoding: 58 58
Width: 238
Flags: W
Fore
165 400 m 0
 165.667 387.333 161.5 376.833 152.5 368.5 c 0
 143.5 360.167 132.667 355.667 120 355 c 0
 107.333 354.333 96.8333 358.5 88.5 367.5 c 0
 80.1667 376.5 75.6667 387.333 75 400 c 0
 74.3333 411.333 78.5 421.5 87.5 430.5 c 0
 96.5 439.5 107.333 444.333 120 445 c 0
 131.333 445.667 141.5 441.5 150.5 432.5 c 0
 159.5 423.5 164.333 412.667 165 400 c 0
165 40 m 0
 165.667 27.3333 161.5 16.8333 152.5 8.5 c 0
 143.5 0.166667 132.667 -4.33333 120 -5 c 0
 107.333 -5.66667 96.8333 -1.5 88.5 7.5 c 0
 80.1667 16.5 75.6667 27.3333 75 40 c 0
 74.3333 51.3333 78.5 61.5 87.5 70.5 c 0
 96.5 79.5 107.333 84.3333 120 85 c 0
 131.333 85.6667 141.5 81.5 150.5 72.5 c 0
 159.5 63.5 164.333 52.6667 165 40 c 0
EndSplineSet
EndChar
StartChar: semicolon
Encoding: 59 59
Width: 262
Flags: W
Fore
165 400 m 0
 165.667 387.333 161.5 376.833 152.5 368.5 c 0
 143.5 360.167 132.667 355.667 120 355 c 0
 107.333 354.333 96.8333 358.5 88.5 367.5 c 0
 80.1667 376.5 75.6667 387.333 75 400 c 0
 74.3333 411.333 78.5 421.5 87.5 430.5 c 0
 96.5 439.5 107.333 444.333 120 445 c 0
 131.333 445.667 141.5 441.5 150.5 432.5 c 0
 159.5 423.5 164.333 412.667 165 400 c 0
185 0 m 0
 185 -49.3333 158.333 -89.3333 105 -120 c 1
 85 -95 l 1
 127.667 -75 149.333 -50 150 -20 c 0
 150 -5.33333 137.667 7.83333 113 19.5 c 0
 88.3333 31.1667 75.6667 44.6667 75 60 c 0
 74.3333 72 77.8333 82.3333 85.5 91 c 0
 93.1667 99.6667 103 104.333 115 105 c 0
 133 105.667 149.167 95.5 163.5 74.5 c 0
 177.833 53.5 185 28.6667 185 0 c 0
EndSplineSet
EndChar
StartChar: less
Encoding: 60 60
Width: 558
Flags: W
Fore
528 -30 m 1
 101 160 l 1
 101 205 l 1
 527 393 l 1
 526 349 l 1
 161 186 l 1
 526 11 l 1
 528 -30 l 1
EndSplineSet
EndChar
StartChar: greater
Encoding: 62 62
Width: 547
Flags: W
Fore
513 165 m 1
 88 -22 l 1
 87 12 l 1
 460 181 l 1
 87 355 l 1
 88 389 l 1
 513 198 l 1
 513 165 l 1
EndSplineSet
EndChar
StartChar: question
Encoding: 63 63
Width: 462
Flags: W
Fore
385 470 m 0
 385 400.667 361.667 342.333 315 295 c 0
 275 254.333 255 216 255 180 c 2
 255 150 l 1
 220 150 l 1
 220 180 l 2
 220 231.333 241.667 283 285 335 c 0
 311 366.333 324.333 411.333 325 470 c 0
 325 496.667 317 520.333 301 541 c 0
 283 563 261 574.333 235 575 c 0
 210.333 575.667 190.167 566.333 174.5 547 c 0
 158.833 527.667 150.667 505.333 150 480 c 0
 149.333 445.333 139.333 427 120 425 c 1
 100 425 90 450 90 500 c 0
 90 536 105.333 566.333 136 591 c 0
 164.667 613 197.667 624.333 235 625 c 0
 275.667 625.667 310.833 610.333 340.5 579 c 0
 370.167 547.667 385 511.333 385 470 c 0
285 35 m 0
 285 24.3333 281 15 273 7 c 0
 265 -1 255.667 -5 245 -5 c 0
 233.667 -5 224.333 -1.16667 217 6.5 c 0
 209.667 14.1667 205.667 23.6667 205 35 c 0
 204.333 46.3333 208 55.8333 216 63.5 c 0
 224 71.1667 233.667 75 245 75 c 0
 255.667 75 265 71 273 63 c 0
 281 55 285 45.6667 285 35 c 0
EndSplineSet
EndChar
StartChar: at
Encoding: 64 64
Width: 691
Flags: W
Fore
649 283 m 2
 649 236.333 633.333 192.667 602 152 c 0
 568.667 108.667 529.333 87 484 87 c 0
 474.667 87 464 90 452 96 c 1
 444 102 434 113 422 129 c 1
 391.333 102.333 361 88.6667 331 88 c 0
 302.333 87.3333 279 97.3333 261 118 c 0
 245 136.667 236.667 160.667 236 190 c 0
 235.333 240 251.333 287.333 284 332 c 0
 319.333 380 362.333 404.333 413 405 c 0
 427 405 441 401.5 455 394.5 c 0
 469 387.5 484.667 373.667 502 353 c 1
 516 390 l 1
 544 390 l 1
 471 178 l 1
 464 137 l 1
 464 115 474.333 104 495 104 c 0
 530.333 104 561.667 127.667 589 175 c 0
 611.667 216.333 623.333 256.333 624 295 c 0
 624.667 356.333 603.5 406.167 560.5 444.5 c 0
 517.5 482.833 464.667 502 402 502 c 0
 330.667 502 271.667 476.833 225 426.5 c 0
 178.333 376.167 154.667 315 154 243 c 0
 153.333 172.333 177.167 113 225.5 65 c 0
 273.833 17 333.333 -7.33333 404 -8 c 0
 486.667 -8.66667 554.667 25.3333 608 94 c 1
 626 94 l 1
 572 15.3333 498 -24 404 -24 c 0
 326.667 -24 261.667 2 209 54 c 0
 156.333 106 129.667 171 129 249 c 0
 128.333 322.333 155.167 385.5 209.5 438.5 c 0
 263.833 491.5 327.667 518.333 401 519 c 0
 467 519.667 524 500.667 572 462 c 0
 623.333 420.667 649 367.667 649 303 c 2
 649 283 l 2
475 317 m 0
 475.667 335 470.167 350.167 458.5 362.5 c 0
 446.833 374.833 432 381 414 381 c 0
 377.333 381.667 343.667 359.333 313 314 c 0
 287 275.333 274 235 274 193 c 0
 274 171 280 152.667 292 138 c 0
 304 123.333 320.667 115.667 342 115 c 0
 374.667 114.333 405.667 139 435 189 c 0
 460.333 233 473.667 275.667 475 317 c 0
EndSplineSet
EndChar
StartChar: grave
Encoding: 96 96
Width: 266
Flags: W
Fore
190 460 m 0
 190.667 448.667 186.167 439.167 176.5 431.5 c 0
 166.833 423.833 156.333 420 145 420 c 0
 123.667 420 106.333 428.333 93 445 c 0
 81 459.667 75 478 75 500 c 0
 74.3333 549.333 99.3333 599.333 150 650 c 1
 170 630 l 1
 134 604 115.667 574 115 540 c 0
 115 529.333 127.333 519 152 509 c 0
 176.667 499 189.333 482.667 190 460 c 0
EndSplineSet
EndChar
StartChar: macron
Encoding: 175 175
Width: 516
Flags: W
Fore
508 200 m 1
 8 200 l 1
 8 240 l 1
 508 240 l 1
 508 200 l 1
EndSplineSet
EndChar
StartChar: otilde
Encoding: 245 245
Width: 1000
Flags: W
Fore
1000 200 m 1
 0 200 l 1
 0 240 l 1
 1000 240 l 1
 1000 200 l 1
EndSplineSet
EndChar
StartChar: odieresis
Encoding: 246 246
Width: 516
Flags: W
Fore
508 200 m 1
 8 200 l 1
 8 240 l 1
 508 240 l 1
 508 200 l 1
EndSplineSet
EndChar
StartChar: uni0D02
Encoding: 3330 3330
Width: 311
Flags: HW
Fore
284 125 m 0
 284.667 89 272.333 58.5 247 33.5 c 0
 221.667 8.5 190.667 -4.33333 154 -5 c 0
 118.667 -5.66667 89.1667 7 65.5 33 c 0
 41.8333 59 29.6667 89.6667 29 125 c 0
 28.3333 159 40.5 188.167 65.5 212.5 c 0
 90.5 236.833 120 249.333 154 250 c 0
 189.333 250.667 219.667 238.833 245 214.5 c 0
 270.333 190.167 283.333 160.333 284 125 c 0
224 125 m 0
 224.667 149 217.5 169.833 202.5 187.5 c 0
 187.5 205.167 168 214.333 144 215 c 0
 120.667 215.667 100.833 206.833 84.5 188.5 c 0
 68.1667 170.167 59.6667 149 59 125 c 0
 58.3333 100.333 66.1667 78.5 82.5 59.5 c 0
 98.8333 40.5 119.333 30.6667 144 30 c 0
 167.333 29.3333 186.667 39.6667 202 61 c 0
 216 79.6667 223.333 101 224 125 c 0
EndSplineSet
EndChar
StartChar: uni0D03
Encoding: 3331 3331
Width: 284
Flags: HW
Fore
237 350 m 0
 237.667 324 228.5 301.833 209.5 283.5 c 0
 190.5 265.167 168 255.667 142 255 c 0
 116 254.333 93.8333 263.5 75.5 282.5 c 0
 57.1667 301.5 47.6667 324 47 350 c 0
 46.3333 376 55.5 398.167 74.5 416.5 c 0
 93.5 434.833 116 444.333 142 445 c 0
 168 445.667 190.167 436.5 208.5 417.5 c 0
 226.833 398.5 236.333 376 237 350 c 0
237 90 m 0
 237.667 63.3333 228.333 41 209 23 c 0
 189.667 5 166.667 -4.33333 140 -5 c 0
 114 -5.66667 92.1667 3.5 74.5 22.5 c 0
 56.8333 41.5 47.6667 64 47 90 c 0
 46.3333 115.333 55.3333 137.333 74 156 c 0
 92.6667 174.667 114.667 184.333 140 185 c 0
 166 185.667 188.5 176.5 207.5 157.5 c 0
 226.5 138.5 236.333 116 237 90 c 0
181 350 m 0
 181.667 365.333 176.5 379.167 165.5 391.5 c 0
 154.5 403.833 141.667 410 127 410 c 0
 111.667 410 99.6667 404 91 392 c 0
 82.3333 380 77.6667 366 77 350 c 0
 76.3333 334 80.5 320.167 89.5 308.5 c 0
 98.5 296.833 111 290.667 127 290 c 0
 139.667 289.333 152.333 295.333 165 308 c 1
 175 320 180.333 334 181 350 c 0
181 90 m 0
 181.667 105.333 176.5 119.167 165.5 131.5 c 0
 154.5 143.833 141.667 150 127 150 c 0
 111.667 150 99.6667 144 91 132 c 0
 82.3333 120 77.6667 106 77 90 c 0
 76.3333 74 80.5 60.1667 89.5 48.5 c 0
 98.5 36.8333 111 30.6667 127 30 c 0
 139.667 29.3333 152.333 35.3333 165 48 c 1
 175 60 180.333 74 181 90 c 0
EndSplineSet
EndChar
StartChar: uni0D05
Encoding: 3333 3333
Width: 1110
Flags: HW
Fore
1068 190 m 0
 1068 142 1057 99.3333 1035 62 c 0
 1008.33 18 972.667 -4.33333 928 -5 c 0
 886 -5.66667 854 9.33333 832 40 c 0
 813.333 66.6667 803.667 101.667 803 145 c 0
 802.333 194.333 812.333 238.333 833 277 c 0
 856.333 321.667 889.667 351 933 365 c 1
 903 395 871.333 410 838 410 c 0
 800 410 767.167 397.667 739.5 373 c 0
 711.833 348.333 698 317.333 698 280 c 2
 698 0 l 1
 648 0 l 1
 648 280 l 2
 648 311.333 633.333 340.833 604 368.5 c 0
 574.667 396.167 544.333 410 513 410 c 0
 471 410 441 405 423 395 c 1
 444.333 387.667 462.833 375.333 478.5 358 c 0
 494.167 340.667 502.333 321.333 503 300 c 0
 503.667 280 496.5 263 481.5 249 c 0
 466.5 235 448.667 225.333 428 220 c 1
 452.667 212 474.333 198.667 493 180 c 0
 509 162.667 517.333 142.667 518 120 c 0
 518.667 84 503.333 53.6667 472 29 c 0
 443.333 7 410.333 -4.33333 373 -5 c 0
 326.333 -5.66667 288.667 16.6667 260 62 c 0
 236 101.333 223.667 145.667 223 195 c 0
 222.333 235.667 234.333 274.333 259 311 c 0
 281.667 345.667 311.333 373.667 348 395 c 1
 334 405 307.333 410 268 410 c 0
 212 410 165.5 389.167 128.5 347.5 c 0
 91.5 305.833 73 256.667 73 200 c 0
 73 112.667 98 51 148 15 c 1
 128 -5 l 1
 100 14.3333 79 41.6667 65 77 c 0
 51 112.333 43.6667 153.333 43 200 c 0
 42.3333 267.333 65.3333 324.833 112 372.5 c 0
 158.667 420.167 215.667 444.333 283 445 c 0
 317 445 352 436.667 388 420 c 1
 434 436 477.4 447.424 518 445 c 0
 585 441 637.667 410.667 673 340 c 1
 687 372 709.667 397.333 741 416 c 0
 772.333 434.667 806.333 444.333 843 445 c 0
 908.333 445.667 963 419 1007 365 c 0
 1047.67 315 1068 256.667 1068 190 c 0
1008 190 m 0
 1008 250 988 300 948 340 c 1
 910 333.333 880.333 309.667 859 269 c 0
 842.333 236.333 833.667 198.333 833 155 c 0
 832.333 71.6667 860.667 30 918 30 c 0
 948 30 971.333 50.3333 988 91 c 0
 1001.33 122.333 1008 155.333 1008 190 c 0
443 295 m 0
 444.333 329.667 420 356.333 370 375 c 1
 314.667 349.667 276.667 303 256 235 c 1
 378 235 l 2
 396 235 411.167 240.5 423.5 251.5 c 0
 435.833 262.5 442.333 277 443 295 c 0
458 130 m 0
 458.667 149.333 452 166.667 438 182 c 0
 424 197.333 407.333 205 388 205 c 2
 256 205 l 1
 253 180 l 1
 253 142 262.333 108.667 281 80 c 0
 303 47.3333 332 30.6667 368 30 c 0
 394.667 29.3333 416.167 39 432.5 59 c 0
 448.833 79 457.333 102.667 458 130 c 0
EndSplineSet
EndChar
StartChar: uni0D06
Encoding: 3334 3334
Width: 1245
Flags: HW
Fore
1210 120 m 0
 1210.67 43.3333 1185 -22.3333 1133 -77 c 0
 1081 -131.667 1016.67 -159.333 940 -160 c 0
 890 -160.667 850 -152.333 820 -135 c 1
 835 -105 l 1
 857.667 -117.667 892.667 -124.333 940 -125 c 0
 995.333 -125.667 1044.17 -101.5 1086.5 -52.5 c 0
 1128.83 -3.5 1150 54 1150 120 c 0
 1150 161.333 1141.67 198.333 1125 231 c 0
 1105 270.333 1076.67 293.333 1040 300 c 1
 1050 280 1055 253.333 1055 220 c 0
 1055 166.667 1042.67 118 1018 74 c 0
 988.667 21.3333 949.333 -5 900 -5 c 0
 866 -5 838 9.33333 816 38 c 0
 796 64 785.667 94.6667 785 130 c 0
 784.333 181.333 801.333 225.5 836 262.5 c 0
 870.667 299.5 913.667 320.333 965 325 c 1
 954.333 347.667 938.333 368.333 917 387 c 1
 895 402.333 874.333 410 855 410 c 0
 814.333 410 776.667 397.333 742 372 c 0
 707.333 346.667 690 319.333 690 290 c 2
 690 0 l 1
 640 0 l 1
 640 280 l 2
 640 314.667 623.333 345.333 590 372 c 0
 558.667 396.667 525.333 409.333 490 410 c 0
 451.333 410.667 426.333 407.333 415 400 c 1
 470.333 374.667 498.667 343 500 305 c 0
 501.333 269 473 242.333 415 225 c 1
 441 219.667 463.333 206.333 482 185 c 0
 500.667 163.667 510 142 510 120 c 0
 510 84 495.833 54.3333 467.5 31 c 0
 439.167 7.66667 406.667 -4.33333 370 -5 c 0
 318.667 -5.66667 277.333 18 246 66 c 0
 218.667 108 205 156 205 210 c 0
 205 290 251.667 353.333 345 400 c 1
 308.333 406.667 283.333 410 270 410 c 0
 214 410 167.5 389.167 130.5 347.5 c 0
 93.5 305.833 75 256.667 75 200 c 0
 75 117.333 98.3333 55.6667 145 15 c 1
 120 -5 l 1
 70 45 45 113.333 45 200 c 0
 45 265.333 66 321.667 108 369 c 0
 152 419 206 444.333 270 445 c 0
 317.333 445.667 354 437.333 380 420 c 1
 410 436 446.667 444.333 490 445 c 0
 560.667 445.667 619 415.667 665 355 c 1
 705.667 415 770.667 445 860 445 c 0
 898 445 932.667 434.667 964 414 c 0
 995.333 393.333 1017.33 365.333 1030 330 c 1
 1052.67 330 1075.17 323.833 1097.5 311.5 c 0
 1119.83 299.167 1140 282.667 1158 262 c 0
 1192 222 1209.33 174.667 1210 120 c 0
995 230 m 0
 995 258 990 281.333 980 300 c 1
 932.667 300 893.333 283.5 862 250.5 c 0
 830.667 217.5 815 177.333 815 130 c 0
 815 104 821.667 81.6667 835 63 c 0
 850.333 41.6667 870.333 30.6667 895 30 c 0
 929 29.3333 955.333 55.6667 974 109 c 0
 988 149 995 189.333 995 230 c 0
440 310 m 0
 440 324.667 432.667 339.333 418 354 c 0
 405.333 366 391 374.667 375 380 c 1
 317.667 370.667 272 325.667 238 245 c 1
 350 245 l 2
 372 245 391.667 250 409 260 c 0
 429.667 272.667 440 289.333 440 310 c 0
450 140 m 0
 450.667 158.667 440.833 175.833 420.5 191.5 c 0
 400.167 207.167 376.667 215 350 215 c 2
 238 215 l 1
 235 190 l 1
 235 152 246 116.667 268 84 c 0
 292.667 48 323.333 30 360 30 c 0
 387.333 30 409.667 41.6667 427 65 c 0
 441.667 86.3333 449.333 111.333 450 140 c 0
EndSplineSet
EndChar
StartChar: uni0D07
Encoding: 3335 3335
Width: 809
Flags: HW
Fore
767 -200 m 1
 142 -200 l 2
 112.667 -200 86.3333 -190.5 63 -171.5 c 0
 39.6667 -152.5 27.6667 -128.667 27 -100 c 0
 26.3333 -71.3333 37.3333 -47 60 -27 c 0
 82 -9 107.667 0 137 0 c 2
 547 0 l 2
 595.667 0 635.333 23.6667 666 71 c 0
 693.333 112.333 707 158.667 707 210 c 0
 707 257.333 695.667 300 673 338 c 0
 646.333 382.667 611 405 567 405 c 0
 529.667 405 497 393.333 469 370 c 0
 441 346.667 427 316.667 427 280 c 2
 427 50 l 1
 377 50 l 1
 377 280 l 2
 377 316 362.833 345.667 334.5 369 c 0
 306.167 392.333 273.667 404.333 237 405 c 0
 189.667 405.667 149.667 388.667 117 354 c 0
 84.3333 319.333 67.6667 278 67 230 c 1
 73 253.333 86 272.333 106 287 c 0
 126 301.667 148 309.333 172 310 c 0
 206 310.667 235.167 299.333 259.5 276 c 0
 283.833 252.667 296.333 224 297 190 c 0
 297.667 154.667 284.333 125.167 257 101.5 c 0
 229.667 77.8333 198 65.6667 162 65 c 0
 123.333 64.3333 92.3333 83 69 121 c 0
 48.3333 153 37.6667 189.333 37 230 c 0
 36.3333 288 55 338.167 93 380.5 c 0
 131 422.833 179 444.333 237 445 c 0
 315 445.667 370 414 402 350 c 1
 414.667 379.333 437.333 403 470 421 c 0
 500.667 437 533 445 567 445 c 0
 626.333 445 675 420 713 370 c 0
 748.333 324 766.333 270.667 767 210 c 0
 767.667 146 747 90 705 42 c 0
 663 -6 612 -30 552 -30 c 2
 137 -30 l 2
 117 -30 100 -35 86 -45 c 0
 70 -55.6667 62 -70.6667 62 -90 c 0
 62 -107.333 69.6667 -121 85 -131 c 0
 98.3333 -140.333 114 -145 132 -145 c 2
 767 -145 l 1
 767 -200 l 1
237 190 m 0
 237.667 213.333 231 234 217 252 c 0
 203 270 184.667 279.333 162 280 c 0
 140 280.667 122.167 271.5 108.5 252.5 c 0
 94.8333 233.5 87.6667 212.667 87 190 c 0
 86.3333 166.667 92.6667 145.667 106 127 c 0
 120.667 106.333 139.333 95.6667 162 95 c 0
 184.667 94.3333 203.333 104.667 218 126 c 0
 230 144.667 236.333 166 237 190 c 0
EndSplineSet
EndChar
StartChar: uni0D08
Encoding: 3336 3336
Width: 1231
Flags: HW
Fore
1227 220 m 2
 1227 156.667 1206 103.5 1164 60.5 c 0
 1122 17.5 1069.67 -4.33301 1007 -5 c 0
 961.667 -5.66699 922.333 13.667 889 53 c 1
 907 70 l 1
 927 40 958.667 25 1002 25 c 0
 1046.67 25 1085.33 42.667 1118 78 c 0
 1150.67 113.333 1167 155.667 1167 205 c 2
 1167 225 l 2
 1167 266.333 1160.33 304.333 1147 339 c 0
 1128.33 385.667 1101.67 409.333 1067 410 c 0
 1049.67 410.667 1034.5 402.833 1021.5 386.5 c 0
 1008.5 370.167 1002 351.333 1002 330 c 2
 1002 180 l 1
 952 180 l 1
 952 330 l 2
 952 349.333 947 367 937 383 c 0
 925 401 910 410 892 410 c 0
 866.667 410 846.667 397.333 832 372 c 0
 819.333 350.667 812.667 326.667 812 300 c 0
 811.333 254.667 823 218 847 190 c 1
 827 170 l 1
 797 201.333 782 244.667 782 300 c 0
 782 335.333 790.333 367 807 395 c 0
 827 427.667 853.667 444.333 887 445 c 0
 907.667 445.667 926.5 440.167 943.5 428.5 c 0
 960.5 416.833 971.667 402.333 977 385 c 1
 983 403 994.5 417.5 1011.5 428.5 c 0
 1028.5 439.5 1047 445 1067 445 c 0
 1114.33 445.667 1153.67 422.667 1185 376 c 0
 1213 334.667 1227 289.333 1227 240 c 2
 1227 220 l 2
767 -200 m 1
 142 -200 l 2
 112.667 -200 86.3333 -190.5 63 -171.5 c 0
 39.6667 -152.5 27.6667 -128.667 27 -100 c 0
 26.3333 -71.3333 37.3333 -47 60 -27 c 0
 82 -9 107.667 0 137 0 c 2
 547 0 l 2
 595.667 0 635.333 23.6667 666 71 c 0
 693.333 112.333 707 158.667 707 210 c 0
 707 257.333 695.667 300 673 338 c 0
 646.333 382.667 611 405 567 405 c 0
 529.667 405 497 393.333 469 370 c 0
 441 346.667 427 316.667 427 280 c 2
 427 50 l 1
 377 50 l 1
 377 280 l 2
 377 316 362.833 345.667 334.5 369 c 0
 306.167 392.333 273.667 404.333 237 405 c 0
 189.667 405.667 149.667 388.667 117 354 c 0
 84.3333 319.333 67.6667 278 67 230 c 1
 73 253.333 86 272.333 106 287 c 0
 126 301.667 148 309.333 172 310 c 0
 206 310.667 235.167 299.333 259.5 276 c 0
 283.833 252.667 296.333 224 297 190 c 0
 297.667 154.667 284.333 125.167 257 101.5 c 0
 229.667 77.8333 198 65.6667 162 65 c 0
 123.333 64.3333 92.3333 83 69 121 c 0
 48.3333 153 37.6667 189.333 37 230 c 0
 36.3333 288 55 338.167 93 380.5 c 0
 131 422.833 179 444.333 237 445 c 0
 315 445.667 370 414 402 350 c 1
 414.667 379.333 437.333 403 470 421 c 0
 500.667 437 533 445 567 445 c 0
 626.333 445 675 420 713 370 c 0
 748.333 324 766.333 270.667 767 210 c 0
 767.667 146 747 90 705 42 c 0
 663 -6 612 -30 552 -30 c 2
 137 -30 l 2
 117 -30 100 -35 86 -45 c 0
 70 -55.6667 62 -70.6667 62 -90 c 0
 62 -107.333 69.6667 -121 85 -131 c 0
 98.3333 -140.333 114 -145 132 -145 c 2
 767 -145 l 1
 767 -200 l 1
237 190 m 0
 237.667 213.333 231 234 217 252 c 0
 203 270 184.667 279.333 162 280 c 0
 140 280.667 122.167 271.5 108.5 252.5 c 0
 94.8333 233.5 87.6667 212.667 87 190 c 0
 86.3333 166.667 92.6667 145.667 106 127 c 0
 120.667 106.333 139.333 95.6667 162 95 c 0
 184.667 94.3333 203.333 104.667 218 126 c 0
 230 144.667 236.333 166 237 190 c 0
EndSplineSet
EndChar
StartChar: uni0D09
Encoding: 3337 3337
Width: 552
Flags: HW
Fore
514 -195 m 1
 114 -195 l 2
 85.3333 -195 61.6667 -185.5 43 -166.5 c 0
 24.3333 -147.5 14.6667 -123.667 14 -95 c 0
 13.3333 -76.3333 18.6667 -58.8333 30 -42.5 c 0
 41.3333 -26.1667 56 -14.3333 74 -7 c 0
 85.3333 -2.33333 98.6667 -2.1684e-19 114 0 c 2
 294 0 l 2
 342 0 380.667 22 410 66 c 0
 435.333 104.667 448.333 149.333 449 200 c 0
 449.667 255.333 431 303.167 393 343.5 c 0
 355 383.833 308.667 404.333 254 405 c 0
 206 405.667 163.833 391 127.5 361 c 0
 91.1667 331 70 292.333 64 245 c 1
 91.3333 291 126.333 314.333 169 315 c 0
 203 315.667 232.167 303.667 256.5 279 c 0
 280.833 254.333 293.333 224.667 294 190 c 0
 294.667 154.667 281.333 125.167 254 101.5 c 0
 226.667 77.8333 195 65.6667 159 65 c 0
 121.667 64.3333 91 81.3333 67 116 c 0
 45.6667 146 34.6667 180.667 34 220 c 0
 33.3333 282.667 54.1667 335.833 96.5 379.5 c 0
 138.833 423.167 191.333 445 254 445 c 0
 323.333 445 383.833 421.333 435.5 374 c 0
 487.167 326.667 513.333 268.667 514 200 c 0
 514.667 136.667 494.5 82.5 453.5 37.5 c 0
 412.5 -7.5 362.667 -30 304 -30 c 2
 109 -30 l 2
 93.6667 -30 80.8333 -36.1667 70.5 -48.5 c 0
 60.1667 -60.8333 54.6667 -76.3333 54 -95 c 0
 53.3333 -109.667 59.3333 -121.667 72 -131 c 0
 84.6667 -140.333 98.6667 -145 114 -145 c 2
 514 -145 l 1
 514 -195 l 1
234 190 m 0
 234.667 213.333 228 234.833 214 254.5 c 0
 200 274.167 181.667 284.333 159 285 c 0
 134.333 285.667 114.167 276.333 98.5 257 c 0
 82.8333 237.667 74.6667 215.333 74 190 c 0
 73.3333 165.333 81.1667 143.5 97.5 124.5 c 0
 113.833 105.5 134.333 95.6667 159 95 c 0
 181.667 94.3333 200.333 104.667 215 126 c 0
 227 144.667 233.333 166 234 190 c 0
EndSplineSet
EndChar
StartChar: uni0D0A
Encoding: 3338 3338
Width: 972
Flags: HW
Fore
968 220 m 2
 968 156.667 947 103.5 905 60.5 c 0
 863 17.5 810.667 -4.33301 748 -5 c 0
 702.667 -5.66699 663.333 13.667 630 53 c 1
 648 70 l 1
 668 40 699.667 25 743 25 c 0
 787.667 25 826.333 42.667 859 78 c 0
 891.667 113.333 908 155.667 908 205 c 2
 908 225 l 2
 908 266.333 901.333 304.333 888 339 c 0
 869.333 385.667 842.667 409.333 808 410 c 0
 790.667 410.667 775.5 402.833 762.5 386.5 c 0
 749.5 370.167 743 351.333 743 330 c 2
 743 180 l 1
 693 180 l 1
 693 330 l 2
 693 349.333 688 367 678 383 c 0
 666 401 651 410 633 410 c 0
 607.667 410 587.667 397.333 573 372 c 0
 560.333 350.667 553.667 326.667 553 300 c 0
 552.333 254.667 564 218 588 190 c 1
 568 170 l 1
 538 201.333 523 244.667 523 300 c 0
 523 335.333 531.333 367 548 395 c 0
 568 427.667 594.667 444.333 628 445 c 0
 648.667 445.667 667.5 440.167 684.5 428.5 c 0
 701.5 416.833 712.667 402.333 718 385 c 1
 724 403 735.5 417.5 752.5 428.5 c 0
 769.5 439.5 788 445 808 445 c 0
 855.333 445.667 894.667 422.667 926 376 c 0
 954 334.667 968 289.333 968 240 c 2
 968 220 l 2
514 -195 m 1
 114 -195 l 2
 85.3333 -195 61.6667 -185.5 43 -166.5 c 0
 24.3333 -147.5 14.6667 -123.667 14 -95 c 0
 13.3333 -76.3333 18.6667 -58.8333 30 -42.5 c 0
 41.3333 -26.1667 56 -14.3333 74 -7 c 0
 85.3333 -2.33333 98.6667 -2.1684e-19 114 0 c 2
 294 0 l 2
 342 0 380.667 22 410 66 c 0
 435.333 104.667 448.333 149.333 449 200 c 0
 449.667 255.333 431 303.167 393 343.5 c 0
 355 383.833 308.667 404.333 254 405 c 0
 206 405.667 163.833 391 127.5 361 c 0
 91.1667 331 70 292.333 64 245 c 1
 91.3333 291 126.333 314.333 169 315 c 0
 203 315.667 232.167 303.667 256.5 279 c 0
 280.833 254.333 293.333 224.667 294 190 c 0
 294.667 154.667 281.333 125.167 254 101.5 c 0
 226.667 77.8333 195 65.6667 159 65 c 0
 121.667 64.3333 91 81.3333 67 116 c 0
 45.6667 146 34.6667 180.667 34 220 c 0
 33.3333 282.667 54.1667 335.833 96.5 379.5 c 0
 138.833 423.167 191.333 445 254 445 c 0
 323.333 445 383.833 421.333 435.5 374 c 0
 487.167 326.667 513.333 268.667 514 200 c 0
 514.667 136.667 494.5 82.5 453.5 37.5 c 0
 412.5 -7.5 362.667 -30 304 -30 c 2
 109 -30 l 2
 93.6667 -30 80.8333 -36.1667 70.5 -48.5 c 0
 60.1667 -60.8333 54.6667 -76.3333 54 -95 c 0
 53.3333 -109.667 59.3333 -121.667 72 -131 c 0
 84.6667 -140.333 98.6667 -145 114 -145 c 2
 514 -145 l 1
 514 -195 l 1
234 190 m 0
 234.667 213.333 228 234.833 214 254.5 c 0
 200 274.167 181.667 284.333 159 285 c 0
 134.333 285.667 114.167 276.333 98.5 257 c 0
 82.8333 237.667 74.6667 215.333 74 190 c 0
 73.3333 165.333 81.1667 143.5 97.5 124.5 c 0
 113.833 105.5 134.333 95.6667 159 95 c 0
 181.667 94.3333 200.333 104.667 215 126 c 0
 227 144.667 233.333 166 234 190 c 0
EndSplineSet
EndChar
StartChar: uni0D0B
Encoding: 3339 3339
Width: 795
Flags: HW
Fore
762 -130 m 0
 762.667 -198 718 -252 628 -292 c 0
 557.333 -324 483.667 -340 407 -340 c 0
 325.667 -340 250.667 -325 182 -295 c 0
 92.6667 -256.333 47.6667 -201.333 47 -130 c 0
 46.3333 -92 62.6667 -58.6667 96 -30 c 0
 122.667 -6 156.333 12.3333 197 25 c 1
 149 46.3333 110.5 77.8333 81.5 119.5 c 0
 52.5 161.167 37.6667 208 37 260 c 0
 36.3333 310 52 353.167 84 389.5 c 0
 116 425.833 157 444.333 207 445 c 0
 245 445.667 277.667 433.5 305 408.5 c 0
 332.333 383.5 346.333 352.333 347 315 c 0
 347.667 279.667 332 250.333 300 227 c 0
 271.333 206.333 238.667 195.667 202 195 c 0
 144 194.333 100.667 222.667 72 280 c 1
 67 260 l 1
 67 202.667 85 152.667 121 110 c 0
 155 69.3333 202 42.6667 262 30 c 1
 547 30 l 1
 595.667 38.6667 637.667 65 673 109 c 0
 708.333 153 726.333 200 727 250 c 1
 724 264 l 1
 722 280 l 1
 717.333 252.667 702 231.333 676 216 c 0
 652.667 202 626.333 195 597 195 c 0
 559.667 195 526.667 205.333 498 226 c 0
 467.333 249.333 452 279 452 315 c 0
 452 352.333 466 383.667 494 409 c 0
 521.333 432.333 554 444.333 592 445 c 0
 640 445.667 680 426.667 712 388 c 0
 742 352 757 309.333 757 260 c 0
 757 209.333 743.5 162.833 716.5 120.5 c 0
 689.5 78.1667 653 46.3333 607 25 c 1
 646.333 11.6667 680 -7.33333 708 -32 c 0
 743.333 -62 761.333 -94.6667 762 -130 c 0
702 315 m 0
 702.667 339.667 693.333 360.833 674 378.5 c 0
 654.667 396.167 632.333 405 607 405 c 0
 581 405 558.833 396.5 540.5 379.5 c 0
 522.167 362.5 512.667 341 512 315 c 0
 511.333 289 520.333 267.667 539 251 c 0
 557.667 234.333 580.333 225.667 607 225 c 0
 633 224.333 655.167 232.667 673.5 250 c 0
 691.833 267.333 701.333 289 702 315 c 0
287 320 m 0
 287.667 344.667 278.333 364.833 259 380.5 c 0
 239.667 396.167 217.333 404.333 192 405 c 0
 166 405.667 143.833 397.333 125.5 380 c 0
 107.167 362.667 97.6667 341 97 315 c 0
 96.3333 289 105.333 267.667 124 251 c 0
 142.667 234.333 165.333 225.667 192 225 c 0
 218 224.333 240.167 233.5 258.5 252.5 c 0
 276.833 271.5 286.333 294 287 320 c 0
732 -130 m 0
 732 -94.6667 713 -64.1667 675 -38.5 c 0
 637 -12.8333 591 -8.67362e-19 537 0 c 2
 267 0 l 2
 221.667 0 180.667 -10.3333 144 -31 c 0
 100 -55.6667 77.6667 -88.6667 77 -130 c 0
 76.3333 -184 120.333 -226.333 209 -257 c 0
 274.333 -279 340.333 -290 407 -290 c 0
 495.667 -290 572 -274.333 636 -243 c 0
 700 -211.667 732 -174 732 -130 c 0
EndSplineSet
EndChar
StartChar: uni0D0C
Encoding: 3340 3340
Width: 879
Flags: HW
Fore
793 125 m 0
 793.667 100.333 785.833 78.5 769.5 59.5 c 0
 753.167 40.5 732.667 30.6667 708 30 c 0
 682.667 29.3333 661.333 38.5 644 57.5 c 0
 626.667 76.5 618 99 618 125 c 0
 618 152.333 626.333 175.667 643 195 c 0
 659.667 214.333 681.333 224.333 708 225 c 0
 732.667 225.667 753.333 215 770 193 c 0
 784.667 173 792.333 150.333 793 125 c 0
258 125 m 0
 258.667 99.6667 250.167 77.5 232.5 58.5 c 0
 214.833 39.5 193.333 30 168 30 c 0
 143.333 30 123 40 107 60 c 0
 91.6667 78 83.6667 99.6667 83 125 c 0
 82.3333 150.333 90.1667 173.333 106.5 194 c 0
 122.833 214.667 143.333 225 168 225 c 0
 194.667 225 216.667 215 234 195 c 0
 249.333 175.667 257.333 152.333 258 125 c 0
468 0 m 1
 468 280 l 2
 468 316 482.667 346.333 512 371 c 0
 538.667 393 570.667 404.333 608 405 c 0
 660.667 405.667 706.667 385.667 746 345 c 0
 787.333 302.333 806.667 254 804 200 c 2
 803 180 l 1
 797 205.333 782.667 225.333 760 240 c 0
 739.333 252.667 715.333 259.333 688 260 c 0
 650.667 260.667 619.833 247 595.5 219 c 0
 571.167 191 558.667 158 558 120 c 0
 557.333 83.3333 572.667 53 604 29 c 0
 632 7 665 -4.33333 703 -5 c 0
 742.333 -5.66667 773.667 11.6667 797 47 c 0
 820.333 82.3333 832.333 130 833 190 c 0
 833.667 258.667 811 318.333 765 369 c 0
 719 419.667 663.333 445 598 445 c 0
 526.667 445 473.333 413.333 438 350 c 1
 401.333 413.333 348 445 278 445 c 0
 210 445 153.333 419.333 108 368 c 0
 65.3333 318.667 43.6667 259.333 43 190 c 0
 42.3333 139.333 51.3333 96.6667 70 62 c 0
 92.6667 18 127 -4.33333 173 -5 c 0
 210.333 -5.66667 243.667 5.83333 273 29.5 c 0
 302.333 53.1667 317.333 83.3333 318 120 c 0
 318.667 158 306.5 190.667 281.5 218 c 0
 256.5 245.333 225.333 259.333 188 260 c 0
 160.667 260.667 136.5 254 115.5 240 c 0
 94.5 226 80.3333 206 73 180 c 1
 72 200 l 2
 69.3333 253.333 88.6667 301.667 130 345 c 0
 168 385 214 405 268 405 c 0
 305.333 405 338 392.667 366 368 c 0
 394 343.333 408 314 408 280 c 2
 408 0 l 1
 468 0 l 1
EndSplineSet
EndChar
StartChar: uni0D0E
Encoding: 3342 3342
Width: 1082
Flags: HW
Fore
1040 100 m 0
 1040.67 21.3333 1025.5 -48.8333 994.5 -110.5 c 0
 963.5 -172.167 922 -215.333 870 -240 c 1
 870 -200 l 1
 909.333 -172.667 938.333 -127.333 957 -64 c 0
 972.333 -14 980 40.6667 980 100 c 0
 980 170.667 964.667 234.333 934 291 c 0
 896 359.667 844.667 394.333 780 395 c 0
 712 395.667 657.333 357.667 616 281 c 0
 582 217.667 565 149 565 75 c 2
 565 30 l 1
 760 30 l 1
 760 350 l 1
 810 350 l 1
 810 -150 l 2
 810 -178.667 802.333 -203.667 787 -225 c 0
 769.667 -247.667 747.333 -259.333 720 -260 c 0
 668 -260.667 623.333 -234 586 -180 c 0
 553.333 -131.333 537 -79.6667 537 -25 c 2
 537 0 l 1
 240 0 l 1
 240 30 l 1
 261.333 34 280 47.3333 296 70 c 0
 312 92.6667 320 119.333 320 150 c 0
 320 184.667 307.167 214 281.5 238 c 0
 255.833 262 225.333 274.333 190 275 c 0
 155.333 275.667 126 262.833 102 236.5 c 0
 78 210.167 65.6667 179.667 65 145 c 0
 64.3333 87.6667 85 44.3333 127 15 c 1
 105 -5 l 1
 59 34.3333 35.6667 84.3333 35 145 c 0
 34.3333 194.333 50.3333 236.5 83 271.5 c 0
 115.667 306.5 156.333 324.333 205 325 c 0
 253 325.667 294 308.833 328 274.5 c 0
 362 240.167 379.333 198.667 380 150 c 0
 380.667 94.6667 359 54.6667 315 30 c 1
 535 30 l 1
 535 80 l 2
 535 168 555 247.333 595 318 c 0
 643 402 708 444.333 790 445 c 0
 868.667 445.667 931.667 406.333 979 327 c 0
 1019 259.667 1039.33 184 1040 100 c 0
760 -120 m 2
 760 0 l 1
 564 0 l 1
 567 -20 l 1
 567 -81.3333 583.333 -130.667 616 -168 c 0
 638 -192 664.333 -204.333 695 -205 c 0
 715 -205.667 731.333 -196.333 744 -177 c 0
 754.667 -159.667 760 -140.667 760 -120 c 2
EndSplineSet
EndChar
StartChar: uni0D0F
Encoding: 3343 3343
Width: 1084
Flags: HW
Fore
1054 -110 m 0
 1054.67 -150.667 1038.5 -185 1005.5 -213 c 0
 972.5 -241 935.333 -255 894 -255 c 2
 859 -255 l 1
 859 -220 l 1
 884 -220 l 2
 915.333 -220 941.333 -209.5 962 -188.5 c 0
 982.667 -167.5 993.333 -141.333 994 -110 c 0
 994.667 -79.3333 983.5 -53.3333 960.5 -32 c 0
 937.5 -10.6667 910.333 8.67362e-19 879 0 c 2
 829 0 l 1
 829 -150 l 2
 829 -178.667 819.5 -202.333 800.5 -221 c 0
 781.5 -239.667 757.667 -249.333 729 -250 c 0
 671.667 -250.667 627 -225.667 595 -175 c 0
 567.667 -132.333 554 -80.6667 554 -20 c 2
 554 0 l 1
 259 0 l 1
 259 30 l 1
 293.667 38.6667 318.333 64.6667 333 108 c 0
 337 120 339 134 339 150 c 0
 339 185.333 325.333 215.333 298 240 c 0
 271.333 262.667 240 274.333 204 275 c 0
 166 275.667 133.333 263.5 106 238.5 c 0
 78.6667 213.5 64.6667 182.333 64 145 c 0
 63.3333 95.6667 86.6667 52.3333 134 15 c 1
 109 -5 l 1
 59 37 34 87 34 145 c 0
 34 194.333 51.5 236.5 86.5 271.5 c 0
 121.5 306.5 164 324.333 214 325 c 0
 263.333 325.667 306.333 309.833 343 277.5 c 0
 379.667 245.167 398.333 204.333 399 155 c 0
 399.667 108.333 379.667 66.6667 339 30 c 1
 554 30 l 1
 554 60 l 2
 554 164.667 571.667 250.333 607 317 c 0
 652.333 402.333 723 445 819 445 c 0
 883.667 445 937.333 420.5 980 371.5 c 0
 1022.67 322.5 1044 265.333 1044 200 c 0
 1044 142 1026.33 94.6667 991 58 c 0
 975.667 42 956.667 29.3333 934 20 c 1
 966.667 14 994.667 -1 1018 -25 c 0
 1041.33 -49 1053.33 -77.3333 1054 -110 c 0
984 210 m 0
 984.667 260.667 969 304.833 937 342.5 c 0
 905 380.167 864 399.333 814 400 c 0
 731.333 400.667 670.333 362.667 631 286 c 0
 599.667 226 584 150.667 584 60 c 2
 584 30 l 1
 779 30 l 1
 779 340 l 1
 829 340 l 1
 829 30 l 1
 859 30 l 2
 898.333 30 930 51 954 93 c 0
 973.333 128.333 983.333 167.333 984 210 c 0
779 -130 m 2
 779 0 l 1
 584 0 l 1
 584 -20 l 2
 584 -68 593.333 -108 612 -140 c 0
 635.333 -179.333 669.333 -199.333 714 -200 c 0
 732 -200 747.333 -193 760 -179 c 0
 772.667 -165 779 -148.667 779 -130 c 2
EndSplineSet
EndChar
StartChar: uni0D10
Encoding: 3344 3344
Width: 1564
Flags: HW
Fore
523 200 m 0
 523.667 160 516 122 500 86 c 0
 482.667 47.333 458.667 17 428 -5 c 1
 398 25 l 1
 422 39 439.667 67.667 451 111 c 0
 459 143 463 177.667 463 215 c 0
 463 268.333 442.167 313.333 400.5 350 c 0
 358.833 386.667 311.333 405 258 405 c 0
 202.667 405 156.333 384.833 119 344.5 c 0
 81.667 304.167 63 256 63 200 c 1
 68 165 l 1
 72 193.667 86.5 217.5 111.5 236.5 c 0
 136.5 255.5 163.667 265 193 265 c 0
 231 265 263 252 289 226 c 0
 315 200 328 168 328 130 c 0
 328 90.667 314.5 58.333 287.5 33 c 0
 260.5 7.66699 227.333 -5 188 -5 c 0
 140.667 -5 102 18 72 64 c 0
 46.667 104 33.667 149.333 33 200 c 0
 32.333 267.333 56.167 324.833 104.5 372.5 c 0
 152.833 420.167 210.667 444.333 278 445 c 0
 345.333 445.667 402.833 421.833 450.5 373.5 c 0
 498.167 325.167 522.333 267.333 523 200 c 0
268 130 m 0
 268.667 156.667 260.5 179.833 243.5 199.5 c 0
 226.5 219.167 204.667 229.333 178 230 c 0
 151.333 230.667 129.833 221 113.5 201 c 0
 97.167 181 88.667 157.333 88 130 c 0
 87.333 103.333 95.5 80.167 112.5 60.5 c 0
 129.5 40.833 151.333 30.667 178 30 c 0
 204.667 29.333 226.167 39 242.5 59 c 0
 258.833 79 267.333 102.667 268 130 c 0
1558 100 m 0
 1558.67 21.333 1543.5 -48.833 1512.5 -110.5 c 0
 1481.5 -172.167 1440 -215.333 1388 -240 c 1
 1388 -200 l 1
 1427.33 -172.667 1456.33 -127.333 1475 -64 c 0
 1490.33 -14 1498 40.667 1498 100 c 0
 1498 170.667 1482.67 234.333 1452 291 c 0
 1414 359.667 1362.67 394.333 1298 395 c 0
 1230 395.667 1175.33 357.667 1134 281 c 0
 1100 217.667 1083 149 1083 75 c 2
 1083 30 l 1
 1278 30 l 1
 1278 350 l 1
 1328 350 l 1
 1328 -150 l 2
 1328 -178.667 1320.33 -203.667 1305 -225 c 0
 1287.67 -247.667 1265.33 -259.333 1238 -260 c 0
 1186 -260.667 1141.33 -234 1104 -180 c 0
 1071.33 -131.333 1055 -79.667 1055 -25 c 2
 1055 0 l 1
 758 0 l 1
 758 30 l 1
 779.333 34 798 47.333 814 70 c 0
 830 92.667 838 119.333 838 150 c 0
 838 184.667 825.167 214 799.5 238 c 0
 773.833 262 743.333 274.333 708 275 c 0
 673.333 275.667 644 262.833 620 236.5 c 0
 596 210.167 583.667 179.667 583 145 c 0
 582.333 87.667 603 44.333 645 15 c 1
 623 -5 l 1
 577 34.333 553.667 84.333 553 145 c 0
 552.333 194.333 568.333 236.5 601 271.5 c 0
 633.667 306.5 674.333 324.333 723 325 c 0
 771 325.667 812 308.833 846 274.5 c 0
 880 240.167 897.333 198.667 898 150 c 0
 898.667 94.667 877 54.667 833 30 c 1
 1053 30 l 1
 1053 80 l 2
 1053 168 1073 247.333 1113 318 c 0
 1161 402 1226 444.333 1308 445 c 0
 1386.67 445.667 1449.67 406.333 1497 327 c 0
 1537 259.667 1557.33 184 1558 100 c 0
1285 -120 m 2
 1285 0 l 1
 1089 0 l 1
 1092 -20 l 1
 1092 -81.333 1108.33 -130.667 1141 -168 c 0
 1163 -192 1189.33 -204.333 1220 -205 c 0
 1240 -205.667 1256.33 -196.333 1269 -177 c 0
 1279.67 -159.667 1285 -140.667 1285 -120 c 2
EndSplineSet
EndChar
StartChar: uni0D12
Encoding: 3346 3346
Width: 576
Flags: HW
Fore
545 115 m 0
 545 83 533.833 55.8333 511.5 33.5 c 0
 489.167 11.1667 462 -8.67362e-19 430 0 c 2
 340 0 l 1
 340 30 l 1
 390 30 l 2
 414.667 30 435.833 38 453.5 54 c 0
 471.167 70 480 90.3333 480 115 c 0
 480 142.333 468.667 165 446 183 c 0
 423.333 201 398 210 370 210 c 2
 360 210 l 1
 360 240 l 1
 370 240 l 1
 391.333 246 409.167 255.667 423.5 269 c 0
 437.833 282.333 445 296 445 310 c 0
 445 340 425.667 364.333 387 383 c 0
 356.333 397.667 324 405 290 405 c 0
 224.667 405.667 171 381.667 129 333 c 0
 89.6667 287.667 70 231.667 70 165 c 1
 76.6667 192.333 91.1667 214 113.5 230 c 0
 135.833 246 161.333 254.333 190 255 c 0
 225.333 255.667 255.667 243.833 281 219.5 c 0
 306.333 195.167 319.333 165.333 320 130 c 0
 320.667 92 307.833 60 281.5 34 c 0
 255.167 8 223 -5 185 -5 c 0
 141 -5 105 15.6667 77 57 c 0
 53 93 40.6667 134 40 180 c 0
 39.3333 252.667 63.6667 315 113 367 c 0
 162.333 419 223 445 295 445 c 0
 341.667 445 385.333 435.667 426 417 c 0
 478 393.667 504.333 361.333 505 320 c 0
 505.667 297.333 497.5 278 480.5 262 c 0
 463.5 246 443.333 235.333 420 230 c 1
 452 224.667 480 212.333 504 193 c 0
 531.333 171 545 145 545 115 c 0
265 130 m 0
 265.667 154.667 257.833 176.5 241.5 195.5 c 0
 225.167 214.5 204.667 224.333 180 225 c 0
 155.333 225.667 135.167 216.333 119.5 197 c 0
 103.833 177.667 95.6667 155.333 95 130 c 0
 94.3333 104 101.667 80.6667 117 60 c 0
 133.667 37.3333 154.667 25.6667 180 25 c 0
 206 24.3333 227 35.6667 243 59 c 0
 257 79 264.333 102.667 265 130 c 0
EndSplineSet
EndChar
StartChar: uni0D13
Encoding: 3347 3347
Width: 900
Flags: HW
Fore
894 220 m 0
 894.667 159.333 881 108.333 853 67 c 0
 821.667 19.667 777 -4.33301 719 -5 c 0
 668.333 -5.66699 628 10 598 42 c 0
 570 72 555.333 114.667 554 170 c 1
 584 170 l 1
 584 134 594 103 614 77 c 0
 636 49 664.333 35 699 35 c 0
 744.333 35 778.333 55.667 801 97 c 0
 819 129 828.333 170 829 220 c 0
 829.667 273.333 817.667 318 793 354 c 0
 769.667 388 738.333 405 699 405 c 0
 663.667 405 635 389 613 357 c 0
 593.667 329 584 296.667 584 260 c 1
 554 260 l 1
 554 312.667 568.5 356.5 597.5 391.5 c 0
 626.5 426.5 667 444.333 719 445 c 0
 770.333 445.667 812.167 425.5 844.5 384.5 c 0
 876.833 343.5 893.333 288.667 894 220 c 0
545 115 m 0
 545 83 533.833 55.8333 511.5 33.5 c 0
 489.167 11.1667 462 -8.67362e-19 430 0 c 2
 340 0 l 1
 340 30 l 1
 390 30 l 2
 414.667 30 435.833 38 453.5 54 c 0
 471.167 70 480 90.3333 480 115 c 0
 480 142.333 468.667 165 446 183 c 0
 423.333 201 398 210 370 210 c 2
 360 210 l 1
 360 240 l 1
 370 240 l 1
 391.333 246 409.167 255.667 423.5 269 c 0
 437.833 282.333 445 296 445 310 c 0
 445 340 425.667 364.333 387 383 c 0
 356.333 397.667 324 405 290 405 c 0
 224.667 405.667 171 381.667 129 333 c 0
 89.6667 287.667 70 231.667 70 165 c 1
 76.6667 192.333 91.1667 214 113.5 230 c 0
 135.833 246 161.333 254.333 190 255 c 0
 225.333 255.667 255.667 243.833 281 219.5 c 0
 306.333 195.167 319.333 165.333 320 130 c 0
 320.667 92 307.833 60 281.5 34 c 0
 255.167 8 223 -5 185 -5 c 0
 141 -5 105 15.6667 77 57 c 0
 53 93 40.6667 134 40 180 c 0
 39.3333 252.667 63.6667 315 113 367 c 0
 162.333 419 223 445 295 445 c 0
 341.667 445 385.333 435.667 426 417 c 0
 478 393.667 504.333 361.333 505 320 c 0
 505.667 297.333 497.5 278 480.5 262 c 0
 463.5 246 443.333 235.333 420 230 c 1
 452 224.667 480 212.333 504 193 c 0
 531.333 171 545 145 545 115 c 0
265 130 m 0
 265.667 154.667 257.833 176.5 241.5 195.5 c 0
 225.167 214.5 204.667 224.333 180 225 c 0
 155.333 225.667 135.167 216.333 119.5 197 c 0
 103.833 177.667 95.6667 155.333 95 130 c 0
 94.3333 104 101.667 80.6667 117 60 c 0
 133.667 37.3333 154.667 25.6667 180 25 c 0
 206 24.3333 227 35.6667 243 59 c 0
 257 79 264.333 102.667 265 130 c 0
EndSplineSet
EndChar
StartChar: uni0D14
Encoding: 3348 3348
Width: 972
Flags: HW
Fore
966 220 m 2
 966 156.667 945 103.5 903 60.5 c 0
 861 17.5 808.667 -4.33301 746 -5 c 0
 700.667 -5.66699 661.333 13.667 628 53 c 1
 646 70 l 1
 666 40 697.667 25 741 25 c 0
 785.667 25 824.333 42.667 857 78 c 0
 889.667 113.333 906 155.667 906 205 c 2
 906 225 l 2
 906 266.333 899.333 304.333 886 339 c 0
 867.333 385.667 840.667 409.333 806 410 c 0
 788.667 410.667 773.5 402.833 760.5 386.5 c 0
 747.5 370.167 741 351.333 741 330 c 2
 741 180 l 1
 691 180 l 1
 691 330 l 2
 691 349.333 686 367 676 383 c 0
 664 401 649 410 631 410 c 0
 605.667 410 585.667 397.333 571 372 c 0
 558.333 350.667 551.667 326.667 551 300 c 0
 550.333 254.667 562 218 586 190 c 1
 566 170 l 1
 536 201.333 521 244.667 521 300 c 0
 521 335.333 529.333 367 546 395 c 0
 566 427.667 592.667 444.333 626 445 c 0
 646.667 445.667 665.5 440.167 682.5 428.5 c 0
 699.5 416.833 710.667 402.333 716 385 c 1
 722 403 733.5 417.5 750.5 428.5 c 0
 767.5 439.5 786 445 806 445 c 0
 853.333 445.667 892.667 422.667 924 376 c 0
 952 334.667 966 289.333 966 240 c 2
 966 220 l 2
545 115 m 0
 545 83 533.833 55.8333 511.5 33.5 c 0
 489.167 11.1667 462 -8.67362e-19 430 0 c 2
 340 0 l 1
 340 30 l 1
 390 30 l 2
 414.667 30 435.833 38 453.5 54 c 0
 471.167 70 480 90.3333 480 115 c 0
 480 142.333 468.667 165 446 183 c 0
 423.333 201 398 210 370 210 c 2
 360 210 l 1
 360 240 l 1
 370 240 l 1
 391.333 246 409.167 255.667 423.5 269 c 0
 437.833 282.333 445 296 445 310 c 0
 445 340 425.667 364.333 387 383 c 0
 356.333 397.667 324 405 290 405 c 0
 224.667 405.667 171 381.667 129 333 c 0
 89.6667 287.667 70 231.667 70 165 c 1
 76.6667 192.333 91.1667 214 113.5 230 c 0
 135.833 246 161.333 254.333 190 255 c 0
 225.333 255.667 255.667 243.833 281 219.5 c 0
 306.333 195.167 319.333 165.333 320 130 c 0
 320.667 92 307.833 60 281.5 34 c 0
 255.167 8 223 -5 185 -5 c 0
 141 -5 105 15.6667 77 57 c 0
 53 93 40.6667 134 40 180 c 0
 39.3333 252.667 63.6667 315 113 367 c 0
 162.333 419 223 445 295 445 c 0
 341.667 445 385.333 435.667 426 417 c 0
 478 393.667 504.333 361.333 505 320 c 0
 505.667 297.333 497.5 278 480.5 262 c 0
 463.5 246 443.333 235.333 420 230 c 1
 452 224.667 480 212.333 504 193 c 0
 531.333 171 545 145 545 115 c 0
265 130 m 0
 265.667 154.667 257.833 176.5 241.5 195.5 c 0
 225.167 214.5 204.667 224.333 180 225 c 0
 155.333 225.667 135.167 216.333 119.5 197 c 0
 103.833 177.667 95.6667 155.333 95 130 c 0
 94.3333 104 101.667 80.6667 117 60 c 0
 133.667 37.3333 154.667 25.6667 180 25 c 0
 206 24.3333 227 35.6667 243 59 c 0
 257 79 264.333 102.667 265 130 c 0
EndSplineSet
EndChar
StartChar: uni0D15
Encoding: 3349 3349
Width: 750
Flags: HW
Fore
723 125 m 0
 723.667 91 713.667 61 693 35 c 0
 672.333 9 645.667 -4.33333 613 -5 c 0
 580.333 -5.66667 555.333 2.66667 538 20 c 1
 553 45 l 1
 568.333 35 583.333 30 598 30 c 0
 619.333 30 636 42 648 66 c 0
 657.333 84.6667 662.333 106 663 130 c 0
 663.667 152.667 657.667 172.5 645 189.5 c 0
 632.333 206.5 615 215 593 215 c 2
 513 215 l 1
 513 163.667 501.667 116.667 479 74 c 0
 451.667 22 414.667 -4.33333 368 -5 c 0
 322 -5.66667 283.667 17.6667 253 65 c 1
 245.667 43 231 25.6667 209 13 c 0
 189.667 1.66667 167.667 -4.33333 143 -5 c 0
 109.667 -5.66667 82.1667 6.5 60.5 31.5 c 0
 38.8333 56.5 28 86 28 120 c 0
 28 153.333 39 182.5 61 207.5 c 0
 83 232.5 110.333 245 143 245 c 2
 218 245 l 1
 218 293 229.333 336.333 252 375 c 0
 278 421 313.333 444.333 358 445 c 0
 405.333 445.667 443.667 423.333 473 378 c 0
 499 339.333 512.333 295 513 245 c 1
 593 245 l 2
 628.333 245 658.667 233.667 684 211 c 0
 709.333 188.333 722.333 159.667 723 125 c 0
453 245 m 1
 453 281.667 445.667 315.333 431 346 c 0
 412.333 384.667 386.333 404.333 353 405 c 0
 319.667 405.667 293 386.333 273 347 c 0
 257 315.667 248.667 281.667 248 245 c 1
 453 245 l 1
453 215 m 1
 248 215 l 1
 248 169 254.333 130 267 98 c 0
 285 53.3333 313.667 30.6667 353 30 c 0
 389.667 29.3333 416.667 52.6667 434 100 c 0
 446.667 132.667 453 171 453 215 c 1
235 95 m 1
 225 125 219.333 165 218 215 c 1
 153 215 l 2
 127 215 105.667 205.667 89 187 c 0
 72.3333 168.333 63.6667 146 63 120 c 0
 62.3333 96 69.5 75.1667 84.5 57.5 c 0
 99.5 39.8333 119 30.6667 143 30 c 0
 180.333 29.3333 211 51 235 95 c 1
EndSplineSet
EndChar
StartChar: uni0D16
Encoding: 3350 3350
Width: 875
Flags: HW
Fore
800 0 m 1
 405 0 l 1
 405 30 l 1
 457.667 58.6667 484.333 115.333 485 200 c 0
 485.667 255.333 467 303.167 429 343.5 c 0
 391 383.833 344.667 404.333 290 405 c 0
 225.333 405.667 172.5 383.833 131.5 339.5 c 0
 90.5 295.167 70 240.333 70 175 c 1
 80 125 l 1
 80 158.333 91 187.333 113 212 c 0
 135 236.667 162.333 249.333 195 250 c 0
 231.667 250.667 264.167 238.833 292.5 214.5 c 0
 320.833 190.167 335 160.333 335 125 c 0
 335 88.3333 321.667 57.6667 295 33 c 0
 268.333 8.33333 236.667 -4.33333 200 -5 c 0
 152.667 -5.66667 113.667 14.6667 83 56 c 0
 55 93.3333 40.6667 136.333 40 185 c 0
 39.3333 256.333 63.1667 317.333 111.5 368 c 0
 159.833 418.667 219.333 444.333 290 445 c 0
 359.333 445.667 419.167 422.167 469.5 374.5 c 0
 519.833 326.833 545 268.667 545 200 c 0
 545 127.333 521.667 70.6667 475 30 c 1
 750 30 l 1
 750 440 l 1
 800 440 l 1
 800 0 l 1
275 135 m 0
 275 157.667 265.667 176.667 247 192 c 0
 228.333 207.333 207.667 215 185 215 c 0
 160.333 215 140.167 205.5 124.5 186.5 c 0
 108.833 167.5 100.667 145.333 100 120 c 0
 99.3333 94.6667 107 73.5 123 56.5 c 0
 139 39.5 159.667 30.6667 185 30 c 0
 211 29.3333 233 40.3333 251 63 c 0
 267 84.3333 275 108.333 275 135 c 0
EndSplineSet
EndChar
StartChar: uni0D17
Encoding: 3351 3351
Width: 800
Flags: HW
Fore
760 220 m 0
 760.667 172 749 127.5 725 86.5 c 0
 701 45.5 667.667 15 625 -5 c 1
 610 20 l 1
 646.667 36.6667 675.333 64.3333 696 103 c 0
 714.667 137.667 724.333 176.667 725 220 c 0
 725.667 267.333 710.833 309 680.5 345 c 0
 650.167 381 611.667 399.333 565 400 c 0
 520.333 400.667 486.333 381 463 341 c 0
 445 308.333 435.667 268 435 220 c 0
 434.333 157.333 420.333 105.667 393 65 c 0
 361 19 315 -4.33333 255 -5 c 0
 195 -5.66667 144.167 14.1667 102.5 54.5 c 0
 60.8333 94.8333 40 145 40 205 c 0
 40 258.333 51.6667 306.333 75 349 c 0
 101.667 396.333 138.333 428.333 185 445 c 1
 200 425 l 1
 160.667 407.667 129.667 379 107 339 c 0
 86.3333 301.667 75.6667 260.333 75 215 c 0
 74.3333 167 89.8333 125.833 121.5 91.5 c 0
 153.167 57.1667 191 40 235 40 c 0
 283.667 40 320 58.6667 344 96 c 0
 364 126.667 374.333 168 375 220 c 0
 375.667 281.333 388.333 332 413 372 c 0
 443.667 420 487.667 444.333 545 445 c 0
 605 445.667 655.667 423.5 697 378.5 c 0
 738.333 333.5 759.333 280.667 760 220 c 0
EndSplineSet
EndChar
StartChar: uni0D18
Encoding: 3352 3352
Width: 1131
Flags: HW
Fore
1056 0 m 1
 451 0 l 1
 451 155 l 1
 241 155 l 1
 241 180 l 1
 273.667 198.667 290.333 230.333 291 275 c 0
 291.667 308.333 280.833 337.333 258.5 362 c 0
 236.167 386.667 208.667 399.333 176 400 c 0
 142.667 400.667 115.167 388.333 93.5 363 c 0
 71.8333 337.667 61 308.333 61 275 c 0
 61 239.667 79.3333 208 116 180 c 1
 101 160 l 1
 55 188 31.6667 228 31 280 c 0
 30.3333 325.333 45.5 364 76.5 396 c 0
 107.5 428 145.667 444.333 191 445 c 0
 234.333 445.667 271.833 430.833 303.5 400.5 c 0
 335.167 370.167 351 333.333 351 290 c 0
 351 268 347.5 248 340.5 230 c 0
 333.5 212 322 197 306 185 c 1
 451 185 l 1
 451 260 l 2
 451 314 471 358.667 511 394 c 0
 549.667 427.333 596.333 444.333 651 445 c 0
 698.333 445.667 740.167 430 776.5 398 c 0
 812.833 366 831 326.667 831 280 c 2
 831 155 l 1
 501 155 l 1
 501 30 l 1
 1006 30 l 1
 1006 440 l 1
 1056 440 l 1
 1056 0 l 1
781 185 m 1
 781 260 l 2
 781 299.333 769 334 745 364 c 0
 721 394 689.667 409.333 651 410 c 0
 609.667 410.667 574.333 396.167 545 366.5 c 0
 515.667 336.833 501 301.333 501 260 c 2
 501 185 l 1
 781 185 l 1
EndSplineSet
EndChar
StartChar: uni0D19
Encoding: 3353 3353
Width: 891
Flags: HW
Fore
856 110 m 0
 856 61.3333 825.333 26 764 4 c 0
 747.333 -2 728 -5 706 -5 c 0
 639.333 -5 589.333 6.66667 556 30 c 1
 571 55 l 1
 593 39 631.333 30.6667 686 30 c 0
 714.667 29.3333 739.333 37 760 53 c 0
 783.333 70.3333 795.333 92.6667 796 120 c 0
 796.667 145.333 783.333 166.333 756 183 c 0
 732.667 197.667 707.667 205 681 205 c 2
 566 205 l 1
 566 235 l 1
 681 235 l 2
 705.667 235 725.833 244.5 741.5 263.5 c 0
 757.167 282.5 765.333 304.667 766 330 c 0
 766.667 348.667 757 365.667 737 381 c 0
 717 396.333 693.333 404.333 666 405 c 0
 615.333 405.667 571 390.5 533 359.5 c 0
 495 328.5 476 292 476 250 c 2
 476 0 l 1
 426 0 l 1
 426 250 l 2
 426 294 409.667 330.667 377 360 c 0
 344.333 389.333 305.667 404.333 261 405 c 0
 210.333 405.667 165.667 384.667 127 342 c 0
 101.667 314 85 282.667 77 248 c 0
 73.6667 232 71.6667 212.667 71 190 c 1
 76 145 l 1
 76 173 88.6667 198 114 220 c 0
 136.667 240 164 250 196 250 c 0
 234 250 266.667 237.667 294 213 c 0
 321.333 188.333 335.333 157.333 336 120 c 0
 336.667 84 321.333 53.6667 290 29 c 0
 261.333 7 228.333 -4.33333 191 -5 c 0
 145 -5.66667 107.667 16 79 60 c 0
 54.3333 98.6667 41.6667 142 41 190 c 0
 40.3333 257.333 59.6667 315.667 99 365 c 0
 141.667 418.333 195.667 445 261 445 c 0
 303.667 445 342.333 434.5 377 413.5 c 0
 411.667 392.5 438 363 456 325 c 1
 473.333 363.667 502.333 393.667 543 415 c 0
 580.333 435 621.333 445 666 445 c 0
 705.333 445 740.667 435 772 415 c 0
 807.333 392.333 825.333 362.333 826 325 c 0
 826.667 273.667 798.333 240.333 741 225 c 1
 773 220.333 800.167 206.833 822.5 184.5 c 0
 844.833 162.167 856 137.333 856 110 c 0
276 120 m 0
 276.667 146 268.333 168.167 251 186.5 c 0
 233.667 204.833 212 214.333 186 215 c 0
 161.333 215.667 140.667 206.333 124 187 c 0
 107.333 167.667 98.6667 145.333 98 120 c 0
 97.3333 94 105.333 72.6667 122 56 c 0
 138.667 39.3333 160 30.6667 186 30 c 0
 211.333 29.3333 232.5 37.6667 249.5 55 c 0
 266.5 72.3333 275.333 94 276 120 c 0
EndSplineSet
EndChar
StartChar: uni0D1A
Encoding: 3354 3354
Width: 824
Flags: HW
Fore
748 0 m 1
 8 0 l 1
 8 30 l 1
 268 30 l 2
 296 30 318.667 43.6667 336 71 c 0
 350.667 94.3333 358 120.667 358 150 c 0
 358 184 343.667 213 315 237 c 0
 288.333 259 257.667 270 223 270 c 0
 189.667 270 160.667 259 136 237 c 0
 111.333 215 98.6667 187.667 98 155 c 0
 97.3333 136.333 102.333 119.667 113 105 c 1
 88 90 l 1
 75.3333 108.667 68.6667 132 68 160 c 0
 67.3333 205.333 84 242.333 118 271 c 0
 152 299.667 192 314.333 238 315 c 0
 285.333 315.667 327.167 300 363.5 268 c 0
 399.833 236 418 196.667 418 150 c 0
 418 90 396.333 50 353 30 c 1
 698 30 l 1
 698 440 l 1
 748 440 l 1
 748 0 l 1
EndSplineSet
EndChar
StartChar: uni0D1B
Encoding: 3355 3355
Width: 1113
Flags: HW
Fore
1072 190 m 0
 1072 142 1061 99.3333 1039 62 c 0
 1012.33 18 976.667 -4.33333 932 -5 c 0
 892 -5.66667 859 10.3333 833 43 c 0
 809 73 797 108.667 797 150 c 0
 797 197.333 808.5 240.667 831.5 280 c 0
 854.5 319.333 886.333 351 927 375 c 1
 899 395 865.667 405 827 405 c 0
 775 405 731.333 385.667 696 347 c 0
 660.667 308.333 642.667 262.667 642 210 c 0
 641.333 166.667 653.333 128.5 678 95.5 c 0
 702.667 62.5 735.667 40.6667 777 30 c 1
 777 0 l 1
 7 0 l 1
 7 30 l 1
 287 30 l 2
 321 30 349.333 41.5 372 64.5 c 0
 394.667 87.5 406.333 116 407 150 c 0
 407.667 189.333 390.333 221.333 355 246 c 0
 323.667 268 287.667 279.333 247 280 c 0
 211 280.667 178.667 271 150 251 c 0
 118 228.333 102 199.667 102 165 c 0
 102 139.667 108.667 121.333 122 110 c 1
 92 90 l 1
 79.3333 108.667 72.6667 133.667 72 165 c 0
 71.3333 212.333 92.6667 251.667 136 283 c 0
 174.667 311 218.333 325 267 325 c 0
 319 325 364.667 309 404 277 c 0
 446 243 467 200.667 467 150 c 0
 467 93.3333 443.667 53.3333 397 30 c 1
 712 30 l 1
 645.333 68 612 128 612 210 c 0
 612 276 634.667 331.667 680 377 c 0
 725.333 422.333 781 445 847 445 c 0
 912.333 445 967 418.333 1011 365 c 0
 1051.67 315 1072 256.667 1072 190 c 0
1012 200 m 0
 1012.67 265.333 991 317 947 355 c 1
 868.333 308.333 828.333 241.667 827 155 c 0
 826.333 123.667 835.333 96 854 72 c 0
 872.667 48 897 35.6667 927 35 c 0
 955 34.3333 977 56 993 100 c 0
 1005.67 133.333 1012 166.667 1012 200 c 0
EndSplineSet
EndChar
StartChar: uni0D1C
Encoding: 3356 3356
Width: 653
Flags: HW
Fore
610 320 m 0
 610 279.333 593 246 559 220 c 0
 528.333 196.667 492 185 450 185 c 2
 225 185 l 2
 197 185 172.667 176.833 152 160.5 c 0
 131.333 144.167 120.667 122.333 120 95 c 0
 119.333 75 128 59 146 47 c 0
 161.333 36.3333 179.333 30.6667 200 30 c 0
 228.667 29.3333 272 46 330 80 c 0
 402.667 122.667 462.667 144.333 510 145 c 0
 534 145 555 138.667 573 126 c 0
 593.667 111.333 604.333 92.6667 605 70 c 0
 605.667 47.3333 595.333 28.6667 574 14 c 0
 555.333 2 534 -4.33333 510 -5 c 0
 486.667 -5.66667 465.333 0.166667 446 12.5 c 0
 426.667 24.8333 416.333 42.3333 415 65 c 1
 425 95 l 1
 415 95 378.333 76.6667 315 40 c 0
 263 10 221.333 -5 190 -5 c 0
 156 -5 126.667 4.66667 102 24 c 0
 77.3333 43.3333 65 68.6667 65 100 c 0
 65 148.667 95.6667 184 157 206 c 0
 173.667 212 193 215 215 215 c 2
 435 215 l 2
 466.333 215 493.167 224.833 515.5 244.5 c 0
 537.833 264.167 549.333 289.333 550 320 c 0
 550.667 344.667 540 365.333 518 382 c 0
 498 396.667 475.333 404.333 450 405 c 0
 423.333 405.667 399.333 399.333 378 386 c 0
 352.667 370.667 340 350.333 340 325 c 2
 340 250 l 1
 290 250 l 1
 290 330 l 2
 290 351.333 280.5 369.167 261.5 383.5 c 0
 242.5 397.833 222 405 200 405 c 2
 169 405 l 2
 158.333 405 150.333 403.333 145 400 c 1
 166.333 400 185.667 392 203 376 c 0
 220.333 360 229.333 341.333 230 320 c 0
 230.667 292.667 219 270.333 195 253 c 0
 173.667 238.333 148.667 230.667 120 230 c 0
 96 229.333 76 238 60 256 c 0
 44 274 35.6667 295.333 35 320 c 0
 34.3333 356 49.6667 386.333 81 411 c 0
 109.667 433 142.667 444.333 180 445 c 0
 212 445.667 242 439.333 270 426 c 0
 294.667 414.667 311.333 397.667 320 375 c 1
 346 420.333 396 443.667 470 445 c 0
 506.667 445.667 539.167 433.833 567.5 409.5 c 0
 595.833 385.167 610 355.333 610 320 c 0
545 65 m 0
 545 76.3333 540.167 86.5 530.5 95.5 c 0
 520.833 104.5 509 109.333 495 110 c 0
 481.667 110.667 470.167 106.667 460.5 98 c 0
 450.833 89.3333 445.667 78.3333 445 65 c 0
 444.333 43 461 31.3333 495 30 c 0
 506.333 29.3333 517.5 32.1667 528.5 38.5 c 0
 539.5 44.8333 545 53.6667 545 65 c 0
170 320 m 0
 170.667 335.333 165.5 349.167 154.5 361.5 c 0
 143.5 373.833 130.333 380 115 380 c 0
 99.6667 380 87.6667 374 79 362 c 0
 70.3333 350 65.6667 336 65 320 c 0
 64.3333 304 68.5 290.167 77.5 278.5 c 0
 86.5 266.833 99 260.667 115 260 c 0
 131 259.333 144 265 154 277 c 0
 164 289 169.333 303.333 170 320 c 0
EndSplineSet
EndChar
StartChar: uni0D1D
Encoding: 3357 3357
Width: 1308
Flags: HW
Fore
1275 210 m 0
 1275.67 154.667 1259 105.667 1225 63 c 0
 1189 18.3333 1144 -4.33333 1090 -5 c 0
 1021.33 -6.33333 973 25.3333 945 90 c 1
 938.333 61.3333 919.667 38 889 20 c 0
 861.667 4 832 -4.33333 800 -5 c 0
 749.333 -5.66667 708.333 9 677 39 c 0
 645.667 69 630 109.333 630 160 c 2
 630 260 l 2
 630 304.667 617 340.833 591 368.5 c 0
 565 396.167 529.667 410 485 410 c 0
 447.667 410 414.333 405 385 395 c 1
 419.667 371 447.333 340.333 468 303 c 0
 488.667 265.667 499.333 226.333 500 185 c 0
 500.667 136.333 486.667 93.3333 458 56 c 0
 426.667 16 387.333 -4.33333 340 -5 c 0
 296.667 -5.66667 262.333 16 237 60 c 0
 215.667 96.6667 205 138.333 205 185 c 0
 205 267 243.333 335.333 320 390 c 1
 294.667 400.667 274.667 407.333 260 410 c 1
 204 410 157.5 389.167 120.5 347.5 c 0
 83.5 305.833 65 256.667 65 200 c 0
 65 117.333 90 54 140 10 c 1
 120 -5 l 1
 92 14.3333 71 41.6667 57 77 c 0
 43 112.333 35.6667 153.333 35 200 c 0
 34.3333 264.667 55.6667 321.5 99 370.5 c 0
 142.333 419.5 196 444.333 260 445 c 0
 290 445 323.333 435 360 415 c 1
 403.333 435 446.667 445 490 445 c 0
 547.333 445 593.333 428.5 628 395.5 c 0
 662.667 362.5 680 317.333 680 260 c 2
 680 160 l 2
 680 120.667 690.833 90.1667 712.5 68.5 c 0
 734.167 46.8333 763.333 35.6667 800 35 c 0
 832.667 34.3333 860.833 45.3333 884.5 68 c 0
 908.167 90.6667 920 118 920 150 c 2
 920 440 l 1
 970 440 l 1
 970 150 l 2
 970 116.667 983.667 89 1011 67 c 0
 1035.67 46.3333 1065.33 35.6667 1100 35 c 0
 1143.33 34.3333 1179 53 1207 91 c 0
 1231.67 125.667 1244.33 165.333 1245 210 c 0
 1245.67 254 1235.33 295.5 1214 334.5 c 0
 1192.67 373.5 1163 402 1125 420 c 1
 1140 445 l 1
 1182.67 425.667 1216 393 1240 347 c 0
 1262.67 305 1274.33 259.333 1275 210 c 0
440 190 m 0
 440.667 220.667 431.833 252.667 413.5 286 c 0
 395.167 319.333 370.667 349 340 375 c 1
 307.333 356.333 281.833 329.667 263.5 295 c 0
 245.167 260.333 235.667 223.667 235 185 c 0
 234.333 149 242 116 258 86 c 0
 276.667 48.6667 302.333 30 335 30 c 0
 368.333 30 395 49.3333 415 88 c 0
 431 119.333 439.333 153.333 440 190 c 0
EndSplineSet
EndChar
StartChar: uni0D1E
Encoding: 3358 3358
Width: 1108
Flags: HW
Fore
1063 210 m 0
 1063 122.667 1038 51 988 -5 c 1
 948 15 l 1
 984 57 1002.33 115.333 1003 190 c 0
 1003.67 242.667 989.667 290.333 961 333 c 0
 929.667 380.333 888.667 404.333 838 405 c 0
 806.667 405.667 781.667 400.667 763 390 c 1
 793.667 364 818.667 332.667 838 296 c 0
 857.333 257.333 867.333 218.667 868 180 c 0
 868.667 133.333 855.667 91.6667 829 55 c 0
 800.333 15 763.333 -5 718 -5 c 0
 674.667 -5 639 14 611 52 c 0
 586.333 86 573.667 125.333 573 170 c 0
 572.333 210.667 583.667 250.333 607 289 c 0
 629 325.667 657.667 356 693 380 c 1
 667.667 396 639.333 404.333 608 405 c 0
 569.333 405.667 535.333 394.667 506 372 c 0
 474 348 458 317.333 458 280 c 2
 458 0 l 1
 408 0 l 1
 408 280 l 2
 408 316 393.833 345.667 365.5 369 c 0
 337.167 392.333 304.667 404.333 268 405 c 0
 215.333 405.667 169.333 385.667 130 345 c 0
 88.6667 302.333 69.3333 254 72 200 c 2
 73 180 l 1
 86.3333 232.667 124.667 259.333 188 260 c 0
 225.333 260.667 256.667 246.667 282 218 c 0
 305.333 190.667 317.333 158 318 120 c 0
 318.667 84 303.333 53.6667 272 29 c 0
 243.333 7 210.333 -4.33333 173 -5 c 0
 133.667 -5.66667 102.333 11.6667 79 47 c 0
 55.6667 82.3333 43.6667 130 43 190 c 0
 42.3333 258.667 64 317.667 108 367 c 0
 153.333 419 210 445 278 445 c 0
 349.333 445 402.667 413.333 438 350 c 1
 475.333 412 535.333 443.667 618 445 c 0
 654 445.667 692.333 434 733 410 c 1
 773 432.667 814.667 444.333 858 445 c 0
 913.333 445.667 961.333 423.167 1002 377.5 c 0
 1042.67 331.833 1063 276 1063 210 c 0
808 180 m 0
 808.667 217.333 801.333 252.833 786 286.5 c 0
 770.667 320.167 748 346.333 718 365 c 1
 664.667 334.333 629 289 611 229 c 0
 606.333 212.333 603.667 192.667 603 170 c 0
 602.333 134.667 611.667 103.333 631 76 c 0
 651.667 46 679 30.6667 713 30 c 0
 739 29.3333 761.333 44 780 74 c 0
 798 102 807.333 137.333 808 180 c 0
258 125 m 0
 258 152.333 249.667 175.667 233 195 c 0
 216.333 214.333 194.667 224.333 168 225 c 0
 143.333 225.667 123.167 215.5 107.5 194.5 c 0
 91.8333 173.5 83.6667 150.333 83 125 c 0
 82.3333 100.333 90.1667 78.5 106.5 59.5 c 0
 122.833 40.5 143.333 30.6667 168 30 c 0
 193.333 29.3333 214.667 38.5 232 57.5 c 0
 249.333 76.5 258 99 258 125 c 0
EndSplineSet
EndChar
StartChar: uni0D1F
Encoding: 3359 3359
Width: 503
Flags: HW
Fore
476 140 m 0
 476.667 94 449.333 57 394 29 c 0
 349.333 7 301.667 -4.33333 251 -5 c 0
 171.667 -5.66667 98.3333 22.6667 31 80 c 1
 51 100 l 1
 112.333 50 179 25 251 25 c 0
 289.667 25 325 33.3333 357 50 c 0
 396.333 70.6667 416 99 416 135 c 0
 416 153.667 405 171.333 383 188 c 1
 360.333 201.333 333 208.667 301 210 c 1
 204 200 l 1
 171 200 l 2
 135.667 200 104.667 208.667 78 226 c 0
 47.3333 245.333 31.6667 271.667 31 305 c 0
 30.3333 341.667 52.5 374.167 97.5 402.5 c 0
 142.5 430.833 197 445 261 445 c 0
 331 445 394.333 421.667 451 375 c 1
 431 355 l 1
 374.333 395 317.667 415 261 415 c 0
 211 415 168.667 404.333 134 383 c 0
 99.3333 361.667 81.6667 335.667 81 305 c 0
 80.3333 285.667 91.3333 270 114 258 c 0
 128 250 147 245.667 171 245 c 1
 221 250 l 1
 268 254 l 1
 301 255 l 2
 341 256.333 378.333 247.667 413 229 c 0
 454.333 207 475.333 177.333 476 140 c 0
EndSplineSet
EndChar
StartChar: uni0D20
Encoding: 3360 3360
Width: 508
Flags: HW
Fore
469 220 m 0
 469.667 158.667 449.167 105.833 407.5 61.5 c 0
 365.833 17.1667 314.667 -5 254 -5 c 0
 194 -5 143.333 17.3333 102 62 c 0
 60.6667 106.667 39.6667 159.333 39 220 c 0
 38.3333 281.333 58.8333 334.167 100.5 378.5 c 0
 142.167 422.833 193.333 445 254 445 c 0
 314 445 364.667 422.667 406 378 c 0
 447.333 333.333 468.333 280.667 469 220 c 0
409 220 m 0
 409.667 270.667 394 314.833 362 352.5 c 0
 330 390.167 289 409.333 239 410 c 0
 192.333 410.667 152.5 392.5 119.5 355.5 c 0
 86.5 318.5 69.6667 273.333 69 220 c 0
 68.3333 168.667 83.8333 124.333 115.5 87 c 0
 147.167 49.6667 188.333 30.6667 239 30 c 0
 288.333 29.3333 329.333 49 362 89 c 0
 392.667 125.667 408.333 169.333 409 220 c 0
EndSplineSet
EndChar
StartChar: uni0D21
Encoding: 3361 3361
Width: 1118
Flags: HW
Fore
1076 210 m 0
 1076 154.667 1060 106 1028 64 c 0
 993.333 18 949.333 -5 896 -5 c 0
 855.333 -5 818.667 2.66667 786 18 c 0
 748.667 36 722 61.6667 706 95 c 1
 699.333 62.3333 678 37 642 19 c 0
 611.333 3.66667 577.667 -4.33333 541 -5 c 0
 496.333 -5.66667 457.667 8.83333 425 38.5 c 0
 392.333 68.1667 376 105.333 376 150 c 2
 376 260 l 2
 376 299.333 364 334 340 364 c 0
 316 394 284.667 409.333 246 410 c 0
 195.333 410.667 153.5 392 120.5 354 c 0
 87.5 316 71 271.333 71 220 c 0
 71 176.667 82.1667 136.833 104.5 100.5 c 0
 126.833 64.1667 157.333 37.3333 196 20 c 1
 186 -5 l 1
 140.667 11.6667 105 41.3333 79 84 c 0
 54.3333 124.667 41.6667 170 41 220 c 0
 40.3333 278.667 57.6667 330 93 374 c 0
 131 421.333 178.667 445 236 445 c 0
 294 445 341.333 429.667 378 399 c 0
 416.667 366.333 436 321.667 436 265 c 2
 436 145 l 2
 436 113 447.833 86.8333 471.5 66.5 c 0
 495.167 46.1667 523.333 35.6667 556 35 c 0
 592 34.3333 622.667 47.5 648 74.5 c 0
 673.333 101.5 686 133.333 686 170 c 2
 686 440 l 1
 736 440 l 1
 736 170 l 2
 736 130 751.333 97 782 71 c 0
 810.667 47 845.333 35 886 35 c 0
 919.333 35 949.167 44.8333 975.5 64.5 c 0
 1001.83 84.1667 1021.33 110 1034 142 c 0
 1042 162 1046 184.667 1046 210 c 0
 1046 254.667 1035.33 295.667 1014 333 c 0
 991.333 373 960.333 402 921 420 c 1
 936 445 l 1
 976 427.667 1009.33 397.167 1036 353.5 c 0
 1062.67 309.833 1076 262 1076 210 c 0
EndSplineSet
EndChar
StartChar: uni0D22
Encoding: 3362 3362
Width: 1153
Flags: HW
Fore
1111 230 m 0
 1111.67 166.667 1089 111.667 1043 65 c 0
 997 18.3333 941.333 -5 876 -5 c 0
 790.667 -5 734 26.6667 706 90 c 1
 701.333 60 684 36 654 18 c 0
 628 2.66667 598.667 -5 566 -5 c 0
 506 -5 456.333 18 417 64 c 0
 389.667 96 376 133 376 175 c 2
 376 260 l 2
 376 300.667 362.667 335.667 336 365 c 0
 309.333 394.333 276 409.333 236 410 c 0
 188 410.667 148 391.667 116 353 c 0
 86 317 71 274.333 71 225 c 0
 71 178.333 81.6667 136.667 103 100 c 0
 126.333 58.6667 159 32 201 20 c 1
 186 -5 l 1
 140.667 12.3333 104.667 43 78 87 c 0
 54 128.333 41.6667 174.333 41 225 c 0
 40.3333 283 60 334.167 100 378.5 c 0
 140 422.833 188.667 445 246 445 c 0
 295.333 445 337.667 426.5 373 389.5 c 0
 408.333 352.5 426 309.333 426 260 c 2
 426 165 l 2
 426 125.667 439.5 93.3333 466.5 68 c 0
 493.5 42.6667 526.667 30 566 30 c 0
 599.333 30 627.667 41.6667 651 65 c 0
 674.333 88.3333 686 116.667 686 150 c 2
 686 440 l 1
 736 440 l 1
 736 140 l 2
 736 106 751.333 78.6667 782 58 c 0
 809.333 40 840.667 30.6667 876 30 c 0
 900 29.3333 920 36 936 50 c 1
 869.333 90 836 155 836 245 c 0
 836 293 847.333 336.333 870 375 c 0
 896 421 931.333 444.333 976 445 c 0
 1018.67 445.667 1053 419.333 1079 366 c 0
 1099.67 323.333 1110.33 278 1111 230 c 0
1076 230 m 0
 1076.67 278 1067.17 319.167 1047.5 353.5 c 0
 1027.83 387.833 1004 405 976 405 c 0
 953.333 405 933.667 388.167 917 354.5 c 0
 900.333 320.833 891.667 279.333 891 230 c 0
 890.333 195.333 896 163.667 908 135 c 0
 922.667 102.333 943.667 79 971 65 c 1
 1003.67 79.6667 1029.17 101.833 1047.5 131.5 c 0
 1065.83 161.167 1075.33 194 1076 230 c 0
EndSplineSet
EndChar
StartChar: uni0D23
Encoding: 3363 3363
Width: 1165
Flags: HW
Fore
1124 220 m 0
 1124 116.667 1082.33 40 999 -10 c 1
 974 25 l 1
 1034 74.3333 1064 139.333 1064 220 c 0
 1064 266.667 1051.67 308.667 1027 346 c 0
 999 388.667 963 410 919 410 c 0
 881 410 848.167 397.667 820.5 373 c 0
 792.833 348.333 779 317.333 779 280 c 2
 779 0 l 1
 729 0 l 1
 729 280 l 2
 729 316.667 716.5 347.333 691.5 372 c 0
 666.5 396.667 635.667 409.333 599 410 c 0
 563 410.667 532.333 398.167 507 372.5 c 0
 481.667 346.833 469 316 469 280 c 2
 469 0 l 1
 419 0 l 1
 419 280 l 2
 419 316 404.5 346.5 375.5 371.5 c 0
 346.5 396.5 311 409.333 269 410 c 0
 215 410.667 169 391.833 131 353.5 c 0
 93 315.167 74 269 74 215 c 2
 74 180 l 1
 80 203.333 92.8333 221.667 112.5 235 c 0
 132.167 248.333 154.333 255 179 255 c 0
 215 255 245.667 241.5 271 214.5 c 0
 296.333 187.5 309 156 309 120 c 0
 309 85.3333 296 56 270 32 c 0
 244 8 213.667 -4.33333 179 -5 c 0
 138.333 -5.66667 105.833 11.8333 81.5 47.5 c 0
 57.1667 83.1667 44.6667 130.667 44 190 c 0
 43.3333 263.333 62 323.333 100 370 c 0
 140.667 419.333 197 444.333 269 445 c 0
 311.667 445.667 349.5 437.167 382.5 419.5 c 0
 415.5 401.833 437.667 378.667 449 350 c 1
 484.333 412 534.333 443.667 599 445 c 0
 633 445.667 664.667 438 694 422 c 0
 726 404.667 747.667 380.667 759 350 c 1
 795.667 412.667 852.333 444.333 929 445 c 0
 986.333 445.667 1033.67 422 1071 374 c 0
 1106.33 330 1124 278.667 1124 220 c 0
249 125 m 0
 249.667 149.667 242.5 171.5 227.5 190.5 c 0
 212.5 209.5 193 219.333 169 220 c 0
 145.667 220.667 126.333 210.333 111 189 c 0
 96.3333 170.333 89 149 89 125 c 0
 89 99.6667 96 78 110 60 c 0
 124.667 40 144.333 30 169 30 c 0
 192.333 30 211.667 40.3333 227 61 c 0
 241 79.6667 248.333 101 249 125 c 0
EndSplineSet
EndChar
StartChar: uni0D24
Encoding: 3364 3364
Width: 806
Flags: HW
Fore
762 200 m 0
 762.667 108 736 39.6667 682 -5 c 1
 647 25 l 1
 679.667 51 696.333 109.333 697 200 c 0
 697.667 254.667 679.833 302.333 643.5 343 c 0
 607.167 383.667 561.667 404.333 507 405 c 0
 469.667 405.667 439.667 400.667 417 390 c 1
 449.667 367.333 476.167 336.833 496.5 298.5 c 0
 516.833 260.167 527 219 527 175 c 0
 527 130.333 515 90.3333 491 55 c 0
 464.333 15.6667 429.667 -4.33333 387 -5 c 0
 343 -5.66667 307.667 16 281 60 c 0
 259 96.6667 247.667 138.333 247 185 c 0
 246.333 273 281.333 338 352 380 c 1
 320 396.667 291.667 405 267 405 c 0
 211.667 405.667 165.333 385.5 128 344.5 c 0
 90.6667 303.5 72 255.333 72 200 c 0
 72 122 98.6667 60.3333 152 15 c 1
 132 -5 l 1
 72 45 42 113.333 42 200 c 0
 42 267.333 64.5 325 109.5 373 c 0
 154.5 421 210.333 445 277 445 c 0
 313.667 445 352 433.333 392 410 c 1
 430.667 432.667 475.667 444.333 527 445 c 0
 592.333 445.667 647.667 421.5 693 372.5 c 0
 738.333 323.5 761.333 266 762 200 c 0
467 175 m 0
 467 255 437 320 377 370 c 1
 345.667 353.333 320.667 327 302 291 c 0
 285.333 258.333 277 223 277 185 c 0
 277 149 284.667 116 300 86 c 0
 318.667 48.6667 344.333 30 377 30 c 0
 406.333 30 429.333 47.6667 446 83 c 0
 460 111.667 467 142.333 467 175 c 0
EndSplineSet
EndChar
StartChar: uni0D25
Encoding: 3365 3365
Width: 794
Flags: HW
Fore
733 0 m 1
 78 0 l 1
 78 440 l 1
 128 440 l 1
 128 30 l 1
 378 30 l 1
 378 260 l 2
 378 311.333 395.667 355 431 391 c 0
 466.333 427 508.667 445 558 445 c 0
 607.333 445 648.833 426.667 682.5 390 c 0
 716.167 353.333 733 310 733 260 c 2
 733 0 l 1
703 30 m 1
 703 260 l 2
 703 300 689.333 334 662 362 c 0
 634.667 390 601.667 404.333 563 405 c 0
 523.667 405.667 491.333 391.5 466 362.5 c 0
 440.667 333.5 428 299.333 428 260 c 2
 428 30 l 1
 703 30 l 1
EndSplineSet
EndChar
StartChar: uni0D26
Encoding: 3366 3366
Width: 494
Flags: HW
Fore
459 105 m 0
 459 70.3333 441 42.6667 405 22 c 0
 375 4.66667 341.333 -4.33333 304 -5 c 0
 240.667 -5.66667 192.333 7.66667 159 35 c 1
 174 60 l 1
 208 40 244.667 30 284 30 c 0
 311.333 30 335.333 36.3333 356 49 c 0
 380.667 64.3333 393.333 84.6667 394 110 c 0
 394.667 152 374.333 181.333 333 198 c 0
 321.667 202.667 308.667 205 294 205 c 2
 174 205 l 1
 174 235 l 1
 279 235 l 2
 303.667 235 324.833 243 342.5 259 c 0
 360.167 275 369 295.333 369 320 c 0
 369 347.333 357.333 369.667 334 387 c 0
 312.667 401.667 287.667 409.333 259 410 c 0
 205 410.667 160.667 387 126 339 c 0
 95.3333 295.667 79.6667 246 79 190 c 0
 78.3333 120 95 56.6667 129 0 c 1
 94 0 l 1
 64 63.3333 49 126.667 49 190 c 0
 49 262 67.3333 321.333 104 368 c 0
 144 418.667 199 444.333 269 445 c 0
 307 445.667 342 436.333 374 417 c 0
 410.667 395 429 366 429 330 c 0
 429 304.667 421 282.333 405 263 c 0
 389 243.667 368.667 231 344 225 c 1
 374 217.667 400 203.667 422 183 c 0
 446.667 159.667 459 133.667 459 105 c 0
EndSplineSet
EndChar
StartChar: uni0D27
Encoding: 3367 3367
Width: 793
Flags: HW
Fore
752 210 m 0
 752 154 735.333 105 702 63 c 0
 666.667 18.3333 621.667 -4.33333 567 -5 c 0
 475.667 -5.66667 417.333 24.3333 392 85 c 1
 380.667 56.3333 358.667 33.6667 326 17 c 0
 296.667 3 265.333 -4.33333 232 -5 c 0
 181.333 -5.66667 136.667 15.3333 98 58 c 0
 61.3333 98.6667 42.6667 149.333 42 210 c 0
 41.3333 258.667 51 303.333 71 344 c 0
 91.6667 387.333 122 421 162 445 c 1
 182 420 l 1
 130 385.333 103.333 315.333 102 210 c 0
 101.333 166 112.333 126.333 135 91 c 0
 161 51 195 30.6667 237 30 c 0
 271 29.3333 300.333 40.8333 325 64.5 c 0
 349.667 88.1667 362 116.667 362 150 c 2
 362 440 l 1
 412 440 l 1
 412 150 l 2
 412 113.333 427.667 83.6667 459 61 c 0
 486.333 41 519 30.6667 557 30 c 0
 603.667 29.3333 643.333 47.6667 676 85 c 0
 706 121 721.333 162.667 722 210 c 0
 722.667 256 712.667 298 692 336 c 0
 669.333 377.333 637.667 405.333 597 420 c 1
 612 445 l 1
 652.667 429.667 686.167 400.167 712.5 356.5 c 0
 738.833 312.833 752 264 752 210 c 0
EndSplineSet
EndChar
StartChar: uni0D28
Encoding: 3368 3368
Width: 811
Flags: HW
Fore
770 220 m 0
 770 171.333 758.167 126.667 734.5 86 c 0
 710.833 45.3333 677.667 15 635 -5 c 1
 615 20 l 1
 645.667 36.6667 669 65.6667 685 107 c 0
 698.333 141 705 178.667 705 220 c 0
 705 266.667 693.667 308.333 671 345 c 0
 644.333 387.667 609 409.333 565 410 c 0
 527.667 410.667 495 398.5 467 373.5 c 0
 439 348.5 425 317.333 425 280 c 2
 425 0 l 1
 375 0 l 1
 375 280 l 2
 375 316 361.5 346.667 334.5 372 c 0
 307.5 397.333 276 410 240 410 c 0
 192.667 410 152.667 391.667 120 355 c 0
 87.3333 318.333 70.6667 273.333 70 220 c 0
 69.3333 176 81.3333 135.5 106 98.5 c 0
 130.667 61.5 163.667 35.3333 205 20 c 1
 190 -5 l 1
 143.333 12.3333 106.333 42.6667 79 86 c 0
 53.6667 126.667 40.6667 173 40 225 c 0
 39.3333 283 59 334.167 99 378.5 c 0
 139 422.833 187.667 445 245 445 c 0
 281.667 445 314.833 436.5 344.5 419.5 c 0
 374.167 402.5 394.333 379.333 405 350 c 1
 416.333 382 439.333 406.333 474 423 c 0
 503.333 437 537 444.333 575 445 c 0
 632.333 445.667 679.667 422 717 374 c 0
 752.333 330 770 278.667 770 220 c 0
EndSplineSet
EndChar
StartChar: uni0D2A
Encoding: 3370 3370
Width: 785
Flags: HW
Fore
709 0 m 1
 239 0 l 1
 239 30 l 1
 265.667 34.6667 287.667 50 305 76 c 0
 321 100 329 126.333 329 155 c 0
 329 189.667 316 219 290 243 c 0
 264 267 233.667 279.333 199 280 c 0
 160.333 280.667 128.167 267.333 102.5 240 c 0
 76.8333 212.667 64 179.333 64 140 c 0
 64 80 85.6667 40 129 20 c 1
 114 -5 l 1
 90 8.33333 70.3333 28.6667 55 56 c 0
 41 80.6667 34 110.333 34 145 c 0
 34 193.667 51 234.833 85 268.5 c 0
 119 302.167 160.333 319.333 209 320 c 0
 257 320.667 299.333 304 336 270 c 0
 370.667 238 388.333 198 389 150 c 0
 389.667 92.6667 369.667 52.6667 329 30 c 1
 659 30 l 1
 659 440 l 1
 709 440 l 1
 709 0 l 1
EndSplineSet
EndChar
StartChar: uni0D2B
Encoding: 3371 3371
Width: 1004
Flags: HW
Fore
944 0 m 1
 259 0 l 1
 259 30 l 1
 282.333 38.6667 300.667 54.3333 314 77 c 0
 327.333 99.6667 334 124 334 150 c 0
 334 184.667 321.833 214 297.5 238 c 0
 273.167 262 243.667 274.333 209 275 c 0
 169 275.667 134.833 261.667 106.5 233 c 0
 78.1667 204.333 64 170 64 130 c 0
 64 83.3333 84 45 124 15 c 1
 114 -5 l 1
 91.3333 5 72 23 56 49 c 1
 41.3333 78.3333 34 107 34 135 c 0
 34 185 50.6667 228.167 84 264.5 c 0
 117.333 300.833 159 319.333 209 320 c 0
 258.333 320.667 301.333 304.833 338 272.5 c 0
 374.667 240.167 393.333 199.333 394 150 c 0
 394.667 88 376.333 48 339 30 c 1
 579 30 l 1
 579 220 l 2
 579 276.667 594.667 327 626 371 c 0
 660.667 420.333 705 445 759 445 c 0
 813 445 858 423 894 379 c 0
 927.333 338.333 944 290.333 944 235 c 2
 944 0 l 1
914 30 m 1
 914 240 l 2
 914 283.333 901.667 321.667 877 355 c 0
 850.333 391 816 409.333 774 410 c 0
 728.667 410.667 692.333 389.667 665 347 c 0
 641 309.667 629 267.333 629 220 c 2
 629 30 l 1
 914 30 l 1
EndSplineSet
EndChar
StartChar: uni0D2C
Encoding: 3372 3372
Width: 1157
Flags: HW
Fore
1082 0 m 1
 647 0 l 1
 647 30 l 1
 684.333 48 714.333 75.3333 737 112 c 0
 759.667 148.667 771.333 188 772 230 c 0
 772.667 277.333 757.833 319 727.5 355 c 0
 697.167 391 658.667 409.333 612 410 c 0
 578 410.667 548.667 397.833 524 371.5 c 0
 499.333 345.167 487 314.667 487 280 c 2
 487 0 l 1
 437 0 l 1
 437 280 l 2
 437 319.333 419.667 351.333 385 376 c 0
 353.667 398 317.667 409.333 277 410 c 0
 221.667 410.667 173.167 391.167 131.5 351.5 c 0
 89.8333 311.833 70 264.667 72 210 c 1
 73 185 l 1
 77 155 l 1
 81 185 94.5 210 117.5 230 c 0
 140.5 250 167 260 197 260 c 0
 233.667 260 264.333 247.5 289 222.5 c 0
 313.667 197.5 326.333 166.667 327 130 c 0
 327.667 92 314.833 60 288.5 34 c 0
 262.167 8 230 -5 192 -5 c 0
 140 -5 101 19 75 67 c 0
 53.6667 105.667 42.6667 153.333 42 210 c 0
 41.3333 276 64.6667 331.5 112 376.5 c 0
 159.333 421.5 216 444.333 282 445 c 0
 363.333 445.667 423.333 412.333 462 345 c 1
 494 411 549 444.333 627 445 c 0
 681.667 445.667 729.333 425 770 383 c 0
 810.667 341 831.333 290 832 230 c 0
 832.667 187.333 825 148.333 809 113 c 0
 789.667 71 762.333 43.3333 727 30 c 1
 1032 30 l 1
 1032 440 l 1
 1082 440 l 1
 1082 0 l 1
267 125 m 0
 267.667 150.333 259.833 173.333 243.5 194 c 0
 227.167 214.667 206.667 225 182 225 c 0
 157.333 225 137.167 214.833 121.5 194.5 c 0
 105.833 174.167 97.6667 151 97 125 c 0
 96.3333 100.333 104.167 78.5 120.5 59.5 c 0
 136.833 40.5 157.333 30.6667 182 30 c 0
 206.667 29.3333 226.833 38.6667 242.5 58 c 0
 258.167 77.3333 266.333 99.6667 267 125 c 0
EndSplineSet
EndChar
StartChar: uni0D2D
Encoding: 3373 3373
Width: 497
Flags: HW
Fore
463 100 m 0
 463 72.6667 455 49.6667 439 31 c 0
 421.667 10.3333 399.667 8.67362e-19 373 0 c 2
 173 0 l 1
 173 30 l 1
 343 30 l 2
 357 30 368.833 34.8333 378.5 44.5 c 0
 388.167 54.1667 393 66 393 80 c 0
 393 106 379.667 119.333 353 120 c 0
 340.333 120 328 118.667 316 116 c 2
 296 111 l 1
 273 110 l 2
 243.667 108.667 218.167 117.667 196.5 137 c 0
 174.833 156.333 163.667 180.667 163 210 c 0
 162.333 237.333 170.5 260.5 187.5 279.5 c 0
 204.5 298.5 226.333 308.667 253 310 c 1
 288 300 l 1
 333 295 l 1
 362.333 295 377.333 308.333 378 335 c 0
 378.667 353 366.667 370.667 342 388 c 1
 316.667 402 287 409.333 253 410 c 0
 200.333 410.667 157.333 388.333 124 343 c 0
 93.3333 301.667 78 254 78 200 c 0
 78 116 98 49.3333 138 0 c 1
 103 0 l 1
 67 52 48.6667 118.667 48 200 c 0
 47.3333 272 66.8333 330.667 106.5 376 c 0
 146.167 421.333 201.667 444.333 273 445 c 0
 315.667 445.667 353 434 385 410 c 0
 420.333 384 438 350.667 438 310 c 0
 438 295.333 433.333 281.667 424 269 c 0
 414.667 256.333 402.667 250 388 250 c 0
 376 250 359.833 253.333 339.5 260 c 0
 319.167 266.667 303.667 270 293 270 c 0
 274.333 270.667 258.167 265.5 244.5 254.5 c 0
 230.833 243.5 223.667 228.667 223 210 c 0
 222.333 193.333 228.333 176.667 241 160 c 1
 253 147.333 268.667 140.667 288 140 c 0
 312.667 139.333 336 146 358 160 c 0
 362 162.667 377 164.333 403 165 c 0
 419.667 165.667 433.833 159.333 445.5 146 c 0
 457.167 132.667 463 117.333 463 100 c 0
EndSplineSet
EndChar
StartChar: uni0D2E
Encoding: 3374 3374
Width: 574
Flags: HW
Fore
517 0 m 1
 57 0 l 1
 57 230 l 2
 57 290 79.3333 340.667 124 382 c 0
 168.667 423.333 221.333 444.333 282 445 c 0
 346 445.667 401.167 426.5 447.5 387.5 c 0
 493.833 348.5 517 301 517 245 c 2
 517 0 l 1
487 30 m 1
 487 240 l 2
 487 290.667 467.167 333.333 427.5 368 c 0
 387.833 402.667 342.667 420 292 420 c 0
 250 420 218.333 411.667 197 395 c 1
 237.667 395 272.333 379.333 301 348 c 0
 327.667 317.333 341.333 281.333 342 240 c 0
 342.667 199.333 335.167 160.167 319.5 122.5 c 0
 303.833 84.8333 281.333 54 252 30 c 1
 487 30 l 1
282 240 m 0
 282 273.333 274 303 258 329 c 0
 238.667 359.667 213.333 375 182 375 c 1
 152.667 364.333 129.5 345.5 112.5 318.5 c 0
 95.5 291.5 87 262 87 230 c 2
 87 30 l 1
 192 30 l 1
 252 79.3333 282 149.333 282 240 c 0
EndSplineSet
EndChar
StartChar: uni0D2F
Encoding: 3375 3375
Width: 887
Flags: HW
Fore
843 255 m 0
 843 177 820.833 114.333 776.5 67 c 0
 732.167 19.6667 671 -4.33333 593 -5 c 0
 555.667 -5 515.667 5 473 25 c 1
 419 5 362.333 -5 303 -5 c 0
 229 -5 166.5 20.6667 115.5 72 c 0
 64.5 123.333 38.6667 186 38 260 c 0
 37.3333 310.667 53 354 85 390 c 0
 117 426 158 444.333 208 445 c 0
 245.333 445.667 277.667 430.667 305 400 c 0
 329 372.667 345 339.333 353 300 c 1
 359 340 377.167 374.167 407.5 402.5 c 0
 437.833 430.833 473 445 513 445 c 0
 546.333 445 576.167 435.167 602.5 415.5 c 0
 628.833 395.833 648.333 370 661 338 c 0
 669 318 673 295.333 673 270 c 0
 673 221.333 658 176.667 628 136 c 0
 600.667 98 564 67.6667 518 45 c 1
 535.333 35 572 30 628 30 c 0
 683.333 30 728.667 53.3333 764 100 c 0
 796 142.667 812.333 192.667 813 250 c 0
 813.667 325.333 790.333 383.667 743 425 c 1
 768 445 l 1
 792.667 425 811.667 396 825 358 c 0
 837 324.667 843 290.333 843 255 c 0
613 255 m 0
 613.667 291.667 604.667 324.667 586 354 c 0
 565.333 387.333 537.667 404.333 503 405 c 0
 463.667 405.667 431.667 387.333 407 350 c 0
 385 318 373.667 281.333 373 240 c 0
 372.333 204.667 381.833 171.167 401.5 139.5 c 0
 421.167 107.833 446.667 83 478 65 c 1
 518.667 79 551.167 103.333 575.5 138 c 0
 599.833 172.667 612.333 211.667 613 255 c 0
433 50 m 1
 364.333 88.6667 321 154.333 303 247 c 0
 293.667 293.667 278.667 331.667 258 361 c 0
 237.333 390.333 215.667 405 193 405 c 0
 157 405 127.667 389.333 105 358 c 0
 84.3333 330 73.6667 297.333 73 260 c 0
 72.3333 193.333 98.3333 137 151 91 c 0
 201 47 260 25 328 25 c 0
 362.667 25 397.667 33.3333 433 50 c 1
EndSplineSet
EndChar
StartChar: uni0D30
Encoding: 3376 3376
Width: 578
Flags: HW
Fore
539 190 m 0
 539 140.667 526.667 97.3333 502 60 c 0
 473.333 17.3333 435.667 -4.33333 389 -5 c 0
 343.667 -5.66667 307.333 15.3333 280 58 c 0
 256 95.3333 244 137.667 244 185 c 0
 244 226.333 253.5 264.667 272.5 300 c 0
 291.5 335.333 318.667 362 354 380 c 1
 338 396 311.333 404.333 274 405 c 0
 218.667 405.667 171.667 385.5 133 344.5 c 0
 94.3333 303.5 74.6667 255.333 74 200 c 0
 73.3333 118 96.6667 56.3333 144 15 c 1
 119 -5 l 1
 69.6667 35 44.6667 100 44 190 c 0
 43.3333 259.333 66 319.167 112 369.5 c 0
 158 419.833 215.333 445 284 445 c 0
 354.667 445 414.833 420.167 464.5 370.5 c 0
 514.167 320.833 539 260.667 539 190 c 0
479 195 m 0
 479 257.667 445.667 312.667 379 360 c 1
 329.667 332.667 297 292.667 281 240 c 0
 276.333 225.333 274 208.667 274 190 c 0
 273.333 152.667 281.333 118.333 298 87 c 0
 317.333 49.6667 344.333 30.6667 379 30 c 0
 411.667 29.3333 437.333 49.6667 456 91 c 0
 471.333 124.333 479 159 479 195 c 0
EndSplineSet
EndChar
StartChar: uni0D31
Encoding: 3377 3377
Width: 510
Flags: HW
Fore
471 220 m 0
 471 169.333 458.333 123.833 433 83.5 c 0
 407.667 43.1667 372 13.6667 326 -5 c 1
 301 30 l 1
 334.333 50 360.833 77 380.5 111 c 0
 400.167 145 410.333 181.333 411 220 c 0
 411.667 270 395 313.167 361 349.5 c 0
 327 385.833 285.333 404.333 236 405 c 0
 188 405.667 148 386.667 116 348 c 0
 86 312 71 269.333 71 220 c 0
 71 130.667 109.333 62.3333 186 15 c 1
 166 -5 l 1
 126.667 18.3333 96.1667 50 74.5 90 c 0
 52.8333 130 41.6667 173.333 41 220 c 0
 40.3333 281.333 60 334.167 100 378.5 c 0
 140 422.833 190.333 445 251 445 c 0
 311.667 445 363.5 422.667 406.5 378 c 0
 449.5 333.333 471 280.667 471 220 c 0
EndSplineSet
EndChar
StartChar: uni0D32
Encoding: 3378 3378
Width: 771
Flags: HW
Fore
694 0 m 1
 59 0 l 1
 59 240 l 2
 59 296 76.8333 344 112.5 384 c 0
 148.167 424 193.667 444.333 249 445 c 0
 301.667 445.667 347 424.667 385 382 c 0
 421 340.667 439 293.333 439 240 c 2
 439 165 l 1
 109 165 l 1
 109 30 l 1
 644 30 l 1
 644 440 l 1
 694 440 l 1
 694 0 l 1
409 195 m 1
 409 240 l 2
 409 286 393.833 325.667 363.5 359 c 0
 333.167 392.333 295 409.333 249 410 c 0
 207 410.667 172.333 392.333 145 355 c 0
 121 321.667 109 283.333 109 240 c 2
 109 195 l 1
 409 195 l 1
EndSplineSet
EndChar
StartChar: uni0D33
Encoding: 3379 3379
Width: 559
Flags: HW
Fore
530 80 m 0
 530 46.6667 515.333 19.6667 486 -1 c 0
 459.333 -20.3333 429 -30 395 -30 c 2
 125 -30 l 2
 107.667 -30 93.5 -36.5 82.5 -49.5 c 0
 71.5 -62.5 65.6667 -79.3333 65 -100 c 0
 64.3333 -114 69 -125.833 79 -135.5 c 0
 89 -145.167 101 -150 115 -150 c 2
 520 -150 l 1
 520 -200 l 1
 125 -200 l 2
 96.3333 -200 72.6667 -190.5 54 -171.5 c 0
 35.3333 -152.5 25.6667 -128.667 25 -100 c 0
 24.3333 -72 33.1667 -48.3333 51.5 -29 c 0
 69.8333 -9.66667 92.6667 8.67362e-19 120 0 c 2
 350 0 l 2
 377.333 0 401.333 6.33333 422 19 c 0
 446.667 33.6667 459.333 54 460 80 c 0
 460.667 104.667 447 124.667 419 140 c 0
 396.333 153.333 371.667 160 345 160 c 2
 335 160 l 1
 335 190 l 1
 345 190 l 2
 367.667 190 386.333 200.667 401 222 c 0
 413 240 419.333 261 420 285 c 0
 420.667 323 402 354 364 378 c 0
 331.333 398.667 295 409.333 255 410 c 0
 203.667 410.667 159.5 393.333 122.5 358 c 0
 85.5 322.667 66.3333 280 65 230 c 1
 70 180 l 1
 70 212.667 80.3333 240.667 101 264 c 0
 121.667 287.333 148 299.333 180 300 c 0
 212.667 300.667 240.833 288.333 264.5 263 c 0
 288.167 237.667 300 208.333 300 175 c 0
 300 142.333 286.833 115.167 260.5 93.5 c 0
 234.167 71.8333 204 60.6667 170 60 c 0
 128 59.3333 94.3333 77.6667 69 115 c 0
 46.3333 147.667 35 186 35 230 c 0
 35 292 58 343.667 104 385 c 0
 148.667 424.333 202.333 444.333 265 445 c 0
 317.667 445.667 365.667 432.667 409 406 c 0
 459 375.333 484.333 335 485 285 c 0
 485.667 260.333 479.333 238.333 466 219 c 0
 452 197 433.333 184 410 180 c 1
 439.333 180 466 170.667 490 152 c 0
 516.667 132 530 108 530 80 c 0
240 180 m 0
 240.667 202 233.833 221.5 219.5 238.5 c 0
 205.167 255.5 187 264.333 165 265 c 0
 143 265.667 125.333 256 112 236 c 0
 101.333 218.667 95.6667 198.333 95 175 c 0
 94.3333 153.667 100.5 135.167 113.5 119.5 c 0
 126.5 103.833 143.667 95.6667 165 95 c 0
 187 94.3333 205 103.333 219 122 c 0
 232.333 138.667 239.333 158 240 180 c 0
EndSplineSet
EndChar
StartChar: uni0D34
Encoding: 3380 3380
Width: 507
Flags: HW
Fore
478 310 m 0
 478.667 247.333 446.333 200 381 168 c 0
 367 161.333 351 155.333 333 150 c 1
 339 128.667 342.333 110.333 343 95 c 0
 343.667 65 331 40.3333 305 21 c 0
 281.667 4.33333 254.333 -4.33333 223 -5 c 0
 173 -5.66667 129.667 14.3333 93 55 c 1
 118 75 l 1
 144.667 42.3333 178 25.6667 218 25 c 0
 238 24.3333 255.333 31.5 270 46.5 c 0
 284.667 61.5 292.333 79.3333 293 100 c 0
 293 107.333 286.333 122.333 273 145 c 1
 114.333 145 34.3333 200 33 310 c 0
 32.3333 357.333 45.6667 400.667 73 440 c 1
 123 410 l 1
 103 386 93 356 93 320 c 0
 93 271.333 107.667 234 137 208 c 0
 164.333 184 206.333 171.333 263 170 c 1
 233 222 218 268.667 218 310 c 0
 218 347.333 229.667 379.167 253 405.5 c 0
 276.333 431.833 306.333 445 343 445 c 0
 384.333 445 417 432.833 441 408.5 c 0
 465 384.167 477.333 351.333 478 310 c 0
448 310 m 0
 448 337.333 439.667 360.667 423 380 c 0
 406.333 399.333 384.667 409.333 358 410 c 0
 334.667 410.667 314.833 402.5 298.5 385.5 c 0
 282.167 368.5 273.667 348.333 273 325 c 0
 272.333 283.667 287.333 235.333 318 180 c 1
 353.333 185.333 383.833 199.667 409.5 223 c 0
 435.167 246.333 448 275.333 448 310 c 0
EndSplineSet
EndChar
StartChar: uni0D35
Encoding: 3381 3381
Width: 829
Flags: HW
Fore
752 0 m 1
 307 0 l 1
 307 30 l 1
 341 41.3333 367 67.3333 385 108 c 0
 399.667 141.333 407 178.667 407 220 c 0
 407 270 391 313.167 359 349.5 c 0
 327 385.833 286.333 404.333 237 405 c 0
 186.333 405.667 145.333 382.667 114 336 c 0
 86 294.667 72 247.667 72 195 c 0
 72 153.667 82 117.667 102 87 c 0
 122 56.3333 150.333 33.3333 187 18 c 1
 167 -5 l 1
 128.333 13.6667 98 41.5 76 78.5 c 0
 54 115.5 42.6667 156 42 200 c 0
 41.3333 262 58.6667 317.333 94 366 c 0
 132.667 418.667 182 445 242 445 c 0
 305.333 445 358.667 422.5 402 377.5 c 0
 445.333 332.5 467 278.333 467 215 c 0
 467 123.667 437 62 377 30 c 1
 702 30 l 1
 702 440 l 1
 752 440 l 1
 752 0 l 1
EndSplineSet
EndChar
StartChar: uni0D36
Encoding: 3382 3382
Width: 802
Flags: HW
Fore
761 205 m 0
 761.667 156.333 750.667 111.333 728 70 c 0
 701.333 20.6667 665.667 -4.33333 621 -5 c 0
 588.333 -5.66667 560 9.66667 536 41 c 0
 513.333 70.3333 501.667 108.333 501 155 c 0
 499.667 243.667 538 312 616 360 c 1
 590 390 558.333 405 521 405 c 0
 475 405 438.333 382.333 411 337 c 0
 387.667 298.333 376 254.5 376 205.5 c 0
 376 156.5 365 111.333 343 70 c 0
 316.333 20.6667 280.667 -4.33333 236 -5 c 0
 179.333 -5.66667 132.333 15.3333 95 58 c 0
 59 98.6667 41 147.667 41 205 c 0
 41 254.333 52 300 74 342 c 0
 97.3333 386.667 129.667 421 171 445 c 1
 196 415 l 1
 134 373.667 102.333 302 101 200 c 0
 100.333 158 112 120.667 136 88 c 0
 162 52.6667 195.333 35 236 35 c 0
 264 35 288.333 50.6667 309 82 c 0
 329.667 113.333 340.333 152.667 341 200 c 0
 341.667 262 357.667 316.667 389 364 c 0
 425 418 472.333 445 531 445 c 0
 597 445 651.667 421.5 695 374.5 c 0
 738.333 327.5 760.333 271 761 205 c 0
696 190 m 0
 696 250.667 676 299 636 335 c 1
 567.333 295 532.333 233.333 531 150 c 0
 530.333 122 537.333 96.6667 552 74 c 0
 568.667 48.6667 590 35.6667 616 35 c 0
 642.667 34.3333 663.667 54.6667 679 96 c 0
 690.333 126.667 696 158 696 190 c 0
EndSplineSet
EndChar
StartChar: uni0D37
Encoding: 3383 3383
Width: 1016
Flags: HW
Fore
938 0 m 1
 258 0 l 1
 258 30 l 1
 279.333 34 298 47.3333 314 70 c 0
 330 92.6667 338 119.333 338 150 c 0
 338 187.333 324 218.667 296 244 c 0
 268.667 267.333 236 279.333 198 280 c 0
 159.333 280.667 127.167 267.333 101.5 240 c 0
 75.8333 212.667 63 179.333 63 140 c 0
 63 80 84.6667 40 128 20 c 1
 118 -5 l 1
 92 9.66667 71.5 30 56.5 56 c 0
 41.5 82 33.6667 110 33 140 c 0
 32.3333 188.667 49.6667 230.667 85 266 c 0
 120.333 301.333 163 319.333 213 320 c 0
 262.333 320.667 305.333 304.833 342 272.5 c 0
 378.667 240.167 397.333 199.333 398 150 c 0
 398.667 92.6667 378.667 52.6667 338 30 c 1
 598 30 l 1
 598 240 l 1
 568 240 l 2
 534 240 505.667 249.667 483 269 c 0
 460.333 288.333 448.667 313.667 448 345 c 0
 447.333 372.333 456.333 395.833 475 415.5 c 0
 493.667 435.167 516.333 445 543 445 c 0
 578.333 445 605.333 430.667 624 402 c 0
 640 378 648 347.333 648 310 c 2
 648 270 l 1
 738.667 278 828.667 334.667 918 440 c 1
 938 440 l 1
 938 0 l 1
888 30 m 1
 888 350 l 1
 821.333 294.667 741.333 258 648 240 c 1
 648 30 l 1
 888 30 l 1
598 270 m 1
 598 310 l 2
 598 332.667 593 354 583 374 c 0
 570.333 398 553.667 410 533 410 c 0
 517 410 504.333 402 495 386 c 0
 487.667 372.667 483.667 357.333 483 340 c 0
 482.333 318 492 300.333 512 287 c 0
 530 275.667 550.333 270 573 270 c 2
 598 270 l 1
EndSplineSet
EndChar
StartChar: uni0D38
Encoding: 3384 3384
Width: 1106
Flags: HW
Fore
1065 220 m 0
 1065 160 1047 108.333 1011 65 c 0
 972.333 18.3333 923.667 -5 865 -5 c 0
 809.667 -5 766 14 734 52 c 0
 704.667 87.3333 690 133.333 690 190 c 2
 690 280 l 2
 690 316 676.5 346.667 649.5 372 c 0
 622.5 397.333 591 410 555 410 c 0
 519 410 488.333 397.333 463 372 c 0
 437.667 346.667 425 316 425 280 c 2
 425 0 l 1
 375 0 l 1
 375 280 l 2
 375 317.333 361 348.667 333 374 c 0
 305.667 397.333 273 409.333 235 410 c 0
 186.333 410.667 146 391 114 351 c 0
 84.6667 313.667 70 270 70 220 c 0
 70 174.667 80.3333 134.333 101 99 c 0
 123 61.6667 154.333 35.3333 195 20 c 1
 180 -5 l 1
 136.667 15.6667 102.667 45.5 78 84.5 c 0
 53.3333 123.5 40.6667 167 40 215 c 0
 39.3333 275.667 58 328.333 96 373 c 0
 136 420.333 185.667 444.333 245 445 c 0
 280.333 445.667 312.333 437 341 419 c 0
 369.667 401 391 376.333 405 345 c 1
 415 375.667 436.333 400.333 469 419 c 0
 498.333 435.667 530.333 444.333 565 445 c 0
 617.667 445.667 660 429.833 692 397.5 c 0
 724 365.167 740 322.667 740 270 c 2
 740 190 l 2
 740 149.333 751.333 113.333 774 82 c 0
 798.667 48 830.667 30.6667 870 30 c 0
 919.333 29.3333 959.667 49 991 89 c 0
 1020.33 125.667 1035 169.333 1035 220 c 0
 1035 262.667 1023.67 301.833 1001 337.5 c 0
 978.333 373.167 948 400.667 910 420 c 1
 925 445 l 1
 967.667 425 1001.67 394.333 1027 353 c 0
 1052.33 311.667 1065 267.333 1065 220 c 0
EndSplineSet
EndChar
StartChar: uni0D39
Encoding: 3385 3385
Width: 1018
Flags: HW
Fore
980 220 m 0
 980 170.667 967 126.333 941 87 c 0
 915 47.6667 879.667 17 835 -5 c 1
 810 25 l 1
 842.667 43.6667 868.167 69.6667 886.5 103 c 0
 904.833 136.333 914.333 172 915 210 c 0
 915.667 261.333 900.667 306 870 344 c 0
 837.333 384.667 795.667 405 745 405 c 0
 695 405 654 382.667 622 338 c 0
 594 298 580 252 580 200 c 0
 580 164.667 589.667 131.167 609 99.5 c 0
 628.333 67.8333 653.667 43 685 25 c 1
 685 0 l 1
 265 0 l 1
 265 30 l 1
 287 32.6667 304 48.3333 316 77 c 0
 324.667 99 329.333 123.333 330 150 c 0
 330.667 186 318.333 216.5 293 241.5 c 0
 267.667 266.5 236.667 279.333 200 280 c 0
 161.333 280.667 129.167 267.333 103.5 240 c 0
 77.8333 212.667 65 179.333 65 140 c 0
 65 86 85 44.3333 125 15 c 1
 110 -5 l 1
 60 30.3333 35 78.6667 35 140 c 0
 35 190 51.6667 233.167 85 269.5 c 0
 118.333 305.833 160 324.333 210 325 c 0
 258.667 325.667 300.833 308.833 336.5 274.5 c 0
 372.167 240.167 390 198.667 390 150 c 0
 390 87.3333 376.667 47.3333 350 30 c 1
 635 30 l 1
 607.667 53.3333 586.833 80.3333 572.5 111 c 0
 558.167 141.667 550.667 174.667 550 210 c 0
 549.333 272 568.333 326 607 372 c 0
 647.667 420.667 698.667 445 760 445 c 0
 820.667 445 872.5 422.667 915.5 378 c 0
 958.5 333.333 980 280.667 980 220 c 0
EndSplineSet
EndChar
StartChar: uni0D3E
Encoding: 3390 3390
Width: 422
Flags: HW
Fore
378 220 m 0
 378.667 159.333 365 108.333 337 67 c 0
 305.667 19.6667 261 -4.33333 203 -5 c 0
 152.333 -5.66667 112 10 82 42 c 0
 54 72 39.3333 114.667 38 170 c 1
 68 170 l 1
 68 134 78 103 98 77 c 0
 120 49 148.333 35 183 35 c 0
 228.333 35 262.333 55.6667 285 97 c 0
 303 129 312.333 170 313 220 c 0
 313.667 273.333 301.667 318 277 354 c 0
 253.667 388 222.333 405 183 405 c 0
 147.667 405 119 389 97 357 c 0
 77.6667 329 68 296.667 68 260 c 1
 38 260 l 1
 38 312.667 52.5 356.5 81.5 391.5 c 0
 110.5 426.5 151 444.333 203 445 c 0
 254.333 445.667 296.167 425.5 328.5 384.5 c 0
 360.833 343.5 377.333 288.667 378 220 c 0
EndSplineSet
EndChar
StartChar: uni0D3F
Encoding: 3391 3391
Width: 283
Flags: HW
Fore
146 0 m 1
 96 0 l 1
 96 510 l 2
 96 540 88.6667 566.667 74 590 c 0
 57.3333 616 34.6667 629.333 6 630 c 0
 -24 630.667 -48 614 -66 580 c 0
 -80.6667 552.667 -88.3333 522.667 -89 490 c 1
 -119 490 l 1
 -119 538 -109.333 578 -90 610 c 0
 -67.3333 649.333 -33.6667 669.333 11 670 c 0
 46.3333 670.667 77.6667 655.333 105 624 c 0
 132.333 592.667 146 554.667 146 510 c 2
 146 0 l 1
EndSplineSet
EndChar
StartChar: uni0D40
Encoding: 3392 3392
Width: 265
Flags: HW
Fore
125 0 m 1
 75 0 l 1
 75 530 l 2
 75 560.667 66 588.333 48 613 c 0
 28.6667 640.333 4.33333 654.333 -25 655 c 0
 -43.6667 655.667 -62 652.333 -80 645 c 1
 -56.6667 643 -37.6667 633.333 -23 616 c 0
 -8.33333 598.667 -0.666667 578.333 0 555 c 0
 0.666667 529 -8.5 506.833 -27.5 488.5 c 0
 -46.5 470.167 -69 460.667 -95 460 c 0
 -121.667 459.333 -143.167 469 -159.5 489 c 0
 -175.833 509 -184.333 532.667 -185 560 c 0
 -185.667 595.333 -171.333 625.667 -142 651 c 0
 -112.667 676.333 -77 689.333 -35 690 c 0
 9 690.667 46.6667 675.167 78 643.5 c 0
 109.333 611.833 125 574 125 530 c 2
 125 0 l 1
-60 555 m 0
 -59.3333 572.333 -64.1667 587.167 -74.5 599.5 c 0
 -84.8333 611.833 -98.3333 618.667 -115 620 c 1
 -145 609.333 -160 587.667 -160 555 c 0
 -160 516.333 -145 496.333 -115 495 c 0
 -99 494.333 -86 500 -76 512 c 0
 -66 524 -60.6667 538.333 -60 555 c 0
EndSplineSet
EndChar
StartChar: uni0D41
Encoding: 3393 3393
Width: 432
Flags: HW
Fore
380 -120 m 0
 380 -175.333 361.333 -223.167 324 -263.5 c 0
 286.667 -303.833 240.333 -324.333 185 -325 c 0
 129.667 -325.667 83.3333 -305.667 46 -265 c 0
 8.66667 -224.333 -10 -176 -10 -120 c 0
 -10 -71.3333 8.33333 -29.3333 45 6 c 0
 79 39.3333 120.667 60.6667 170 70 c 1
 190 240 l 1
 195 300 l 1
 196.333 317.333 187.333 335 168 353 c 0
 153.333 367 130.667 377.667 100 385 c 1
 125 440 l 1
 153.667 440 179.167 428.833 201.5 406.5 c 0
 223.833 384.167 235 358.667 235 330 c 1
 232 309 l 2
 230.667 299.667 229 287.667 227 273 c 0
 227 265.667 226.333 254.667 225 240 c 1
 200 70 l 1
 249.333 62.6667 291 41.6667 325 7 c 0
 361.667 -29 380 -71.3333 380 -120 c 0
49 -61 m 1
 41 -83.6667 36.6667 -105.667 36 -127 c 0
 34.6667 -187.667 59.3333 -233.667 110 -265 c 0
 136 -281 162.333 -289 189 -289 c 0
 221.667 -289 253.333 -277.333 284 -254 c 0
 321.333 -226 340 -185.667 340 -133 c 0
 340 -81 321.333 -40 284 -10 c 0
 254 14 221 26 185 26 c 0
 125.667 26 80.3333 -3 49 -61 c 1
EndSplineSet
EndChar
StartChar: uni0D42
Encoding: 3394 3394
Width: 432
Flags: HW
Fore
361 -120 m 0
 361 -175.333 342.333 -223.167 305 -263.5 c 0
 267.667 -303.833 221.333 -324.333 166 -325 c 0
 110.667 -325.667 64.3333 -305.667 27 -265 c 0
 -10.3333 -224.333 -29 -176 -29 -120 c 0
 -29 -71.3333 -10.6667 -29.3333 26 6 c 0
 60 39.3333 101.667 60.6667 151 70 c 1
 171 240 l 1
 176 300 l 1
 177.333 317.333 168.333 335 149 353 c 0
 134.333 367 111.667 377.667 81 385 c 1
 106 440 l 1
 134.667 440 160.167 428.833 182.5 406.5 c 0
 204.833 384.167 216 358.667 216 330 c 1
 213 309 l 2
 211.667 299.667 210 287.667 208 273 c 0
 208 265.667 207.333 254.667 206 240 c 1
 181 70 l 1
 230.333 62.6667 272 41.6667 306 7 c 0
 342.667 -29 361 -71.3333 361 -120 c 0
261 -50 m 0
 261.667 -25.3333 252.333 -4.16667 233 13.5 c 0
 213.667 31.1667 191.333 40 166 40 c 0
 138 40 113.667 31.6667 93 15 c 0
 72.3333 -1.66667 61.6667 -23.3333 61 -50 c 0
 60.3333 -76 71 -97.5 93 -114.5 c 0
 115 -131.5 139.333 -140 166 -140 c 0
 192 -140 214.167 -131.5 232.5 -114.5 c 0
 250.833 -97.5 260.333 -76 261 -50 c 0
326 -120 m 0
 326.667 -70 313.333 -35 286 -15 c 1
 292 -26.3333 295.333 -44.6667 296 -70 c 0
 296.667 -104.667 284 -133.167 258 -155.5 c 0
 232 -177.833 201.333 -189.333 166 -190 c 0
 128.667 -190.667 96.8333 -179.5 70.5 -156.5 c 0
 44.1667 -133.5 31 -104.667 31 -70 c 0
 31 -50.6667 36 -34 46 -20 c 1
 29.3333 -27.3333 17 -48.6667 9 -84 c 0
 7 -92.6667 6 -104.667 6 -120 c 0
 6 -162.667 21.8333 -198.167 53.5 -226.5 c 0
 85.1667 -254.833 122.667 -269.333 166 -270 c 0
 209.333 -270.667 246.667 -256.5 278 -227.5 c 0
 309.333 -198.5 325.333 -162.667 326 -120 c 0
EndSplineSet
EndChar
StartChar: uni0D43
Encoding: 3395 3395
Width: 385
Flags: HW
Fore
304 35 m 0
 304 -18.3333 292.333 -70.3333 269 -121 c 0
 239.667 -183.667 201.333 -215 154 -215 c 0
 108.667 -215 71 -180.667 41 -112 c 0
 17 -56.6667 4.66667 -2.66667 4 50 c 0
 3.33333 97.3333 10.1667 138.333 24.5 173 c 0
 38.8333 207.667 57 225 79 225 c 0
 119.667 225 152 187.333 176 112 c 0
 194.667 54.6667 204 0.666667 204 -50 c 0
 204 -92.6667 196 -126 180 -150 c 1
 208 -136 229 -106.333 243 -61 c 0
 253 -27 258.333 10 259 50 c 0
 259.667 94.6667 253 136.333 239 175 c 0
 202.333 278.333 184 343.333 184 370 c 2
 184 480 l 1
 234 480 l 1
 234 370 l 2
 234 327.333 249 264 279 180 c 0
 295.667 133.333 304 85 304 35 c 0
174 -20 m 0
 174 9.33333 167 46.6667 153 92 c 0
 135.667 147.333 116 175 94 175 c 0
 76 175 62.3333 157.667 53 123 c 0
 47 100.333 44 76 44 50 c 0
 43.3333 18.6667 51 -20 67 -66 c 0
 86.3333 -121.333 108.667 -149.333 134 -150 c 0
 148.667 -150.667 159.667 -131.667 167 -93 c 0
 171.667 -67.6667 174 -43.3333 174 -20 c 0
EndSplineSet
EndChar
StartChar: uni0D46
Encoding: 3398 3398
Width: 571
Flags: HW
Fore
530 200 m 0
 530.667 160 523 122 507 86 c 0
 489.667 47.3333 465.667 17 435 -5 c 1
 405 25 l 1
 429 39 446.667 67.6667 458 111 c 0
 466 143 470 177.667 470 215 c 0
 470 268.333 449.167 313.333 407.5 350 c 0
 365.833 386.667 318.333 405 265 405 c 0
 209.667 405 163.333 384.833 126 344.5 c 0
 88.6667 304.167 70 256 70 200 c 1
 75 165 l 1
 79 193.667 93.5 217.5 118.5 236.5 c 0
 143.5 255.5 170.667 265 200 265 c 0
 238 265 270 252 296 226 c 0
 322 200 335 168 335 130 c 0
 335 90.6667 321.5 58.3333 294.5 33 c 0
 267.5 7.66667 234.333 -5 195 -5 c 0
 147.667 -5 109 18 79 64 c 0
 53.6667 104 40.6667 149.333 40 200 c 0
 39.3333 267.333 63.1667 324.833 111.5 372.5 c 0
 159.833 420.167 217.667 444.333 285 445 c 0
 352.333 445.667 409.833 421.833 457.5 373.5 c 0
 505.167 325.167 529.333 267.333 530 200 c 0
275 130 m 0
 275.667 156.667 267.5 179.833 250.5 199.5 c 0
 233.5 219.167 211.667 229.333 185 230 c 0
 158.333 230.667 136.833 221 120.5 201 c 0
 104.167 181 95.6667 157.333 95 130 c 0
 94.3333 103.333 102.5 80.1667 119.5 60.5 c 0
 136.5 40.8333 158.333 30.6667 185 30 c 0
 211.667 29.3333 233.167 39 249.5 59 c 0
 265.833 79 274.333 102.667 275 130 c 0
EndSplineSet
EndChar
StartChar: uni0D47
Encoding: 3399 3399
Width: 479
Flags: HW
Fore
440 110 m 0
 440.667 70 423 40 387 20 c 0
 359 4 323.333 -4.33333 280 -5 c 0
 209.333 -5.66667 151.667 14.1667 107 54.5 c 0
 62.3333 94.8333 40 150 40 220 c 0
 40 290 63 345.333 109 386 c 0
 152.333 424.667 209.333 444.333 280 445 c 0
 324.667 445.667 360.667 436.5 388 417.5 c 0
 415.333 398.5 429.333 372.667 430 340 c 0
 430.667 313.333 421 291.833 401 275.5 c 0
 381 259.167 357.333 250.667 330 250 c 0
 304 249.333 280.667 255.667 260 269 c 0
 236.667 284.333 225 304.667 225 330 c 0
 225 348.667 231 366.333 243 383 c 1
 255 397 270.667 404.333 290 405 c 1
 250 410 l 1
 204.667 410 167.667 389 139 347 c 0
 113.667 310.333 100.667 268 100 220 c 0
 99.3333 172.667 112 130.333 138 93 c 0
 166.667 52.3333 204 31.3333 250 30 c 1
 295 35 l 1
 255.667 44.3333 235.667 67.6667 235 105 c 0
 234.333 131 246.667 152 272 168 c 0
 293.333 182 317.667 189.333 345 190 c 0
 369.667 190.667 391.5 183.5 410.5 168.5 c 0
 429.5 153.5 439.333 134 440 110 c 0
400 345 m 0
 400.667 358.333 395.5 370 384.5 380 c 0
 373.5 390 360.333 395 345 395 c 0
 328.333 395 314.333 390 303 380 c 0
 291.667 370 285.667 356.667 285 340 c 0
 284.333 324 290 311 302 301 c 0
 314 291 328.333 285.667 345 285 c 0
 361 284.333 374 290 384 302 c 0
 394 314 399.333 328.333 400 345 c 0
410 105 m 0
 410 121 404 134 392 144 c 0
 380 154 366 159.333 350 160 c 0
 334.667 160.667 321.833 155.5 311.5 144.5 c 0
 301.167 133.5 295.667 120.333 295 105 c 0
 294.333 89.6667 299.5 76.8333 310.5 66.5 c 0
 321.5 56.1667 334.667 50.6667 350 50 c 0
 366 49.3333 380 54.3333 392 65 c 0
 404 75.6667 410 89 410 105 c 0
EndSplineSet
EndChar
StartChar: uni0D48
Encoding: 3400 3400
Width: 1060
Flags: HW
Fore
1051 200 m 0
 1051.67 160 1044 122 1028 86 c 0
 1010.67 47.333 986.667 17 956 -5 c 1
 926 25 l 1
 950 39 967.667 67.667 979 111 c 0
 987 143 991 177.667 991 215 c 0
 991 268.333 970.167 313.333 928.5 350 c 0
 886.833 386.667 839.333 405 786 405 c 0
 730.667 405 684.333 384.833 647 344.5 c 0
 609.667 304.167 591 256 591 200 c 1
 596 165 l 1
 600 193.667 614.5 217.5 639.5 236.5 c 0
 664.5 255.5 691.667 265 721 265 c 0
 759 265 791 252 817 226 c 0
 843 200 856 168 856 130 c 0
 856 90.667 842.5 58.333 815.5 33 c 0
 788.5 7.66699 755.333 -5 716 -5 c 0
 668.667 -5 630 18 600 64 c 0
 574.667 104 561.667 149.333 561 200 c 0
 560.333 267.333 584.167 324.833 632.5 372.5 c 0
 680.833 420.167 738.667 444.333 806 445 c 0
 873.333 445.667 930.833 421.833 978.5 373.5 c 0
 1026.17 325.167 1050.33 267.333 1051 200 c 0
796 130 m 0
 796.667 156.667 788.5 179.833 771.5 199.5 c 0
 754.5 219.167 732.667 229.333 706 230 c 0
 679.333 230.667 657.833 221 641.5 201 c 0
 625.167 181 616.667 157.333 616 130 c 0
 615.333 103.333 623.5 80.167 640.5 60.5 c 0
 657.5 40.833 679.333 30.667 706 30 c 0
 732.667 29.333 754.167 39 770.5 59 c 0
 786.833 79 795.333 102.667 796 130 c 0
530 200 m 0
 530.667 160 523 122 507 86 c 0
 489.667 47.3333 465.667 17 435 -5 c 1
 405 25 l 1
 429 39 446.667 67.6667 458 111 c 0
 466 143 470 177.667 470 215 c 0
 470 268.333 449.167 313.333 407.5 350 c 0
 365.833 386.667 318.333 405 265 405 c 0
 209.667 405 163.333 384.833 126 344.5 c 0
 88.6667 304.167 70 256 70 200 c 1
 75 165 l 1
 79 193.667 93.5 217.5 118.5 236.5 c 0
 143.5 255.5 170.667 265 200 265 c 0
 238 265 270 252 296 226 c 0
 322 200 335 168 335 130 c 0
 335 90.6667 321.5 58.3333 294.5 33 c 0
 267.5 7.66667 234.333 -5 195 -5 c 0
 147.667 -5 109 18 79 64 c 0
 53.6667 104 40.6667 149.333 40 200 c 0
 39.3333 267.333 63.1667 324.833 111.5 372.5 c 0
 159.833 420.167 217.667 444.333 285 445 c 0
 352.333 445.667 409.833 421.833 457.5 373.5 c 0
 505.167 325.167 529.333 267.333 530 200 c 0
275 130 m 0
 275.667 156.667 267.5 179.833 250.5 199.5 c 0
 233.5 219.167 211.667 229.333 185 230 c 0
 158.333 230.667 136.833 221 120.5 201 c 0
 104.167 181 95.6667 157.333 95 130 c 0
 94.3333 103.333 102.5 80.1667 119.5 60.5 c 0
 136.5 40.8333 158.333 30.6667 185 30 c 0
 211.667 29.3333 233.167 39 249.5 59 c 0
 265.833 79 274.333 102.667 275 130 c 0
EndSplineSet
EndChar
StartChar: uni0D4A
Encoding: 3402 3402
Width: 1513
Flags: HW
Fore
1507 220 m 0
 1507.67 159.333 1494 108.333 1466 67 c 0
 1434.67 19.667 1390 -4.33301 1332 -5 c 0
 1281.33 -5.66699 1241 10 1211 42 c 0
 1183 72 1168.33 114.667 1167 170 c 1
 1197 170 l 1
 1197 134 1207 103 1227 77 c 0
 1249 49 1277.33 35 1312 35 c 0
 1357.33 35 1391.33 55.667 1414 97 c 0
 1432 129 1441.33 170 1442 220 c 0
 1442.67 273.333 1430.67 318 1406 354 c 0
 1382.67 388 1351.33 405 1312 405 c 0
 1276.67 405 1248 389 1226 357 c 0
 1206.67 329 1197 296.667 1197 260 c 1
 1167 260 l 1
 1167 312.667 1181.5 356.5 1210.5 391.5 c 0
 1239.5 426.5 1280 444.333 1332 445 c 0
 1383.33 445.667 1425.17 425.5 1457.5 384.5 c 0
 1489.83 343.5 1506.33 288.667 1507 220 c 0
508 200 m 0
 508.667 160 501 122 485 86 c 0
 467.667 47.333 443.667 17 413 -5 c 1
 383 25 l 1
 407 39 424.667 67.667 436 111 c 0
 444 143 448 177.667 448 215 c 0
 448 268.333 427.167 313.333 385.5 350 c 0
 343.833 386.667 296.333 405 243 405 c 0
 187.667 405 141.333 384.833 104 344.5 c 0
 66.667 304.167 48 256 48 200 c 1
 53 165 l 1
 57 193.667 71.5 217.5 96.5 236.5 c 0
 121.5 255.5 148.667 265 178 265 c 0
 216 265 248 252 274 226 c 0
 300 200 313 168 313 130 c 0
 313 90.667 299.5 58.333 272.5 33 c 0
 245.5 7.66699 212.333 -5 173 -5 c 0
 125.667 -5 87 18 57 64 c 0
 31.667 104 18.667 149.333 18 200 c 0
 17.333 267.333 41.167 324.833 89.5 372.5 c 0
 137.833 420.167 195.667 444.333 263 445 c 0
 330.333 445.667 387.833 421.833 435.5 373.5 c 0
 483.167 325.167 507.333 267.333 508 200 c 0
253 130 m 0
 253.667 156.667 245.5 179.833 228.5 199.5 c 0
 211.5 219.167 189.667 229.333 163 230 c 0
 136.333 230.667 114.833 221 98.5 201 c 0
 82.167 181 73.667 157.333 73 130 c 0
 72.333 103.333 80.5 80.167 97.5 60.5 c 0
 114.5 40.833 136.333 30.667 163 30 c 0
 189.667 29.333 211.167 39 227.5 59 c 0
 243.833 79 252.333 102.667 253 130 c 0
EndSplineSet
EndChar
StartChar: uni0D4B
Encoding: 3403 3403
Width: 1433
Flags: HW
Fore
1426 220 m 0
 1426.67 159.333 1413 108.333 1385 67 c 0
 1353.67 19.667 1309 -4.33301 1251 -5 c 0
 1200.33 -5.66699 1160 10 1130 42 c 0
 1102 72 1087.33 114.667 1086 170 c 1
 1116 170 l 1
 1116 134 1126 103 1146 77 c 0
 1168 49 1196.33 35 1231 35 c 0
 1276.33 35 1310.33 55.667 1333 97 c 0
 1351 129 1360.33 170 1361 220 c 0
 1361.67 273.333 1349.67 318 1325 354 c 0
 1301.67 388 1270.33 405 1231 405 c 0
 1195.67 405 1167 389 1145 357 c 0
 1125.67 329 1116 296.667 1116 260 c 1
 1086 260 l 1
 1086 312.667 1100.5 356.5 1129.5 391.5 c 0
 1158.5 426.5 1199 444.333 1251 445 c 0
 1302.33 445.667 1344.17 425.5 1376.5 384.5 c 0
 1408.83 343.5 1425.33 288.667 1426 220 c 0
440 110 m 0
 440.667 70 423 40 387 20 c 0
 359 4 323.333 -4.33333 280 -5 c 0
 209.333 -5.66667 151.667 14.1667 107 54.5 c 0
 62.3333 94.8333 40 150 40 220 c 0
 40 290 63 345.333 109 386 c 0
 152.333 424.667 209.333 444.333 280 445 c 0
 324.667 445.667 360.667 436.5 388 417.5 c 0
 415.333 398.5 429.333 372.667 430 340 c 0
 430.667 313.333 421 291.833 401 275.5 c 0
 381 259.167 357.333 250.667 330 250 c 0
 304 249.333 280.667 255.667 260 269 c 0
 236.667 284.333 225 304.667 225 330 c 0
 225 348.667 231 366.333 243 383 c 1
 255 397 270.667 404.333 290 405 c 1
 250 410 l 1
 204.667 410 167.667 389 139 347 c 0
 113.667 310.333 100.667 268 100 220 c 0
 99.3333 172.667 112 130.333 138 93 c 0
 166.667 52.3333 204 31.3333 250 30 c 1
 295 35 l 1
 255.667 44.3333 235.667 67.6667 235 105 c 0
 234.333 131 246.667 152 272 168 c 0
 293.333 182 317.667 189.333 345 190 c 0
 369.667 190.667 391.5 183.5 410.5 168.5 c 0
 429.5 153.5 439.333 134 440 110 c 0
400 345 m 0
 400.667 358.333 395.5 370 384.5 380 c 0
 373.5 390 360.333 395 345 395 c 0
 328.333 395 314.333 390 303 380 c 0
 291.667 370 285.667 356.667 285 340 c 0
 284.333 324 290 311 302 301 c 0
 314 291 328.333 285.667 345 285 c 0
 361 284.333 374 290 384 302 c 0
 394 314 399.333 328.333 400 345 c 0
410 105 m 0
 410 121 404 134 392 144 c 0
 380 154 366 159.333 350 160 c 0
 334.667 160.667 321.833 155.5 311.5 144.5 c 0
 301.167 133.5 295.667 120.333 295 105 c 0
 294.333 89.6667 299.5 76.8333 310.5 66.5 c 0
 321.5 56.1667 334.667 50.6667 350 50 c 0
 366 49.3333 380 54.3333 392 65 c 0
 404 75.6667 410 89 410 105 c 0
EndSplineSet
EndChar
StartChar: uni0D4C
Encoding: 3404 3404
Width: 522
Flags: HW
Fore
481 220 m 2
 481 156.667 460 103.5 418 60.5 c 0
 376 17.5 323.667 -4.33333 261 -5 c 0
 215.667 -5.66667 176.333 13.6667 143 53 c 1
 161 70 l 1
 181 40 212.667 25 256 25 c 0
 300.667 25 339.333 42.6667 372 78 c 0
 404.667 113.333 421 155.667 421 205 c 2
 421 225 l 2
 421 266.333 414.333 304.333 401 339 c 0
 382.333 385.667 355.667 409.333 321 410 c 0
 303.667 410.667 288.5 402.833 275.5 386.5 c 0
 262.5 370.167 256 351.333 256 330 c 2
 256 180 l 1
 206 180 l 1
 206 330 l 2
 206 349.333 201 367 191 383 c 0
 179 401 164 410 146 410 c 0
 120.667 410 100.667 397.333 86 372 c 0
 73.3333 350.667 66.6667 326.667 66 300 c 0
 65.3333 254.667 77 218 101 190 c 1
 81 170 l 1
 51 201.333 36 244.667 36 300 c 0
 36 335.333 44.3333 367 61 395 c 0
 81 427.667 107.667 444.333 141 445 c 0
 161.667 445.667 180.5 440.167 197.5 428.5 c 0
 214.5 416.833 225.667 402.333 231 385 c 1
 237 403 248.5 417.5 265.5 428.5 c 0
 282.5 439.5 301 445 321 445 c 0
 368.333 445.667 407.667 422.667 439 376 c 0
 467 334.667 481 289.333 481 240 c 2
 481 220 l 2
EndSplineSet
EndChar
StartChar: uni0D4D
Encoding: 3405 3405
Width: 2
Flags: HW
Fore
161 585 m 0
 161.667 550.333 143.667 522.667 107 502 c 0
 77 484.667 43.3333 475.667 6 475 c 0
 -32 474.333 -66.6667 481.333 -98 496 c 0
 -138 514.667 -158.333 541 -159 575 c 0
 -159.667 601 -148 626 -124 650 c 1
 -79 620 l 1
 -88.3333 614 -95 600.667 -99 580 c 1
 -99 557.333 -86.6667 539.333 -62 526 c 0
 -42 516 -19.3333 510.667 6 510 c 0
 32.6667 509.333 57.6667 515.667 81 529 c 0
 107.667 544.333 121 564.667 121 590 c 0
 121 601.333 112.667 613 96 625 c 1
 121 650 l 1
 147 636 160.333 614.333 161 585 c 0
EndSplineSet
EndChar
StartChar: uni0D57
Encoding: 3415 3415
Width: 522
Flags: HW
Fore
481 220 m 2
 481 156.667 460 103.5 418 60.5 c 0
 376 17.5 323.667 -4.33333 261 -5 c 0
 215.667 -5.66667 176.333 13.6667 143 53 c 1
 161 70 l 1
 181 40 212.667 25 256 25 c 0
 300.667 25 339.333 42.6667 372 78 c 0
 404.667 113.333 421 155.667 421 205 c 2
 421 225 l 2
 421 266.333 414.333 304.333 401 339 c 0
 382.333 385.667 355.667 409.333 321 410 c 0
 303.667 410.667 288.5 402.833 275.5 386.5 c 0
 262.5 370.167 256 351.333 256 330 c 2
 256 180 l 1
 206 180 l 1
 206 330 l 2
 206 349.333 201 367 191 383 c 0
 179 401 164 410 146 410 c 0
 120.667 410 100.667 397.333 86 372 c 0
 73.3333 350.667 66.6667 326.667 66 300 c 0
 65.3333 254.667 77 218 101 190 c 1
 81 170 l 1
 51 201.333 36 244.667 36 300 c 0
 36 335.333 44.3333 367 61 395 c 0
 81 427.667 107.667 444.333 141 445 c 0
 161.667 445.667 180.5 440.167 197.5 428.5 c 0
 214.5 416.833 225.667 402.333 231 385 c 1
 237 403 248.5 417.5 265.5 428.5 c 0
 282.5 439.5 301 445 321 445 c 0
 368.333 445.667 407.667 422.667 439 376 c 0
 467 334.667 481 289.333 481 240 c 2
 481 220 l 2
EndSplineSet
EndChar
StartChar: uni0D61
Encoding: 3425 3425
Width: 0
Flags: HW
Fore
-43 -264 m 0
 -42.3333 -281.333 -47.8333 -296.5 -59.5 -309.5 c 0
 -71.1667 -322.5 -85.6667 -329.333 -103 -330 c 0
 -120.333 -330.667 -135 -324.333 -147 -311 c 0
 -159 -297.667 -165.333 -282 -166 -264 c 0
 -166.667 -244.667 -161 -228.333 -149 -215 c 0
 -137 -201.667 -121.667 -194.667 -103 -194 c 0
 -84.3333 -193.333 -69.6667 -200.667 -59 -216 c 0
 -49 -228.667 -43.6667 -244.667 -43 -264 c 0
-418 -264 m 0
 -418 -282 -424 -297.333 -436 -310 c 0
 -448 -322.667 -463 -329.333 -481 -330 c 0
 -498.333 -330.667 -512.333 -324.333 -523 -311 c 0
 -533.667 -297.667 -539.333 -282 -540 -264 c 0
 -540.667 -245.333 -535.5 -229.167 -524.5 -215.5 c 0
 -513.5 -201.833 -499 -194.667 -481 -194 c 0
 -461.667 -193.333 -446.333 -200 -435 -214 c 0
 -423.667 -228 -418 -244.667 -418 -264 c 0
-271 -351 m 1
 -271 -155 l 2
 -271 -130.333 -261.5 -109.833 -242.5 -93.5 c 0
 -223.5 -77.1667 -200.333 -68.6667 -173 -68 c 0
 -134.333 -67.3333 -101.833 -81.3333 -75.5 -110 c 0
 -49.1667 -138.667 -36 -172.333 -36 -211 c 2
 -36 -225 l 1
 -41.3333 -203 -56.3333 -186.667 -81 -176 c 0
 -91 -172 -103 -169.667 -117 -169 c 0
 -142.333 -168.333 -163.833 -178 -181.5 -198 c 0
 -199.167 -218 -208 -241 -208 -267 c 0
 -208 -291.667 -197.333 -312.5 -176 -329.5 c 0
 -154.667 -346.5 -131.333 -355 -106 -355 c 0
 -74.6667 -355 -50.6667 -339.333 -34 -308 c 0
 -22 -283.333 -15.6667 -253.333 -15 -218 c 0
 -14.3333 -170 -29.6667 -128.5 -61 -93.5 c 0
 -92.3333 -58.5 -132 -40.6667 -180 -40 c 0
 -203.333 -40 -224.333 -45.3333 -243 -56 c 0
 -261.667 -66.6667 -278 -83.3333 -292 -106 c 1
 -315.333 -62.6667 -352.667 -40.6667 -404 -40 c 0
 -451.333 -39.3333 -490.5 -56.8333 -521.5 -92.5 c 0
 -552.5 -128.167 -568 -170 -568 -218 c 0
 -568 -252.667 -561.667 -282.333 -549 -307 c 0
 -533 -338.333 -509 -354.333 -477 -355 c 0
 -450.333 -355.667 -427 -347.667 -407 -331 c 0
 -387 -314.333 -376.667 -293 -376 -267 c 0
 -375.333 -240.333 -383.667 -217.5 -401 -198.5 c 0
 -418.333 -179.5 -440.333 -169.667 -467 -169 c 0
 -485.667 -168.333 -502.667 -173.667 -518 -185 c 0
 -532 -193.667 -541.667 -207 -547 -225 c 1
 -548 -211 l 2
 -550.667 -173.667 -537 -139.667 -507 -109 c 0
 -481 -82.3333 -449 -68.6667 -411 -68 c 0
 -384.333 -67.3333 -361.333 -75.1667 -342 -91.5 c 0
 -322.667 -107.833 -313 -129 -313 -155 c 2
 -313 -351 l 1
 -271 -351 l 1
EndSplineSet
EndChar
StartChar: 01
Encoding: 65542 -1
Width: 800
Flags: HW
Fore
760 220 m 0
 760.667 172 749 127.5 725 86.5 c 0
 701 45.5 667.667 15 625 -5 c 1
 610 20 l 1
 646.667 36.6667 675.333 64.3333 696 103 c 0
 714.667 137.667 724.333 176.667 725 220 c 0
 725.667 267.333 710.833 309 680.5 345 c 0
 650.167 381 611.667 399.333 565 400 c 0
 520.333 400.667 486.333 381 463 341 c 0
 445 308.333 435.667 268 435 220 c 0
 434.333 157.333 420.333 105.667 393 65 c 0
 361 19 315 -4.33333 255 -5 c 0
 195 -5.66667 144.167 14.1667 102.5 54.5 c 0
 60.8333 94.8333 40 145 40 205 c 0
 40 258.333 51.6667 306.333 75 349 c 0
 101.667 396.333 138.333 428.333 185 445 c 1
 200 425 l 1
 160.667 407.667 129.667 379 107 339 c 0
 86.3333 301.667 75.6667 260.333 75 215 c 0
 74.3333 167 89.8333 125.833 121.5 91.5 c 0
 153.167 57.1667 191 40 235 40 c 0
 283.667 40 320 58.6667 344 96 c 0
 364 126.667 374.333 168 375 220 c 0
 375.667 281.333 388.333 332 413 372 c 0
 443.667 420 487.667 444.333 545 445 c 0
 605 445.667 655.667 423.5 697 378.5 c 0
 738.333 333.5 759.333 280.667 760 220 c 0
663 -210 m 0
 663 -284 631.333 -336.333 568 -367 c 1
 558 -350 l 1
 583.333 -338.667 603.333 -319.333 618 -292 c 0
 631.333 -266.667 638 -239.333 638 -210 c 0
 638 -176.667 627.5 -147.333 606.5 -122 c 0
 585.5 -96.6667 558.667 -84 526 -84 c 0
 494 -84 470 -97.6667 454 -125 c 0
 441.333 -147 435 -175.333 435 -210 c 0
 435 -254 425.333 -290 406 -318 c 0
 383.333 -350 351 -366.333 309 -367 c 0
 267 -367.667 231.667 -353.833 203 -325.5 c 0
 174.333 -297.167 159.667 -262 159 -220 c 0
 158.333 -182.667 166.333 -149 183 -119 c 0
 201 -86.3333 226.667 -64.3333 260 -53 c 1
 271 -67 l 1
 244.333 -77.6667 222.667 -97.6667 206 -127 c 0
 190.667 -153.667 183 -182.333 183 -213 c 0
 183 -245.667 193.667 -274.333 215 -299 c 0
 236.333 -323.667 263 -336 295 -336 c 0
 328.333 -336 353.667 -323 371 -297 c 0
 385 -274.333 392.333 -245.333 393 -210 c 0
 393.667 -161.333 404.5 -123.167 425.5 -95.5 c 0
 446.5 -67.8333 475.333 -53.6667 512 -53 c 0
 554 -52.3333 589.667 -67.8333 619 -99.5 c 0
 648.333 -131.167 663 -168 663 -210 c 0
EndSplineSet
EndChar
StartChar: 02
Encoding: 65543 -1
Width: 1244
Flags: HW
Fore
249 125 m 0
 249.667 149.667 242.5 171.5 227.5 190.5 c 0
 212.5 209.5 193 219.333 169 220 c 0
 145.667 220.667 126.333 210.333 111 189 c 0
 96.3333 170.333 89 149 89 125 c 0
 89 99.6667 96 78 110 60 c 0
 124.667 40 144.333 30 169 30 c 0
 192.333 30 211.667 40.3333 227 61 c 0
 241 79.6667 248.333 101 249 125 c 0
971 240 m 0
 971 273.333 963 303 947 329 c 0
 927.667 359.667 902.333 375 871 375 c 1
 841.667 364.333 818.5 345.5 801.5 318.5 c 0
 784.5 291.5 776 262 776 230 c 2
 776 30 l 1
 881 30 l 1
 941 79.3333 971 149.333 971 240 c 0
1176 30 m 1
 1176 240 l 2
 1176 290.667 1156.17 333.333 1116.5 368 c 0
 1076.83 402.667 1031.67 420 981 420 c 0
 939 420 907.333 411.667 886 395 c 1
 926.667 395 961.333 379.333 990 348 c 0
 1016.67 317.333 1030.33 281.333 1031 240 c 0
 1031.67 199.333 1024.17 160.167 1008.5 122.5 c 0
 992.833 84.8333 970.333 54 941 30 c 1
 1176 30 l 1
729 0 m 1
 729 280 l 2
 729 316.667 716.5 347.333 691.5 372 c 0
 666.5 396.667 635.667 409.333 599 410 c 0
 563 410.667 532.333 398.167 507 372.5 c 0
 481.667 346.833 469 316 469 280 c 2
 469 0 l 1
 419 0 l 1
 419 280 l 2
 419 316 404.5 346.5 375.5 371.5 c 0
 346.5 396.5 311 409.333 269 410 c 0
 215 410.667 169 391.833 131 353.5 c 0
 93 315.167 74 269 74 215 c 2
 74 180 l 1
 80 203.333 92.8333 221.667 112.5 235 c 0
 132.167 248.333 154.333 255 179 255 c 0
 215 255 245.667 241.5 271 214.5 c 0
 296.333 187.5 309 156 309 120 c 0
 309 85.3333 296 56 270 32 c 0
 244 8 213.667 -4.33333 179 -5 c 0
 138.333 -5.66667 105.833 11.8333 81.5 47.5 c 0
 57.1667 83.1667 44.6667 130.667 44 190 c 0
 43.3333 263.333 62 323.333 100 370 c 0
 140.667 419.333 197 444.333 269 445 c 0
 311.667 445.667 349.5 437.167 382.5 419.5 c 0
 415.5 401.833 437.667 378.667 449 350 c 1
 484.333 412 534.333 443.667 599 445 c 0
 633.667 445.667 666.667 437 698 419 c 0
 733.333 398.333 753.333 367.333 758 326 c 1
 769.333 345.333 786.667 364.667 810 384 c 0
 857.333 424 911 444.333 971 445 c 0
 1035 445.667 1090.17 426.5 1136.5 387.5 c 0
 1182.83 348.5 1206 301 1206 245 c 2
 1206 0 l 1
 729 0 l 1
EndSplineSet
EndChar
StartChar: 03
Encoding: 65544 -1
Width: 842
Flags: HW
Fore
758 280 m 0
 758.667 235.333 752 194.667 738 158 c 0
 720 110.667 693.333 81.3333 658 70 c 1
 690 52.6667 714.333 23.6667 731 -17 c 0
 745 -51 752.333 -88.6667 753 -130 c 0
 753.667 -178 742 -221 718 -259 c 0
 690 -303 653.333 -325 608 -325 c 0
 562.667 -325 530.333 -293 511 -229 c 0
 506.333 -213 503.667 -193.333 503 -170 c 0
 501.667 -85.3333 546.667 -15.3333 638 40 c 1
 604 60 574 70 548 70 c 0
 503.333 70 465.333 49 434 7 c 0
 408.667 -27 391.333 -68.6667 382 -118 c 0
 370.667 -176 349.833 -224.833 319.5 -264.5 c 0
 289.167 -304.167 255.333 -324.333 218 -325 c 0
 167.333 -325.667 124.333 -305.667 89 -265 c 0
 55.6667 -226.333 38.6667 -181.333 38 -130 c 0
 37.3333 -83.3333 45 -41 61 -3 c 0
 79.6667 41 107 73.6667 143 95 c 1
 80.3333 132.333 48.6667 192.333 48 275 c 0
 47.3333 323.667 58.6667 369.833 82 413.5 c 0
 105.333 457.167 137.333 491 178 515 c 1
 193 495 l 1
 165.667 471.667 144.833 441.5 130.5 404.5 c 0
 116.167 367.5 108.667 326 108 280 c 0
 107.333 236.667 117 197.667 137 163 c 0
 161 121.667 193 100.667 233 100 c 0
 264.333 99.3333 292 124.667 316 176 c 0
 332 211.333 344 250.333 352 293 c 0
 361.333 345.667 382 391.667 414 431 c 0
 450.667 477 493.667 500 543 500 c 0
 603 500 653.667 478.5 695 435.5 c 0
 736.333 392.5 757.333 340.667 758 280 c 0
708 280 m 0
 708.667 341.333 687 388 643 420 c 1
 607.667 405.333 580 379.333 560 342 c 0
 542.667 308.667 533.667 271.333 533 230 c 0
 532.333 200 538 172.667 550 148 c 0
 564.667 116.667 585.667 100.667 613 100 c 0
 645 99.3333 670 122.667 688 170 c 0
 700.667 205.333 707.333 242 708 280 c 0
708 -120 m 0
 708 -66 691.333 -19.3333 658 20 c 1
 621.333 -1.33333 592 -28.6667 570 -62 c 0
 546 -97.3333 533.667 -135 533 -175 c 0
 532.333 -203 539.333 -228.333 554 -251 c 0
 570.667 -276.333 592 -289.333 618 -290 c 0
 642 -290.667 662.667 -275.333 680 -244 c 0
 692.667 -220 701 -193.667 705 -165 c 0
 707 -151 708 -136 708 -120 c 0
623 440 m 1
 599 460 570.667 470 538 470 c 0
 498 470 463.667 449 435 407 c 0
 411.667 373.667 396 334.667 388 290 c 0
 378 236.667 361 189.333 337 148 c 0
 305 92.6667 267 65 223 65 c 0
 205.667 65 187.333 70 168 80 c 1
 112.667 42 84.3333 -24.6667 83 -120 c 0
 82.3333 -164 94.3333 -203.333 119 -238 c 0
 145.667 -276 180.333 -295 223 -295 c 0
 257 -295 287 -271 313 -223 c 0
 331.667 -189 345 -150.333 353 -107 c 0
 363 -52.3333 385.667 -6.33333 421 31 c 0
 459.667 72.3333 505.333 93.6667 558 95 c 1
 543.333 103 531 119 521 143 c 1
 513 169.667 508.667 198.667 508 230 c 0
 507.333 273.333 517.167 313.667 537.5 351 c 0
 557.833 388.333 586.333 418 623 440 c 1
EndSplineSet
EndChar
StartChar: 04
Encoding: 65545 -1
Width: 1270
Flags: HW
Fore
1166 -195 m 1
 456 -195 l 1
 456 -190 l 1
 1021 0 l 1
 676 0 l 1
 676 30 l 1
 736 70.6667 766 137.333 766 230 c 0
 766 276 752 316 724 350 c 0
 694 386 656.333 404.333 611 405 c 0
 556.333 405.667 518 374.667 496 312 c 0
 489.333 293.333 486 274.333 486 255 c 2
 486 0 l 1
 436 0 l 1
 436 270 l 2
 436 312 417.667 345.667 381 371 c 0
 347.667 393.667 309.333 405 266 405 c 0
 208 405 160.333 380.667 123 332 c 0
 88.3333 287.333 71 235 71 175 c 0
 71 161 74.3333 149.333 81 140 c 1
 81 172.667 92 200.833 114 224.5 c 0
 136 248.167 163.333 260 196 260 c 0
 230.667 260 259.667 247 283 221 c 0
 304.333 195.667 315.333 165.333 316 130 c 0
 316.667 92.6667 305.167 60.1667 281.5 32.5 c 0
 257.833 4.83333 227.667 -9.33333 191 -10 c 0
 144.333 -10.6667 106.667 12.6667 78 60 c 0
 54 100 41.6667 145 41 195 c 0
 40.3333 263.667 62 322.667 106 372 c 0
 151.333 424 208 450 276 450 c 0
 320.667 450 360.667 440.667 396 422 c 0
 437.333 400 462.333 369.333 471 330 c 1
 479.667 365.333 497 394.167 523 416.5 c 0
 549 438.833 580 450 616 450 c 0
 673.333 450 721 427.833 759 383.5 c 0
 797 339.167 816 288 816 230 c 0
 816 139.333 792.667 72.6667 746 30 c 1
 1116 30 l 1
 1116 440 l 1
 1166 440 l 1
 1166 -195 l 1
1116 -165 m 1
 1116 -10 l 1
 656 -165 l 1
 1116 -165 l 1
266 135 m 0
 266 160.333 258 182.333 242 201 c 0
 226 219.667 205.667 229.333 181 230 c 0
 158.333 230.667 139.667 219.333 125 196 c 0
 113 176 106.667 154 106 130 c 0
 105.333 104 112 81.6667 126 63 c 0
 141.333 41.6667 161.333 30.6667 186 30 c 0
 210.667 29.3333 230.667 41 246 65 c 0
 259.333 86.3333 266 109.667 266 135 c 0
EndSplineSet
EndChar
StartChar: 05
Encoding: 65546 -1
Width: 1242
Flags: HW
Fore
1136 -150 m 0
 1136.67 -191.333 1127.17 -229.667 1107.5 -265 c 0
 1087.83 -300.333 1060.67 -328.667 1026 -350 c 1
 996 -320 l 1
 1048.67 -285.333 1075.33 -225.333 1076 -140 c 0
 1076.67 -92.6667 1061.83 -51 1031.5 -15 c 0
 1001.17 21 962.667 39.3333 916 40 c 0
 882 40.6667 852.333 31.3333 827 12 c 0
 799.667 -9.33333 786 -36.6667 786 -70 c 2
 786 -340 l 1
 736 -340 l 1
 736 -75 l 2
 736 -42.3333 722.333 -14.6667 695 8 c 0
 669.667 28.6667 640 39.3333 606 40 c 0
 572 40.6667 542.833 29.3333 518.5 6 c 0
 494.167 -17.3333 480 -46 476 -80 c 1
 476 -340 l 1
 426 -340 l 1
 426 -80 l 2
 426 -42 406.333 -11.6667 367 11 c 0
 333.667 30.3333 296.667 40 256 40 c 0
 200 40 154.667 18.6667 120 -24 c 0
 88 -64 71.6667 -112.667 71 -170 c 0
 71 -189.333 72.6667 -204.333 76 -215 c 1
 76 -181.667 86.8333 -153.5 108.5 -130.5 c 0
 130.167 -107.5 157.667 -95.6667 191 -95 c 0
 227.667 -94.3333 259.333 -105.833 286 -129.5 c 0
 312.667 -153.167 326 -183.333 326 -220 c 0
 326 -255.333 312.5 -284.833 285.5 -308.5 c 0
 258.5 -332.167 227 -344.333 191 -345 c 0
 151 -345.667 115.667 -328.667 85 -294 c 0
 56.3333 -261.333 41.6667 -220 41 -170 c 0
 39.6667 -78.6667 74.6667 -12 146 30 c 1
 111.333 41.3333 84.6667 65.3333 66 102 c 0
 50 134 41.6667 170 41 210 c 0
 40.3333 272.667 61 327.333 103 374 c 0
 145 420.667 196 444.333 256 445 c 0
 340.667 445.667 405.667 414 451 350 c 1
 487.667 412 539.333 443.667 606 445 c 0
 676.667 446.333 730 414.667 766 350 c 1
 801.333 412.667 851.333 444.333 916 445 c 0
 976 445.667 1026.67 423.5 1068 378.5 c 0
 1109.33 333.5 1130.33 280.667 1131 220 c 0
 1131.67 162.667 1114 115.333 1078 78 c 0
 1062.67 62 1043.67 49.3333 1021 40 c 1
 1057 23.3333 1085 -2.16667 1105 -36.5 c 0
 1125 -70.8333 1135.33 -108.667 1136 -150 c 0
1071 240 m 0
 1071.67 284.667 1057.17 323.333 1027.5 356 c 0
 997.833 388.667 960.667 405 916 405 c 0
 881.333 405 851 394.333 825 373 c 0
 799 351.667 786 324 786 290 c 2
 786 0 l 1
 798 21.3333 815.833 39.1667 839.5 53.5 c 0
 863.167 67.8333 888.667 75 916 75 c 0
 950.667 75 979 68.3333 1001 55 c 1
 1046.33 87.6667 1069.67 149.333 1071 240 c 0
736 0 m 1
 736 290 l 2
 736 322.667 722.333 350.333 695 373 c 0
 669.667 393.667 640 404.333 606 405 c 0
 570 405.667 539.333 393.833 514 369.5 c 0
 488.667 345.167 476 315.333 476 280 c 2
 476 0 l 1
 486.667 24 504.667 42.6667 530 56 c 0
 552.667 68.6667 578 75 606 75 c 0
 632 75 656.333 68.5 679 55.5 c 0
 701.667 42.5 720.667 24 736 0 c 1
426 0 m 1
 426 285 l 1
 419.333 321.667 398.333 351.333 363 374 c 0
 331 394 295.333 404.333 256 405 c 0
 204.667 405.667 161.167 387.833 125.5 351.5 c 0
 89.8333 315.167 71.6667 271.333 71 220 c 1
 76 170 l 1
 76 199.333 87 224 109 244 c 0
 131 264 156.667 274.333 186 275 c 0
 221.333 275.667 252.667 265.333 280 244 c 0
 307.333 222.667 321 194.667 321 160 c 0
 321 126.667 306 98.3333 276 75 c 1
 308 75 337.5 68.5 364.5 55.5 c 0
 391.5 42.5 412 24 426 0 c 1
266 150 m 0
 266 176 257.5 198.167 240.5 216.5 c 0
 223.5 234.833 202 244.333 176 245 c 0
 151.333 245.667 131.167 236.333 115.5 217 c 0
 99.8333 197.667 91.6667 175.333 91 150 c 0
 90.3333 125.333 98.1667 103.5 114.5 84.5 c 0
 130.833 65.5 151.333 55.6667 176 55 c 0
 201.333 54.3333 222.667 63.5 240 82.5 c 0
 257.333 101.5 266 124 266 150 c 0
266 -220 m 0
 266 -195.333 258.667 -174.333 244 -157 c 0
 229.333 -139.667 210 -130.667 186 -130 c 0
 162 -129.333 142 -138 126 -156 c 0
 110 -174 101.667 -195.333 101 -220 c 0
 100.333 -244.667 108.333 -265.833 125 -283.5 c 0
 141.667 -301.167 162 -310 186 -310 c 0
 208.667 -310 227.667 -300.667 243 -282 c 0
 258.333 -263.333 266 -242.667 266 -220 c 0
EndSplineSet
EndChar
StartChar: 06
Encoding: 65547 -1
Width: 1161
Flags: HW
Fore
1066 -90 m 0
 1066 -149.333 1051 -202.333 1021 -249 c 0
 987 -302.333 942 -329.333 886 -330 c 0
 788.667 -330.667 726.333 -286.667 699 -198 c 0
 691 -171.333 686.667 -138.667 686 -100 c 0
 684.667 16.6667 648 75 576 75 c 0
 534.667 75 499.333 61.1667 470 33.5 c 0
 440.667 5.83333 426 -28.6667 426 -70 c 2
 426 -340 l 1
 376 -340 l 1
 376 -75 l 2
 376 -35 360 -2 328 24 c 0
 298 48 262.333 60 221 60 c 0
 177 60 141.667 38.3333 115 -5 c 0
 93 -41 81.6667 -82.6667 81 -130 c 0
 80.3333 -208.667 123.667 -273.667 211 -325 c 1
 196 -345 l 1
 151.333 -328.333 115.667 -298.333 89 -255 c 0
 64.3333 -214.333 51.6667 -169.333 51 -120 c 0
 50.3333 -30 85.3333 40 156 90 c 1
 119.333 106.667 90.6667 134.333 70 173 c 0
 51.3333 207.667 41.6667 246.667 41 290 c 0
 40.3333 345.333 59 394.167 97 436.5 c 0
 135 478.833 181.333 500 236 500 c 0
 275.333 500 310.833 491.5 342.5 474.5 c 0
 374.167 457.5 395.333 434.333 406 405 c 1
 418.667 435 442.333 458.667 477 476 c 0
 507.667 492 540.667 500 576 500 c 0
 634.667 500 679 481 709 443 c 0
 736.333 408.333 750.333 360.667 751 300 c 0
 751.667 178 795 116.333 881 115 c 0
 925 114.333 961 134.667 989 176 c 0
 1013 212.667 1025.33 254 1026 300 c 0
 1026.67 341.333 1018 379.333 1000 414 c 0
 981.333 451.333 955 480 921 500 c 1
 936 520 l 1
 974 499.333 1003.67 468 1025 426 c 0
 1045.67 386.667 1056 344.667 1056 300 c 0
 1056 202 1029.33 133.667 976 95 c 1
 1036 44.3333 1066 -17.3333 1066 -90 c 0
1036 -100 m 0
 1036.67 -63.3333 1029.33 -28.5 1014 4.5 c 0
 998.667 37.5 976 62.6667 946 80 c 1
 876 70 l 1
 812 70 763.667 91.3333 731 134 c 0
 701.667 172 686.667 224 686 290 c 0
 685.333 396.667 640.333 450 551 450 c 0
 517.667 450 488.5 439 463.5 417 c 0
 438.5 395 426 367.667 426 335 c 2
 426 35 l 1
 461.333 87.6667 511.333 114.333 576 115 c 0
 635.333 115.667 680.333 94 711 50 c 0
 737 12 750.333 -38 751 -100 c 0
 751.667 -225.333 796.667 -288.667 886 -290 c 0
 931.333 -290.667 968.333 -269.667 997 -227 c 0
 1022.33 -189.667 1035.33 -147.333 1036 -100 c 0
376 40 m 1
 376 335 l 2
 376 383.667 345.333 419 284 441 c 0
 267.333 447 248 450 226 450 c 0
 182 450 145.167 434.333 115.5 403 c 0
 85.8333 371.667 71 334 71 290 c 0
 71 250 80.6667 213.5 100 180.5 c 0
 119.333 147.5 146.333 122.333 181 105 c 1
 189.667 107.667 214.667 109.333 256 110 c 0
 306 110.667 346 87.3333 376 40 c 1
EndSplineSet
EndChar
StartChar: 07
Encoding: 65548 -1
Width: 1363
Flags: HW
Fore
387 415 m 1
 313.667 353.667 276.667 287 276 215 c 0
 275.333 169.667 285.667 127.667 307 89 c 0
 332.333 42.3333 366 18.6667 408 18 c 0
 490.667 16.6667 532 77 532 199 c 0
 532 239.667 522.333 275.667 503 307 c 0
 488.333 330.333 462 361.667 424 401 c 1
 468 419 l 2
 469.333 419 475.833 421.167 487.5 425.5 c 0
 499.167 429.833 508.333 432 515 432 c 0
 553.667 432 585 420.833 609 398.5 c 0
 633 376.167 645 345.667 645 307 c 2
 645 18 l 1
 681 18 l 1
 681 338 l 2
 681 363.333 696.333 386 727 406 c 0
 755 424.667 782.333 434 809 434 c 0
 854.333 434 888.5 418.5 911.5 387.5 c 0
 934.5 356.5 946.333 303.667 947 229 c 0
 947.667 178.333 958.333 132 979 90 c 0
 1005 38.6667 1040.67 12.6667 1086 12 c 0
 1146.67 11.3333 1195 36 1231 86 c 0
 1263 130 1279.33 183.667 1280 247 c 0
 1280.67 311 1264.67 363.667 1232 405 c 0
 1216.67 425 1197 441.667 1173 455 c 1
 1169 455 1165.67 451.667 1163 445 c 2
 1165 450 l 1
 1195 436 1219.33 410.833 1238 374.5 c 0
 1256.67 338.167 1266.33 297.667 1267 253 c 0
 1267.67 191.667 1253.33 142 1224 104 c 0
 1192 62.6667 1146 41.6667 1086 41 c 0
 1049.33 40.3333 1020.33 66.3333 999 119 c 0
 983 159 974.667 200.667 974 244 c 0
 973.333 294 961.333 338.667 938 378 c 0
 910.667 425.333 873.667 449.333 827 450 c 0
 797.667 450.667 772.333 446.333 751 437 c 0
 714.333 421.667 684.667 388.667 662 338 c 1
 644 414.667 594.333 453.667 513 455 c 0
 501 455 492.167 454.833 486.5 454.5 c 0
 480.833 454.167 472.333 451.667 461 447 c 0
 455.667 445.667 445.333 441.333 430 434 c 0
 417.333 428.667 408 424.333 402 421 c 1
 380 431 355 439 327 445 c 0
 318.333 447 308.667 448.833 298 450.5 c 0
 287.333 452.167 272.667 453.667 254 455 c 0
 186.667 455.667 133.667 440 95 408 c 0
 52.3333 372.667 30.6667 318 30 244 c 0
 29.3333 194.667 40.3333 149.333 63 108 c 0
 87 64 120.333 32 163 12 c 1
 166 15 l 1
 170 18 l 1
 134 56.6667 108 89.3333 92 116 c 0
 68 157.333 56 200 56 244 c 0
 56 301.333 72.3333 348.5 105 385.5 c 0
 137.667 422.5 182.333 441 239 441 c 2
 275 441 l 2
 297 441 319 438 341 432 c 0
 356.333 428.667 371.667 423 387 415 c 1
424 41 m 0
 395.333 40.3333 370.333 53.3333 349 80 c 0
 325 110.667 312.667 155.667 312 215 c 0
 311.333 296.333 345.333 358.333 414 401 c 1
 448 363.667 471.667 334.333 485 313 c 0
 504.333 281.667 514.667 249 516 215 c 1
 515 199 l 2
 511.667 147.667 501.333 107.333 484 78 c 0
 470 54 450 41.6667 424 41 c 0
EndSplineSet
EndChar
StartChar: 08
Encoding: 65549 -1
Width: 1363
Flags: HW
Fore
387 415 m 1
 313.667 353.667 276.667 287 276 215 c 0
 275.333 169.667 285.667 127.667 307 89 c 0
 332.333 42.3333 366 18.6667 408 18 c 0
 490.667 16.6667 532 77 532 199 c 0
 532 239.667 522.333 275.667 503 307 c 0
 488.333 330.333 462 361.667 424 401 c 1
 468 419 l 2
 469.333 419 475.833 421.167 487.5 425.5 c 0
 499.167 429.833 508.333 432 515 432 c 0
 553.667 432 585 420.833 609 398.5 c 0
 633 376.167 645 345.667 645 307 c 2
 645 18 l 1
 681 18 l 1
 681 338 l 2
 681 363.333 696.333 386 727 406 c 0
 755 424.667 782.333 434 809 434 c 0
 854.333 434 888.5 418.5 911.5 387.5 c 0
 934.5 356.5 946.333 303.667 947 229 c 0
 947.667 178.333 958.333 132 979 90 c 0
 1005 38.6667 1040.67 12.6667 1086 12 c 0
 1146.67 11.3333 1195 36 1231 86 c 0
 1263 130 1279.33 183.667 1280 247 c 0
 1280.67 311 1264.67 363.667 1232 405 c 0
 1216.67 425 1197 441.667 1173 455 c 1
 1169 455 1165.67 451.667 1163 445 c 2
 1165 450 l 1
 1195 436 1219.33 410.833 1238 374.5 c 0
 1256.67 338.167 1266.33 297.667 1267 253 c 0
 1267.67 191.667 1253.33 142 1224 104 c 0
 1192 62.6667 1146 41.6667 1086 41 c 0
 1049.33 40.3333 1020.33 66.3333 999 119 c 0
 983 159 974.667 200.667 974 244 c 0
 973.333 294 961.333 338.667 938 378 c 0
 910.667 425.333 873.667 449.333 827 450 c 0
 797.667 450.667 772.333 446.333 751 437 c 0
 714.333 421.667 684.667 388.667 662 338 c 1
 644 414.667 594.333 453.667 513 455 c 0
 501 455 492.167 454.833 486.5 454.5 c 0
 480.833 454.167 472.333 451.667 461 447 c 0
 455.667 445.667 445.333 441.333 430 434 c 0
 417.333 428.667 408 424.333 402 421 c 1
 380 431 355 439 327 445 c 0
 318.333 447 308.667 448.833 298 450.5 c 0
 287.333 452.167 272.667 453.667 254 455 c 0
 186.667 455.667 133.667 440 95 408 c 0
 52.3333 372.667 30.6667 318 30 244 c 0
 29.3333 194.667 40.3333 149.333 63 108 c 0
 87 64 120.333 32 163 12 c 1
 166 15 l 1
 170 18 l 1
 134 56.6667 108 89.3333 92 116 c 0
 68 157.333 56 200 56 244 c 0
 56 301.333 72.3333 348.5 105 385.5 c 0
 137.667 422.5 182.333 441 239 441 c 2
 275 441 l 2
 297 441 319 438 341 432 c 0
 356.333 428.667 371.667 423 387 415 c 1
424 41 m 0
 395.333 40.3333 370.333 53.3333 349 80 c 0
 325 110.667 312.667 155.667 312 215 c 0
 311.333 296.333 345.333 358.333 414 401 c 1
 448 363.667 471.667 334.333 485 313 c 0
 504.333 281.667 514.667 249 516 215 c 1
 515 199 l 2
 511.667 147.667 501.333 107.333 484 78 c 0
 470 54 450 41.6667 424 41 c 0
EndSplineSet
EndChar
StartChar: 09
Encoding: 65550 -1
Width: 1042
Flags: HW
Fore
1001 225 m 0
 1001.67 161.667 982.667 107.333 944 62 c 0
 904 14.6667 853 -9.33333 791 -10 c 0
 717.667 -10.6667 664.333 31 631 115 c 1
 613.667 73.6667 578.333 41.6667 525 19 c 0
 481 0.333333 433 -9.33333 381 -10 c 0
 337.667 -10.6667 297.333 -3 260 13 c 0
 211.333 33 186.667 62 186 100 c 0
 185.333 116 194.333 128.667 213 138 c 0
 227.667 146 243.667 150 261 150 c 1
 306 145 l 1
 341 140 l 1
 386.333 140 409.667 158.333 411 195 c 0
 411.667 213 403.333 227.667 386 239 c 0
 371.333 249.667 354.667 255 336 255 c 2
 181 255 l 1
 181 285 l 1
 351 285 l 2
 361.667 285 372.333 290.333 383 301 c 1
 391 311 395.333 324 396 340 c 0
 396.667 361.333 383 378 355 390 c 0
 333 400 310 405 286 405 c 0
 230.667 405.667 181.333 384.667 138 342 c 0
 97.3333 302 76.6667 251.333 76 190 c 0
 75.3333 107.333 93.6667 47.3333 131 10 c 1
 111 -10 l 1
 68.3333 40.6667 46.6667 107.333 46 190 c 0
 45.3333 259.333 67.3333 319.833 112 371.5 c 0
 156.667 423.167 213 449.333 281 450 c 0
 317.667 450.667 351.667 442.667 383 426 c 0
 421 406 440.333 379 441 345 c 0
 441.667 326.333 437.333 310 428 296 c 0
 417.333 280 403.333 271.333 386 270 c 1
 404.667 270 422.333 262 439 246 c 1
 453 230 460.333 211.333 461 190 c 0
 461.667 169.333 455.333 151 442 135 c 0
 428.667 119 411.667 110.667 391 110 c 0
 389 110 381.667 111 369 113 c 0
 353.667 116.333 339.333 118.667 326 120 c 2
 281 125 l 1
 258.333 125 245 115 241 95 c 1
 241 73 260 55.6667 298 43 c 0
 324.667 34.3333 352.333 30 381 30 c 0
 433 29.3333 481.667 40.3333 527 63 c 0
 583 90.3333 611 127.667 611 175 c 2
 611 440 l 1
 661 440 l 1
 661 165 l 2
 661 125.667 674.5 93.3333 701.5 68 c 0
 728.5 42.6667 761.667 30 801 30 c 0
 850.333 30 891.667 50.6667 925 92 c 0
 955.667 130.667 971 175 971 225 c 0
 971 313.667 929.333 378.667 846 420 c 1
 866 445 l 1
 906.667 426.333 939.167 396.5 963.5 355.5 c 0
 987.833 314.5 1000.33 271 1001 225 c 0
EndSplineSet
EndChar
StartChar: 10
Encoding: 65551 -1
Width: 1148
Flags: HW
Fore
1076 210 m 0
 1076.67 147.333 1055 94 1011 50 c 1
 1037 26.6667 1050.33 -6.66667 1051 -50 c 0
 1051.67 -96 1033.33 -135.667 996 -169 c 0
 958.667 -202.333 913.667 -219.333 861 -220 c 0
 815.667 -220.667 775 -209.667 739 -187 c 0
 701 -163.667 675 -131.333 661 -90 c 1
 629.667 -23.3333 589.667 10 541 10 c 2
 481 10 l 1
 505.667 6 525.333 -7.33333 540 -30 c 0
 553.333 -50 560.333 -73.3333 561 -100 c 0
 561.667 -131.333 548.5 -159.167 521.5 -183.5 c 0
 494.5 -207.833 462.667 -220 426 -220 c 0
 390.667 -220 360.333 -208.667 335 -186 c 0
 309.667 -163.333 296.667 -134.667 296 -100 c 0
 295.333 -71.3333 302.667 -45.6667 318 -23 c 0
 333.333 -0.333333 354.333 14 381 20 c 1
 381 270 l 2
 381 310 366 343.667 336 371 c 0
 306.667 396.333 271.667 409.333 231 410 c 0
 183 410.667 143.667 390.667 113 350 c 0
 85.6667 312.667 71.6667 269.333 71 220 c 0
 70.3333 173.333 82 131.833 106 95.5 c 0
 130 59.1667 163.333 32.3333 206 15 c 1
 186 -10 l 1
 140.667 7.33333 104.667 38 78 82 c 0
 54 123.333 41.6667 169.333 41 220 c 0
 40.3333 278.667 56.6667 330 90 374 c 0
 126.667 421.333 173.667 445 231 445 c 0
 309 445 367.333 413.333 406 350 c 1
 442.667 412.667 494.333 444.333 561 445 c 0
 610.333 445.667 653.667 424.667 691 382 c 0
 722.333 346 740.333 297.333 745 236 c 0
 751 169.333 764.333 120.333 785 89 c 0
 810.333 50.3333 842.333 30.6667 881 30 c 0
 927.667 29.3333 966.333 48 997 86 c 0
 1025.67 121.333 1040.33 162.667 1041 210 c 0
 1041.67 250.667 1030.17 289.833 1006.5 327.5 c 0
 982.833 365.167 951 396 911 420 c 1
 931 445 l 1
 973.667 420.333 1008.33 387 1035 345 c 0
 1061.67 303 1075.33 258 1076 210 c 0
996 -50 m 0
 996 -15.3333 991 11.3333 981 30 c 1
 955 7.33333 921.667 -4.33333 881 -5 c 0
 823.667 -5.66667 776.667 19.6667 740 71 c 0
 708 117 691.667 170 691 230 c 0
 690.333 274 679.667 313.333 659 348 c 0
 635 388.667 602.333 409.333 561 410 c 0
 523.667 410.667 492.667 396.833 468 368.5 c 0
 443.333 340.167 431 307.333 431 270 c 2
 431 35 l 1
 442.333 41 472.333 44.3333 521 45 c 0
 563 45.6667 601.333 35.1667 636 13.5 c 0
 670.667 -8.16667 693.833 -36 705.5 -70 c 0
 717.167 -104 737.667 -131.5 767 -152.5 c 0
 796.333 -173.5 829.333 -184.333 866 -185 c 0
 900 -185.667 930.167 -172.5 956.5 -145.5 c 0
 982.833 -118.5 996 -86.6667 996 -50 c 0
501 -95 m 0
 501.667 -71 493.5 -50 476.5 -32 c 0
 459.5 -14 439.333 -5 416 -5 c 0
 390 -5 368.667 -13.5 352 -30.5 c 0
 335.333 -47.5 326.667 -69 326 -95 c 0
 325.333 -120.333 333.833 -141.5 351.5 -158.5 c 0
 369.167 -175.5 390.667 -184.333 416 -185 c 0
 439.333 -185.667 459.167 -176.833 475.5 -158.5 c 0
 491.833 -140.167 500.333 -119 501 -95 c 0
EndSplineSet
EndChar
StartChar: 11
Encoding: 65552 -1
Width: 866
Flags: HW
Fore
783 -70 m 0
 783.667 -116.667 765 -155.333 727 -186 c 0
 691.667 -214.667 650.333 -229.333 603 -230 c 0
 559 -230.667 518.833 -218.667 482.5 -194 c 0
 446.167 -169.333 418 -136.333 398 -95 c 0
 365.333 -28.3333 318.667 5 258 5 c 1
 218 0 l 1
 264 -22 287.333 -55.3333 288 -100 c 0
 288.667 -134 274.333 -163 245 -187 c 0
 218.333 -209 187.667 -220 153 -220 c 0
 118.333 -220 89 -207.833 65 -183.5 c 0
 41 -159.167 28.6667 -129.667 28 -95 c 0
 27.3333 -63 37.6667 -35.3333 59 -12 c 0
 79.6667 9.33333 106 23.3333 138 30 c 1
 108.667 46.6667 85.3333 72.6667 68 108 c 0
 52 141.333 43.6667 182 43 230 c 0
 42.3333 276 55.3333 318.667 82 358 c 0
 106.667 395.333 140.333 424.333 183 445 c 1
 203 420 l 1
 170.333 401.333 145.5 374.833 128.5 340.5 c 0
 111.5 306.167 103 269.333 103 230 c 0
 103 182 114.333 138.667 137 100 c 0
 163 54 198.333 30.6667 243 30 c 0
 271 29.3333 296.333 48 319 86 c 0
 338.333 118 349.667 162.667 353 220 c 0
 356.333 280.667 378 334 418 380 c 0
 454.667 422.667 498 444.333 548 445 c 0
 608.667 445.667 661.333 423 706 377 c 0
 750.667 331 773 275.333 773 210 c 0
 773 145.333 753 92 713 50 c 1
 759 22 782.333 -18 783 -70 c 0
718 210 m 0
 718.667 253.333 698.667 300 658 350 c 1
 621.333 333.333 592.667 305.667 572 267 c 0
 553.333 231.667 543.667 192.667 543 150 c 0
 542.333 122 548.333 97 561 75 c 0
 576.333 48.3333 597 35 623 35 c 0
 649 35 671.333 52 690 86 c 0
 708 118 717.333 159.333 718 210 c 0
723 -70 m 0
 723 -24 711.333 9.33333 688 30 c 1
 669.333 7.33333 646 -4.33333 618 -5 c 0
 594.667 -5.66667 573.667 4.66667 555 26 c 0
 540.333 42.6667 529 63.6667 521 89 c 0
 516.333 105 513.667 125.333 513 150 c 0
 512.333 196.667 523 240.167 545 280.5 c 0
 567 320.833 598 350.667 638 370 c 1
 614 392.667 584 404.333 548 405 c 0
 502.667 405.667 464.667 383.667 434 339 c 0
 408.667 301.667 393.333 258.667 388 210 c 1
 388 125.333 363 63.6667 313 25 c 1
 375 2.33333 416.667 -31 438 -75 c 0
 476.667 -155 531.667 -195 603 -195 c 0
 636.333 -195 664.667 -182.5 688 -157.5 c 0
 711.333 -132.5 723 -103.333 723 -70 c 0
228 -95 m 0
 228.667 -69 220.333 -46.8333 203 -28.5 c 0
 185.667 -10.1667 164 -0.666667 138 0 c 0
 114 0.666667 94.3333 -10.3333 79 -33 c 0
 65.6667 -52.3333 58.6667 -74.6667 58 -100 c 0
 57.3333 -123.333 64.6667 -143.167 80 -159.5 c 0
 95.3333 -175.833 114.667 -184.333 138 -185 c 0
 163.333 -185.667 184.5 -177.167 201.5 -159.5 c 0
 218.5 -141.833 227.333 -120.333 228 -95 c 0
EndSplineSet
EndChar
StartChar: 12
Encoding: 65553 -1
Width: 509
Flags: HW
Fore
470 230 m 0
 470 150 438.333 86.6667 375 40 c 1
 427 11.3333 453.667 -45.3333 455 -130 c 0
 455.667 -172.667 444.167 -212.667 420.5 -250 c 0
 396.833 -287.333 365 -315.667 325 -335 c 1
 300 -310 l 1
 362.667 -266 394.333 -206 395 -130 c 0
 395.667 -86.6667 382.333 -47.6667 355 -13 c 0
 327.667 21.6667 292.667 39.3333 250 40 c 0
 203.333 40.6667 164.667 22 134 -16 c 0
 105.333 -51.3333 90.6667 -92.6667 90 -140 c 0
 89.3333 -176 98.3333 -209 117 -239 c 0
 136.333 -271 162.333 -293 195 -305 c 1
 180 -330 l 1
 142 -313.333 112.333 -287.667 91 -253 c 0
 71 -220.333 60.6667 -182.667 60 -140 c 0
 59.3333 -71.3333 82.6667 -16.3333 130 25 c 1
 70 83 40 144.667 40 210 c 0
 40 272.667 59 326.667 97 372 c 0
 137.667 420.667 188.667 445 250 445 c 0
 308 445 359.167 424.167 403.5 382.5 c 0
 447.833 340.833 470 290 470 230 c 0
405 230 m 0
 405.667 277.333 390 318.167 358 352.5 c 0
 326 386.833 286.667 404.333 240 405 c 0
 190.667 405.667 149.667 385 117 343 c 0
 86.3333 305 70.6667 260.667 70 210 c 0
 69.3333 144.667 96 89.6667 150 45 c 1
 176.667 67.6667 213.333 79.3333 260 80 c 0
 290 80.6667 316.667 74 340 60 c 1
 361.333 79.3333 377.333 102.833 388 130.5 c 0
 398.667 158.167 404.333 191.333 405 230 c 0
EndSplineSet
EndChar
StartChar: 13
Encoding: 65554 -1
Width: 502
Flags: HW
Fore
467 -80 m 0
 467 -121.333 442 -154.333 392 -179 c 0
 350.667 -199.667 307.333 -210 262 -210 c 0
 168.667 -210 95.3333 -183.333 42 -130 c 1
 67 -110 l 1
 108.333 -150 173.333 -170 262 -170 c 0
 298 -170 332 -163 364 -149 c 0
 405.333 -131 426.333 -106.333 427 -75 c 0
 427.667 -52.3333 417.333 -33.6667 396 -19 c 0
 376.667 -6.33333 355.333 4.33681e-19 332 0 c 2
 162 0 l 1
 162 30 l 1
 332 30 l 2
 353.333 30 372 37.1667 388 51.5 c 0
 404 65.8333 412 83.6667 412 105 c 0
 412 131.667 402.167 153.333 382.5 170 c 0
 362.833 186.667 339.333 195 312 195 c 2
 162 195 l 1
 162 225 l 1
 302 225 l 2
 328.667 225 350.667 235 368 255 c 0
 383.333 274.333 391.333 297.667 392 325 c 0
 392.667 350.333 376.667 370.667 344 386 c 0
 317.333 398.667 290 405 262 405 c 0
 212 405 168.833 384.167 132.5 342.5 c 0
 96.1667 300.833 77.6667 250 77 190 c 0
 76.3333 120 93 56.6667 127 0 c 1
 97 0 l 1
 64.3333 46.6667 47.6667 110 47 190 c 0
 46.3333 259.333 68.3333 319.833 113 371.5 c 0
 157.667 423.167 214 449.333 282 450 c 0
 321.333 450.667 356.667 440.667 388 420 c 0
 423.333 397.333 441.333 367.333 442 330 c 0
 442.667 279.333 412.667 241 352 215 c 1
 401.333 205.667 435.333 181.667 454 143 c 0
 458.667 133 461.333 120.333 462 105 c 0
 463.333 57 443.333 23.6667 402 5 c 1
 445.333 -9.66667 467 -38 467 -80 c 0
EndSplineSet
EndChar
StartChar: 14
Encoding: 65555 -1
Width: 1132
Flags: HW
Fore
1040 80 m 0
 1040 46.6667 1025.33 19.6667 996 -1 c 0
 969.333 -20.3333 939 -30 905 -30 c 2
 635 -30 l 2
 617.667 -30 603.5 -36.5 592.5 -49.5 c 0
 581.5 -62.5 575.667 -79.3333 575 -100 c 0
 574.333 -114.667 580.333 -126.667 593 -136 c 0
 605.667 -145.333 619.667 -150 635 -150 c 2
 1030 -150 l 1
 1030 -200 l 1
 125 -200 l 2
 96.3333 -200 72.6667 -190.5 54 -171.5 c 0
 35.3333 -152.5 25.6667 -128.667 25 -100 c 0
 24.3333 -72 33.1667 -48.3333 51.5 -29 c 0
 69.8333 -9.66667 92.6667 8.67362e-19 120 0 c 2
 350 0 l 2
 377.333 0 401.333 6.33333 422 19 c 0
 446.667 33.6667 459.333 54 460 80 c 0
 460.667 104.667 447 124.667 419 140 c 0
 396.333 153.333 371.667 160 345 160 c 2
 335 160 l 1
 335 190 l 1
 345 190 l 2
 367.667 190 386.333 200.667 401 222 c 0
 413 240 419.333 261 420 285 c 0
 420.667 323 402 354 364 378 c 0
 331.333 398.667 295 409.333 255 410 c 0
 203.667 410.667 159.5 393.333 122.5 358 c 0
 85.5 322.667 66.3333 280 65 230 c 1
 70 180 l 1
 70 212.667 80.3333 240.667 101 264 c 0
 121.667 287.333 148 299.333 180 300 c 0
 212.667 300.667 240.833 288.333 264.5 263 c 0
 288.167 237.667 300 208.333 300 175 c 0
 300 142.333 286.833 115.167 260.5 93.5 c 0
 234.167 71.8333 204 60.6667 170 60 c 0
 128 59.3333 94.3333 77.6667 69 115 c 0
 46.3333 147.667 35 186 35 230 c 0
 35 292 58 343.667 104 385 c 0
 148.667 424.333 202.333 444.333 265 445 c 0
 317.667 445.667 365.667 432.667 409 406 c 0
 459 375.333 484.333 335 485 285 c 0
 485.667 260.333 479.333 238.333 466 219 c 0
 452 197 433.333 184 410 180 c 1
 439.333 180 466 170.667 490 152 c 0
 516.667 132 530 108 530 80 c 0
 530 46.6667 515.333 19.6667 486 -1 c 0
 459.333 -20.3333 429 -30 395 -30 c 2
 125 -30 l 2
 107.667 -30 93.5 -36.5 82.5 -49.5 c 0
 71.5 -62.5 65.6667 -79.3333 65 -100 c 0
 64.3333 -114 69 -125.833 79 -135.5 c 0
 89 -145.167 101 -150 115 -150 c 2
 559 -150 l 1
 543 -136 535 -119.333 535 -100 c 0
 535 -72 543.833 -48.3333 561.5 -29 c 0
 579.167 -9.66667 602 8.67362e-19 630 0 c 2
 860 0 l 2
 887.333 0 911.333 6.33333 932 19 c 0
 956.667 33.6667 969.333 54 970 80 c 0
 970.667 104.667 957 124.667 929 140 c 0
 906.333 153.333 881.667 160 855 160 c 2
 845 160 l 1
 845 190 l 1
 855 190 l 2
 877.667 190 896.333 200.667 911 222 c 0
 923 240 929.333 261 930 285 c 0
 930.667 323 912 354 874 378 c 0
 841.333 398.667 805 409.333 765 410 c 0
 713.667 410.667 669.5 393.333 632.5 358 c 0
 595.5 322.667 576.333 280 575 230 c 1
 580 180 l 1
 580 212.667 590.333 240.667 611 264 c 0
 631.667 287.333 658 299.333 690 300 c 0
 722.667 300.667 750.833 288.333 774.5 263 c 0
 798.167 237.667 810 208.333 810 175 c 0
 810 142.333 796.833 115.167 770.5 93.5 c 0
 744.167 71.8333 714 60.6667 680 60 c 0
 638 59.3333 604.333 77.6667 579 115 c 0
 556.333 147.667 545 186 545 230 c 0
 545 292 568 343.667 614 385 c 0
 658.667 424.333 712.333 444.333 775 445 c 0
 827.667 445.667 875.667 432.667 919 406 c 0
 969 375.333 994.333 335 995 285 c 0
 995.667 260.333 989.333 238.333 976 219 c 0
 962 197 943.333 184 920 180 c 1
 949.333 180 976 170.667 1000 152 c 0
 1026.67 132 1040 108 1040 80 c 0
750 180 m 0
 750.667 202 743.833 221.5 729.5 238.5 c 0
 715.167 255.5 697 264.333 675 265 c 0
 653 265.667 635.333 256 622 236 c 0
 611.333 218.667 605.667 198.333 605 175 c 0
 604.333 153.667 610.5 135.167 623.5 119.5 c 0
 636.5 103.833 653.667 95.6667 675 95 c 0
 697 94.3333 715 103.333 729 122 c 0
 742.333 138.667 749.333 158 750 180 c 0
240 180 m 0
 240.667 202 233.833 221.5 219.5 238.5 c 0
 205.167 255.5 187 264.333 165 265 c 0
 143 265.667 125.333 256 112 236 c 0
 101.333 218.667 95.6667 198.333 95 175 c 0
 94.3333 153.667 100.5 135.167 113.5 119.5 c 0
 126.5 103.833 143.667 95.6667 165 95 c 0
 187 94.3333 205 103.333 219 122 c 0
 232.333 138.667 239.333 158 240 180 c 0
EndSplineSet
EndChar
StartChar: 15
Encoding: 65556 -1
Width: 827
Flags: HW
Fore
787 115 m 0
 787 77.6667 769 47 733 23 c 0
 701.667 1.66667 666.333 -9.33333 627 -10 c 0
 569 -10.6667 520.667 4.33333 482 35 c 1
 502 60 l 1
 534 34 572.333 20.6667 617 20 c 0
 647 19.3333 673.667 28.5 697 47.5 c 0
 720.333 66.5 732 90.6667 732 120 c 0
 732 144.667 721.667 165 701 181 c 0
 680.333 197 657.333 205 632 205 c 2
 507 205 l 1
 507 235 l 1
 637 235 l 2
 658.333 235 677 242.167 693 256.5 c 0
 709 270.833 717 288.667 717 310 c 0
 717 339.333 702 363 672 381 c 0
 646.667 396.333 618.333 404.333 587 405 c 0
 541.667 405.667 502 390.5 468 359.5 c 0
 434 328.5 417 290.333 417 245 c 2
 417 0 l 1
 367 0 l 1
 367 280 l 2
 367 334.667 336 373 274 395 c 0
 256 401 237 404.333 217 405 c 0
 174.333 405.667 139 386 111 346 c 0
 85.6667 310 72.6667 269.667 72 225 c 0
 71.3333 179 80.6667 137.333 100 100 c 0
 121.333 58.6667 152 30.3333 192 15 c 1
 177 -10 l 1
 135 9.33333 101.667 41 77 85 c 0
 54.3333 127 42.6667 172 42 220 c 0
 41.3333 278 57.3333 329.333 90 374 c 0
 125.333 424 171 449.333 227 450 c 0
 268.333 450.667 305.667 440.333 339 419 c 0
 372.333 397.667 395 368 407 330 c 1
 420.333 366.667 443.667 395.833 477 417.5 c 0
 510.333 439.167 547 450 587 450 c 0
 629.667 450 668.667 440 704 420 c 0
 745.333 396 766.333 364.333 767 325 c 0
 767.667 299.667 759.833 277.333 743.5 258 c 0
 727.167 238.667 706.667 226 682 220 c 1
 711.333 217.333 736.167 206.333 756.5 187 c 0
 776.833 167.667 787 143.667 787 115 c 0
EndSplineSet
EndChar
StartChar: 16
Encoding: 65557 -1
Width: 1042
Flags: HW
Fore
1001 225 m 0
 1001.67 161.667 982.667 107.333 944 62 c 0
 904 14.6667 853 -9.33333 791 -10 c 0
 717.667 -10.6667 664.333 31 631 115 c 1
 613.667 73.6667 578.333 41.6667 525 19 c 0
 481 0.333333 433 -9.33333 381 -10 c 0
 337.667 -10.6667 297.333 -3 260 13 c 0
 211.333 33 186.667 62 186 100 c 0
 185.333 116 194.333 128.667 213 138 c 0
 227.667 146 243.667 150 261 150 c 1
 306 145 l 1
 341 140 l 1
 386.333 140 409.667 158.333 411 195 c 0
 411.667 213 403.333 227.667 386 239 c 0
 371.333 249.667 354.667 255 336 255 c 2
 181 255 l 1
 181 285 l 1
 351 285 l 2
 361.667 285 372.333 290.333 383 301 c 1
 391 311 395.333 324 396 340 c 0
 396.667 361.333 383 378 355 390 c 0
 333 400 310 405 286 405 c 0
 230.667 405.667 181.333 384.667 138 342 c 0
 97.3333 302 76.6667 251.333 76 190 c 0
 75.3333 107.333 93.6667 47.3333 131 10 c 1
 111 -10 l 1
 68.3333 40.6667 46.6667 107.333 46 190 c 0
 45.3333 259.333 67.3333 319.833 112 371.5 c 0
 156.667 423.167 213 449.333 281 450 c 0
 317.667 450.667 351.667 442.667 383 426 c 0
 421 406 440.333 379 441 345 c 0
 441.667 326.333 437.333 310 428 296 c 0
 417.333 280 403.333 271.333 386 270 c 1
 404.667 270 422.333 262 439 246 c 1
 453 230 460.333 211.333 461 190 c 0
 461.667 169.333 455.333 151 442 135 c 0
 428.667 119 411.667 110.667 391 110 c 0
 389 110 381.667 111 369 113 c 0
 353.667 116.333 339.333 118.667 326 120 c 2
 281 125 l 1
 258.333 125 245 115 241 95 c 1
 241 73 260 55.6667 298 43 c 0
 324.667 34.3333 352.333 30 381 30 c 0
 433 29.3333 481.667 40.3333 527 63 c 0
 583 90.3333 611 127.667 611 175 c 2
 611 440 l 1
 661 440 l 1
 661 165 l 2
 661 125.667 674.5 93.3333 701.5 68 c 0
 728.5 42.6667 761.667 30 801 30 c 0
 850.333 30 891.667 50.6667 925 92 c 0
 955.667 130.667 971 175 971 225 c 0
 971 313.667 929.333 378.667 846 420 c 1
 866 445 l 1
 906.667 426.333 939.167 396.5 963.5 355.5 c 0
 987.833 314.5 1000.33 271 1001 225 c 0
EndSplineSet
EndChar
StartChar: 17
Encoding: 65558 -1
Width: 866
Flags: HW
Fore
783 -70 m 0
 783.667 -116.667 765 -155.333 727 -186 c 0
 691.667 -214.667 650.333 -229.333 603 -230 c 0
 559 -230.667 518.833 -218.667 482.5 -194 c 0
 446.167 -169.333 418 -136.333 398 -95 c 0
 365.333 -28.3333 318.667 5 258 5 c 1
 218 0 l 1
 264 -22 287.333 -55.3333 288 -100 c 0
 288.667 -134 274.333 -163 245 -187 c 0
 218.333 -209 187.667 -220 153 -220 c 0
 118.333 -220 89 -207.833 65 -183.5 c 0
 41 -159.167 28.6667 -129.667 28 -95 c 0
 27.3333 -63 37.6667 -35.3333 59 -12 c 0
 79.6667 9.33333 106 23.3333 138 30 c 1
 108.667 46.6667 85.3333 72.6667 68 108 c 0
 52 141.333 43.6667 182 43 230 c 0
 42.3333 276 55.3333 318.667 82 358 c 0
 106.667 395.333 140.333 424.333 183 445 c 1
 203 420 l 1
 170.333 401.333 145.5 374.833 128.5 340.5 c 0
 111.5 306.167 103 269.333 103 230 c 0
 103 182 114.333 138.667 137 100 c 0
 163 54 198.333 30.6667 243 30 c 0
 271 29.3333 296.333 48 319 86 c 0
 338.333 118 349.667 162.667 353 220 c 0
 356.333 280.667 378 334 418 380 c 0
 454.667 422.667 498 444.333 548 445 c 0
 608.667 445.667 661.333 423 706 377 c 0
 750.667 331 773 275.333 773 210 c 0
 773 145.333 753 92 713 50 c 1
 759 22 782.333 -18 783 -70 c 0
718 210 m 0
 718.667 253.333 698.667 300 658 350 c 1
 621.333 333.333 592.667 305.667 572 267 c 0
 553.333 231.667 543.667 192.667 543 150 c 0
 542.333 122 548.333 97 561 75 c 0
 576.333 48.3333 597 35 623 35 c 0
 649 35 671.333 52 690 86 c 0
 708 118 717.333 159.333 718 210 c 0
723 -70 m 0
 723 -24 711.333 9.33333 688 30 c 1
 669.333 7.33333 646 -4.33333 618 -5 c 0
 594.667 -5.66667 573.667 4.66667 555 26 c 0
 540.333 42.6667 529 63.6667 521 89 c 0
 516.333 105 513.667 125.333 513 150 c 0
 512.333 196.667 523 240.167 545 280.5 c 0
 567 320.833 598 350.667 638 370 c 1
 614 392.667 584 404.333 548 405 c 0
 502.667 405.667 464.667 383.667 434 339 c 0
 408.667 301.667 393.333 258.667 388 210 c 1
 388 125.333 363 63.6667 313 25 c 1
 375 2.33333 416.667 -31 438 -75 c 0
 476.667 -155 531.667 -195 603 -195 c 0
 636.333 -195 664.667 -182.5 688 -157.5 c 0
 711.333 -132.5 723 -103.333 723 -70 c 0
228 -95 m 0
 228.667 -69 220.333 -46.8333 203 -28.5 c 0
 185.667 -10.1667 164 -0.666667 138 0 c 0
 114 0.666667 94.3333 -10.3333 79 -33 c 0
 65.6667 -52.3333 58.6667 -74.6667 58 -100 c 0
 57.3333 -123.333 64.6667 -143.167 80 -159.5 c 0
 95.3333 -175.833 114.667 -184.333 138 -185 c 0
 163.333 -185.667 184.5 -177.167 201.5 -159.5 c 0
 218.5 -141.833 227.333 -120.333 228 -95 c 0
EndSplineSet
EndChar
StartChar: 18
Encoding: 65559 -1
Width: 1308
Flags: HW
Fore
1280 0 m 1
 585 0 l 1
 585 30 l 1
 611 68 624.333 121.333 625 190 c 0
 625.667 242.667 612.667 290.667 586 334 c 0
 555.333 384 515 409.333 465 410 c 0
 449 410 433.333 407.667 418 403 c 0
 410 399.667 400.667 395.333 390 390 c 1
 420.667 369.333 445.667 341.667 465 307 c 0
 484.333 272.333 494.333 236.667 495 200 c 0
 495.667 151.333 484.667 106.333 462 65 c 0
 435.333 15.6667 399.667 -9.33333 355 -10 c 0
 311 -10.6667 276.333 12.6667 251 60 c 0
 230.333 98.6667 220 142 220 190 c 0
 220 284.667 251.667 349.667 315 385 c 1
 299 397.667 272.333 404.333 235 405 c 0
 185 405.667 143 385.333 109 344 c 0
 77 306 60.6667 261.333 60 210 c 0
 59.3333 128.667 81 62 125 10 c 1
 105 -10 l 1
 55 50 30 123.333 30 210 c 0
 30 277.333 50.6667 334 92 380 c 0
 133.333 426 184.333 449.333 245 450 c 0
 284.333 450.667 321 437.333 355 410 c 1
 387 436 423.667 449.333 465 450 c 0
 530.333 450.667 584.333 423 627 367 c 0
 665 316.333 684.333 257.333 685 190 c 0
 685.667 122 670.667 68.6667 640 30 c 1
 885 30 l 1
 885 250 l 2
 885 304.667 903 351.5 939 390.5 c 0
 975 429.5 1020.33 449.333 1075 450 c 0
 1127.67 450.667 1174.33 435 1215 403 c 0
 1258.33 369 1280 326.333 1280 275 c 2
 1280 0 l 1
1250 30 m 1
 1250 255 l 2
 1250 299 1233.67 335.667 1201 365 c 0
 1168.33 394.333 1129.67 409.333 1085 410 c 0
 1043.67 410.667 1009.17 395.333 981.5 364 c 0
 953.833 332.667 940 296.333 940 255 c 2
 940 30 l 1
 1250 30 l 1
440 200 m 0
 441.333 268 408 324.667 340 370 c 1
 280 328 250 268 250 190 c 0
 250 153.333 256.667 119.667 270 89 c 0
 288 50.3333 313 30.6667 345 30 c 0
 371 29.3333 393.167 45.3333 411.5 78 c 0
 429.833 110.667 439.333 151.333 440 200 c 0
EndSplineSet
EndChar
StartChar: 19
Encoding: 65560 -1
Width: 547
Flags: HW
Fore
479 -80 m 0
 479.667 -116 456.833 -147.333 410.5 -174 c 0
 364.167 -200.667 307 -214.333 239 -215 c 0
 165 -215.667 101.667 -190.667 49 -140 c 1
 69 -115 l 1
 115.667 -147.667 172.333 -164.333 239 -165 c 0
 279 -165.667 316 -158.667 350 -144 c 0
 395.333 -126 418.333 -99.6667 419 -65 c 0
 419.667 -47 412.833 -31.6667 398.5 -19 c 0
 384.167 -6.33333 367.667 4.33681e-19 349 0 c 2
 59 0 l 1
 59 30 l 1
 349 30 l 2
 370.333 30 387.333 38.3333 400 55 c 0
 412 69.6667 418.333 88 419 110 c 0
 419.667 130 410.833 148.5 392.5 165.5 c 0
 374.167 182.5 353 190.667 329 190 c 2
 300 189 l 2
 298 189 293 188.667 285 188 c 0
 277 187.333 269.667 186 263 184 c 1
 239 182 204.333 180.667 159 180 c 0
 123 179.333 92.5 191 67.5 215 c 0
 42.5 239 29.6667 269 29 305 c 0
 28.3333 349.667 55 385.333 109 412 c 0
 153 434 199.667 445 249 445 c 0
 330.333 445 397 420 449 370 c 1
 429 350 l 1
 378.333 392.667 321.667 414.333 259 415 c 0
 217.667 415.667 179 407.667 143 391 c 0
 97 370.333 74 341.667 74 305 c 0
 74 285 83.6667 268.667 103 256 c 0
 119 245.333 137.667 240 159 240 c 2
 199 240 l 2
 228.333 240 248.333 241.667 259 245 c 1
 329 255 l 1
 367 255 400.667 244.667 430 224 c 0
 462 201.333 478.333 171.667 479 135 c 0
 479.667 77.6667 451.333 39.3333 394 20 c 1
 450 -0.666667 478.333 -34 479 -80 c 0
EndSplineSet
EndChar
StartChar: 20
Encoding: 65561 -1
Width: 890
Flags: HW
Fore
851 175 m 0
 851 131 840.333 91.6667 819 57 c 0
 794.333 16.3333 761.667 -4.33333 721 -5 c 0
 679.667 -5.66667 646.667 15.6667 622 59 c 0
 602 95 591.667 135.333 591 180 c 0
 590.333 242.667 618.667 307.667 676 375 c 1
 637.333 397.667 592.333 409.333 541 410 c 0
 477 410.667 427 404 391 390 c 1
 425 366.667 452.5 337.333 473.5 302 c 0
 494.5 266.667 505.333 229.333 506 190 c 0
 506.667 142 495 99 471 61 c 0
 443 17 406.333 -5 361 -5 c 0
 321.667 -5 287.833 13.6667 259.5 51 c 0
 231.167 88.3333 216.667 134.667 216 190 c 0
 215.333 229.333 224.333 266 243 300 c 0
 261.667 334 287.667 360.667 321 380 c 1
 298.333 400 271.667 410 241 410 c 0
 190.333 410 149.333 387 118 341 c 0
 90 300.333 76 253.333 76 200 c 0
 76 114 97.6667 52.3333 141 15 c 1
 121 -5 l 1
 98.3333 13.6667 80 41.3333 66 78 c 0
 53.3333 112 46.6667 152.667 46 200 c 0
 45.3333 264 63.6667 320 101 368 c 0
 141.667 419.333 193.333 445 256 445 c 0
 305.333 445 343.667 433.333 371 410 c 1
 421 432.667 476 444.333 536 445 c 0
 611.333 445.667 666.333 435.667 701 415 c 1
 713.667 437 720.333 458.667 721 480 c 0
 721.667 503.333 714.333 523.167 699 539.5 c 0
 683.667 555.833 664.333 564.333 641 565 c 0
 601.667 565.667 568.333 552.333 541 525 c 1
 521 550 l 1
 555 590 595 610 641 610 c 0
 672.333 610 699.167 599.5 721.5 578.5 c 0
 743.833 557.5 755.333 531.333 756 500 c 0
 756.667 454 745 420.667 721 400 c 1
 758.333 373.333 789 340.667 813 302 c 0
 838.333 260 851 217.667 851 175 c 0
791 185 m 0
 791.667 220.333 784 253.833 768 285.5 c 0
 752 317.167 729.667 342 701 360 c 1
 648.333 306 621.667 244.333 621 175 c 0
 621 143 627.333 113 640 85 c 0
 656 49 678 30.6667 706 30 c 0
 733.333 29.3333 755.333 49.3333 772 90 c 0
 784 121.333 790.333 153 791 185 c 0
446 170 m 0
 446 250 411 315 341 365 c 1
 311 349 287.333 324.333 270 291 c 0
 254.667 260.333 246.667 226.667 246 190 c 0
 245.333 153.333 252.667 119.333 268 88 c 0
 286.667 50 312.667 30.6667 346 30 c 0
 372.667 29.3333 396 42.6667 416 70 c 0
 436 97.3333 446 130.667 446 170 c 0
EndSplineSet
EndChar
StartChar: 21
Encoding: 65562 -1
Width: 1042
Flags: HW
Fore
1001 225 m 0
 1001.67 161.667 982.667 107.333 944 62 c 0
 904 14.6667 853 -9.33333 791 -10 c 0
 717.667 -10.6667 664.333 31 631 115 c 1
 613.667 73.6667 578.333 41.6667 525 19 c 0
 481 0.333333 433 -9.33333 381 -10 c 0
 337.667 -10.6667 297.333 -3 260 13 c 0
 211.333 33 186.667 62 186 100 c 0
 185.333 116 194.333 128.667 213 138 c 0
 227.667 146 243.667 150 261 150 c 1
 306 145 l 1
 341 140 l 1
 386.333 140 409.667 158.333 411 195 c 0
 411.667 213 403.333 227.667 386 239 c 0
 371.333 249.667 354.667 255 336 255 c 2
 181 255 l 1
 181 285 l 1
 351 285 l 2
 361.667 285 372.333 290.333 383 301 c 1
 391 311 395.333 324 396 340 c 0
 396.667 361.333 383 378 355 390 c 0
 333 400 310 405 286 405 c 0
 230.667 405.667 181.333 384.667 138 342 c 0
 97.3333 302 76.6667 251.333 76 190 c 0
 75.3333 107.333 93.6667 47.3333 131 10 c 1
 111 -10 l 1
 68.3333 40.6667 46.6667 107.333 46 190 c 0
 45.3333 259.333 67.3333 319.833 112 371.5 c 0
 156.667 423.167 213 449.333 281 450 c 0
 317.667 450.667 351.667 442.667 383 426 c 0
 421 406 440.333 379 441 345 c 0
 441.667 326.333 437.333 310 428 296 c 0
 417.333 280 403.333 271.333 386 270 c 1
 404.667 270 422.333 262 439 246 c 1
 453 230 460.333 211.333 461 190 c 0
 461.667 169.333 455.333 151 442 135 c 0
 428.667 119 411.667 110.667 391 110 c 0
 389 110 381.667 111 369 113 c 0
 353.667 116.333 339.333 118.667 326 120 c 2
 281 125 l 1
 258.333 125 245 115 241 95 c 1
 241 73 260 55.6667 298 43 c 0
 324.667 34.3333 352.333 30 381 30 c 0
 433 29.3333 481.667 40.3333 527 63 c 0
 583 90.3333 611 127.667 611 175 c 2
 611 440 l 1
 661 440 l 1
 661 165 l 2
 661 125.667 674.5 93.3333 701.5 68 c 0
 728.5 42.6667 761.667 30 801 30 c 0
 850.333 30 891.667 50.6667 925 92 c 0
 955.667 130.667 971 175 971 225 c 0
 971 313.667 929.333 378.667 846 420 c 1
 866 445 l 1
 906.667 426.333 939.167 396.5 963.5 355.5 c 0
 987.833 314.5 1000.33 271 1001 225 c 0
EndSplineSet
EndChar
StartChar: 22
Encoding: 65563 -1
Width: 1023
Flags: HW
Fore
963 0 m 1
 58 0 l 1
 58 240 l 2
 58 300.667 82.3333 350.667 131 390 c 0
 177 426.667 231 445 293 445 c 0
 341 445 384.333 433.667 423 411 c 0
 464.333 386.333 492.667 352.667 508 310 c 1
 523.333 353.333 553.667 387.333 599 412 c 0
 639 433.333 683.667 444.333 733 445 c 0
 793.667 445.667 846.333 428 891 392 c 0
 939 353.333 963 304.333 963 245 c 2
 963 0 l 1
928 30 m 1
 928 240 l 2
 928 290.667 907.667 333 867 367 c 0
 829 398.333 784.333 414.333 733 415 c 0
 693 415.667 654.667 405.667 618 385 c 1
 638 387 l 1
 678.667 387 712.667 369 740 333 c 0
 765.333 299.667 778 262 778 220 c 0
 778 179.333 766.5 142 743.5 108 c 0
 720.5 74 690.333 48 653 30 c 1
 928 30 l 1
713 230 m 0
 713.667 262 706 291.333 690 318 c 0
 672 348.667 648 364.333 618 365 c 0
 592 365.667 569 351 549 321 c 0
 535 297.667 524.667 270.667 518 240 c 1
 518 30 l 1
 588 30 l 1
 628 44 659.333 70.3333 682 109 c 0
 702 144.333 712.333 184.667 713 230 c 0
488 30 m 1
 488 240 l 2
 488 289.333 469.667 330.667 433 364 c 0
 396.333 397.333 353 414.333 303 415 c 0
 253 415.667 214.667 405.667 188 385 c 1
 208 387 l 1
 248.667 387 282.667 369 310 333 c 0
 335.333 299.667 348 262 348 220 c 0
 348 140 309.667 76.6667 233 30 c 1
 488 30 l 1
283 230 m 0
 283.667 267.333 274.167 299.167 254.5 325.5 c 0
 234.833 351.833 211 365 183 365 c 1
 155 361 132.167 346.5 114.5 321.5 c 0
 96.8333 296.5 88 269.333 88 240 c 2
 88 30 l 1
 178 30 l 1
 209.333 52.6667 235 82 255 118 c 0
 273 150.667 282.333 188 283 230 c 0
EndSplineSet
EndChar
StartChar: 23
Encoding: 65564 -1
Width: 927
Flags: HW
Fore
815 -195 m 1
 75 -195 l 1
 75 -180 l 1
 700 0 l 1
 5 0 l 1
 5 30 l 1
 275 30 l 2
 308.333 30 335.333 43.6667 356 71 c 0
 374.667 96.3333 384.333 126 385 160 c 0
 385.667 195.333 371 224.667 341 248 c 0
 313.667 268.667 281.667 279.333 245 280 c 0
 207.667 280.667 175.833 269.5 149.5 246.5 c 0
 123.167 223.5 110 194.667 110 160 c 0
 110 140.667 115 124 125 110 c 1
 100 95 l 1
 87.3333 109.667 80.6667 131.333 80 160 c 0
 79.3333 206 98 244.667 136 276 c 0
 171.333 304.667 212.667 319.333 260 320 c 0
 308 320.667 350.833 306 388.5 276 c 0
 426.167 246 445 207.333 445 160 c 0
 445 100.667 423.333 57.3333 380 30 c 1
 765 30 l 1
 765 440 l 1
 815 440 l 1
 815 -195 l 1
765 -165 m 1
 765 -10 l 1
 235 -165 l 1
 765 -165 l 1
EndSplineSet
EndChar
StartChar: 24
Encoding: 65565 -1
Width: 620
Flags: HW
Fore
534 -115 m 2
 534 -145 522.5 -169.833 499.5 -189.5 c 0
 476.5 -209.167 449.667 -219.333 419 -220 c 0
 384.333 -220.667 355.333 -207.667 332 -181 c 0
 312.667 -158.333 299.667 -128.333 293 -91 c 0
 285.667 -49.6667 266 -19.3333 234 0 c 1
 159 0 l 1
 185.667 -4.66667 206.5 -17.3333 221.5 -38 c 0
 236.5 -58.6667 244 -82.6667 244 -110 c 0
 244 -141.333 233.5 -167.333 212.5 -188 c 0
 191.5 -208.667 165.333 -219.333 134 -220 c 0
 103.333 -220.667 77.5 -209.5 56.5 -186.5 c 0
 35.5 -163.5 24.6667 -136.333 24 -105 c 0
 23.3333 -61 41.6667 -26 79 0 c 1
 54 0 l 1
 54 220 l 2
 54 284.667 77.6667 338.333 125 381 c 0
 172.333 423.667 228.667 445 294 445 c 0
 358.667 445 414.833 423.5 462.5 380.5 c 0
 510.167 337.5 534 284 534 220 c 2
 534 -115 l 2
484 30 m 1
 484 220 l 2
 484 271.333 466 314.833 430 350.5 c 0
 394 386.167 350.333 404.333 299 405 c 0
 261.667 405.667 233.333 399 214 385 c 1
 250 385 279.667 367.667 303 333 c 0
 323.667 301.667 334 267.333 334 230 c 0
 334 139.333 302.333 72.6667 239 30 c 1
 484 30 l 1
274 230 m 0
 274.667 266.667 265.5 299.167 246.5 327.5 c 0
 227.5 355.833 205 370 179 370 c 1
 115.667 334 84 284 84 220 c 2
 84 30 l 1
 179 30 l 1
 211.667 45.3333 236.333 74 253 116 c 0
 266.333 149.333 273.333 187.333 274 230 c 0
484 -120 m 2
 484 0 l 1
 279 0 l 1
 303.667 -16.6667 322 -45 334 -85 c 0
 353.333 -150.333 383.333 -183.667 424 -185 c 0
 440.667 -185.667 454.833 -179.167 466.5 -165.5 c 0
 478.167 -151.833 484 -136.667 484 -120 c 2
189 -110 m 0
 189.667 -87.3333 183.667 -67.5 171 -50.5 c 0
 158.333 -33.5 141 -25 119 -25 c 0
 99 -25 82.6667 -34.3333 70 -53 c 0
 60 -69.6667 54.6667 -88.6667 54 -110 c 0
 53.3333 -130 59.8333 -147.333 73.5 -162 c 0
 87.1667 -176.667 104 -184.333 124 -185 c 0
 143.333 -185.667 158.833 -178.333 170.5 -163 c 0
 182.167 -147.667 188.333 -130 189 -110 c 0
EndSplineSet
EndChar
StartChar: 25
Encoding: 65566 -1
Width: 798
Flags: HW
Fore
759 195 m 0
 759.667 147.667 747.667 104 723 64 c 0
 695 18.6667 658.667 -4.33333 614 -5 c 0
 578 -5.66667 549 12.6667 527 50 c 0
 508.333 82 499 117 499 155 c 0
 498.333 240.333 531.667 317 599 385 c 1
 579 401 555.667 409.333 529 410 c 0
 494.333 410.667 465.667 397.833 443 371.5 c 0
 420.333 345.167 409 314.667 409 280 c 2
 409 0 l 1
 359 0 l 1
 359 280 l 2
 359 316.667 346.5 347.333 321.5 372 c 0
 296.5 396.667 265.667 409.333 229 410 c 0
 181.667 410.667 143.333 390.333 114 349 c 0
 87.3333 311.667 74 268.667 74 220 c 0
 74 126.667 105.667 58.3333 169 15 c 1
 149 -5 l 1
 98.3333 23 65.6667 73.6667 51 147 c 0
 46.3333 169 44 193.333 44 220 c 0
 43.3333 278.667 60.6667 330 96 374 c 0
 134 421.333 181.667 445 239 445 c 0
 311 445 361 411.667 389 345 c 1
 399 375 418.333 399 447 417 c 0
 475.667 435 506.333 444.333 539 445 c 0
 562.333 445.667 589 437.333 619 420 c 1
 629 441.333 634 464.667 634 490 c 0
 634 508 626.167 522.5 610.5 533.5 c 0
 594.833 544.5 577.667 550 559 550 c 0
 521.667 550 491.667 536.667 469 510 c 1
 449 530 l 1
 483 570 519.667 590 559 590 c 0
 589 590 614.667 580.667 636 562 c 0
 657.333 543.333 668.333 519.333 669 490 c 0
 669.667 450 661.333 420 644 400 c 1
 659.333 390 675 376.333 691 359 c 0
 719 328.333 739 293 751 253 c 0
 756.333 235.667 759 216.333 759 195 c 0
699 195 m 0
 699.667 273.667 673 332 619 370 c 1
 559 310 529 236.667 529 150 c 0
 529 121.333 535 95.6667 547 73 c 0
 562.333 45 583 30.6667 609 30 c 0
 639.667 29.3333 663.333 50.3333 680 93 c 0
 692.667 125 699 159 699 195 c 0
EndSplineSet
EndChar
StartChar: 26
Encoding: 65567 -1
Width: 878
Flags: HW
Fore
781 -70 m 2
 781 -112 768 -149 742 -181 c 0
 716 -213 682.333 -229.333 641 -230 c 0
 575 -230.667 520 -185.667 476 -95 c 0
 461.333 -65 441.5 -41.6667 416.5 -25 c 0
 391.5 -8.33333 364.667 -8.67362e-19 336 0 c 2
 296 0 l 1
 342 -17.3333 365.333 -50.6667 366 -100 c 0
 366.667 -134.667 354 -163.167 328 -185.5 c 0
 302 -207.833 271.333 -219.333 236 -220 c 0
 202 -220.667 172.833 -208.667 148.5 -184 c 0
 124.167 -159.333 111.667 -129.667 111 -95 c 0
 110.333 -63 120 -35.8333 140 -13.5 c 0
 160 8.83333 186.167 23 218.5 29 c 0
 250.833 35 277.5 49.3333 298.5 72 c 0
 319.5 94.6667 330.333 122.333 331 155 c 0
 331.667 189.667 318.833 219 292.5 243 c 0
 266.167 267 235.667 279.333 201 280 c 0
 162.333 280.667 130.167 267.333 104.5 240 c 0
 78.8333 212.667 66 179.333 66 140 c 0
 66 89.3333 84.3333 47.6667 121 15 c 1
 101 -5 l 1
 70.3333 11.6667 50.3333 44.6667 41 94 c 0
 37.6667 110.667 36 129.333 36 150 c 0
 35.3333 196.667 52.5 236.667 87.5 270 c 0
 122.5 303.333 163.667 320 211 320 c 0
 259.667 320 301.667 303.667 337 271 c 0
 372.333 238.333 390.333 198 391 150 c 0
 391.667 92.6667 371.667 52.6667 331 30 c 1
 731 30 l 1
 731 440 l 1
 781 440 l 1
 781 -70 l 2
731 -70 m 2
 731 0 l 1
 436 0 l 1
 470.667 -8.66667 497.333 -33.6667 516 -75 c 0
 529.333 -104.333 545.667 -130 565 -152 c 0
 590.333 -180.667 615.667 -195 641 -195 c 0
 668.333 -195 691 -180.333 709 -151 c 0
 723.667 -126.333 731 -99.3333 731 -70 c 2
306 -95 m 0
 306.667 -70.3333 298.833 -48.5 282.5 -29.5 c 0
 266.167 -10.5 245.667 -0.666667 221 0 c 0
 197 0.666667 177.333 -10.3333 162 -33 c 0
 148.667 -52.3333 141.667 -74.6667 141 -100 c 0
 140.333 -123.333 147.667 -143.167 163 -159.5 c 0
 178.333 -175.833 197.667 -184.333 221 -185 c 0
 244.333 -185.667 264.167 -176.833 280.5 -158.5 c 0
 296.833 -140.167 305.333 -119 306 -95 c 0
EndSplineSet
EndChar
StartChar: 27
Encoding: 65568 -1
Width: 873
Flags: HW
Fore
782 -60 m 0
 782 -110.667 763.167 -152.333 725.5 -185 c 0
 687.833 -217.667 643.333 -234.333 592 -235 c 0
 546.667 -235.667 505.333 -222.5 468 -195.5 c 0
 430.667 -168.5 403.667 -133.333 387 -90 c 0
 363.667 -28.6667 327 3 277 5 c 1
 227 0 l 1
 245.667 -4.66667 260.667 -18 272 -40 c 0
 282 -58.6667 287 -78.6667 287 -100 c 0
 287 -134 273.167 -162.5 245.5 -185.5 c 0
 217.833 -208.5 186.667 -220 152 -220 c 0
 117.333 -220 88 -207.167 64 -181.5 c 0
 40 -155.833 27.6667 -125.333 27 -90 c 0
 26.3333 -58.6667 36 -31.3333 56 -8 c 0
 74 13.3333 99.3333 27.6667 132 35 c 1
 72.6667 69 42.6667 127.333 42 210 c 0
 41.3333 264 54.6667 312.667 82 356 c 0
 111.333 402 151.333 431.667 202 445 c 1
 217 420 l 1
 173.667 404 138.833 378 112.5 342 c 0
 86.1667 306 72.6667 265.333 72 220 c 0
 71.3333 172.667 85 131 113 95 c 0
 143 55.6667 181 35.6667 227 35 c 0
 275.667 34.3333 316.667 55 350 97 c 0
 381.333 135.667 397 180 397 230 c 0
 397 285.333 413 334 445 376 c 0
 479.667 422 523.667 445 577 445 c 0
 632.333 445 680.167 424 720.5 382 c 0
 760.833 340 781.333 289.333 782 230 c 0
 782.667 150.667 762.667 90.6667 722 50 c 1
 762 28 782 -8.66667 782 -60 c 0
747 230 m 0
 747.667 274.667 732.833 314.167 702.5 348.5 c 0
 672.167 382.833 635.333 400 592 400 c 0
 548.667 400 514.333 378.333 489 335 c 0
 467.667 298.333 457 256.667 457 210 c 0
 457 167.333 448 129.667 430 97 c 0
 409.333 60.3333 380 36.3333 342 25 c 1
 387.333 9 417.333 -26 432 -80 c 0
 441.333 -116 460.833 -145 490.5 -167 c 0
 520.167 -189 554 -200 592 -200 c 0
 628 -200 658 -185.333 682 -156 c 0
 704.667 -128.667 716.333 -96.6667 717 -60 c 0
 717.667 -29.3333 707.667 -2.66667 687 20 c 1
 673 8.66667 651.333 -3 622 -15 c 1
 602 5 l 1
 646 25.6667 681 56.3333 707 97 c 0
 733 137.667 746.333 182 747 230 c 0
227 -90 m 0
 227.667 -64.6667 220.667 -42.5 206 -23.5 c 0
 191.333 -4.5 171.667 5 147 5 c 0
 123 5 102.167 -3.5 84.5 -20.5 c 0
 66.8333 -37.5 57.6667 -60.6667 57 -90 c 0
 56.3333 -116 64.6667 -138.167 82 -156.5 c 0
 99.3333 -174.833 121 -184.333 147 -185 c 0
 169.667 -185.667 189 -175.333 205 -154 c 0
 219 -134.667 226.333 -113.333 227 -90 c 0
EndSplineSet
EndChar
StartChar: 28
Encoding: 65569 -1
Width: 846
Flags: HW
Fore
695 240 m 1
 695 296 679 346 647 390 c 0
 611.667 438 567 462.333 513 463 c 0
 467 463.667 433.333 458.5 412 447.5 c 0
 390.667 436.5 368.667 412.333 346 375 c 1
 326 405.667 303.333 427.333 278 440 c 1
 261.333 446.667 239.667 450 213 450 c 0
 152.333 450.667 105.333 427.667 72 381 c 0
 43.3333 340.333 28.6667 288.333 28 225 c 0
 27.3333 133 56.3333 58.6667 115 2 c 1
 133 1 l 1
 148 2 l 1
 89.3333 46 59.6667 120.333 59 225 c 0
 57.6667 356.333 115.667 422 233 422 c 0
 259 422 281 409.667 299 385 c 0
 315 362.333 323 337.667 323 311 c 2
 323 22 l 1
 368 22 l 1
 368 311 l 2
 368 350.333 382 381.333 410 404 c 0
 436 424.667 469 435.333 509 436 c 0
 562.333 436.667 602 416.333 628 375 c 0
 650 341.667 661.333 296.667 662 240 c 1
 570 240 l 2
 544 240 523.333 231 508 213 c 1
 496 193.667 489.667 169.667 489 141 c 0
 488.333 110.333 495 83.3333 509 60 c 0
 525 32 547.333 18 576 18 c 0
 654.667 18 694.333 84.3333 695 217 c 1
 755 217 l 1
 755 240 l 1
 695 240 l 1
662 217 m 1
 662 155 657.333 112.667 648 90 c 0
 636 62 615 47.6667 585 47 c 0
 543 46.3333 519 75 513 133 c 1
 513 189 540.667 217 596 217 c 2
 662 217 l 1
EndSplineSet
EndChar
StartChar: 29
Encoding: 65570 -1
Width: 1231
Flags: HW
Fore
1135 -70 m 2
 1135 -110 1124.33 -145.667 1103 -177 c 0
 1079 -211.667 1048 -229.333 1010 -230 c 0
 960.667 -230.667 916.667 -219 878 -195 c 0
 839.333 -171 813.333 -139.333 800 -100 c 0
 790 -70.6667 777.333 -46.6667 762 -28 c 0
 746.667 -9.33333 732.667 -8.67362e-19 720 0 c 2
 630 0 l 1
 670 -18 690 -49.6667 690 -95 c 0
 690 -130.333 676.5 -159.833 649.5 -183.5 c 0
 622.5 -207.167 591 -219.333 555 -220 c 0
 518.333 -220.667 486.667 -209.167 460 -185.5 c 0
 433.333 -161.833 420 -131.667 420 -95 c 0
 420 -61 436.667 -29.3333 470 0 c 1
 445 0 l 1
 445 285 l 2
 445 323.667 425.667 355 387 379 c 0
 353.667 399 316.333 409.333 275 410 c 0
 224.333 410.667 177.667 390.167 135 348.5 c 0
 92.3333 306.833 70.6667 260.667 70 210 c 0
 70 195.333 71 183.667 73 175 c 1
 77.6667 201.667 91.3333 222.5 114 237.5 c 0
 136.667 252.5 162 260 190 260 c 0
 226.667 260 258.167 247.5 284.5 222.5 c 0
 310.833 197.5 324.333 166.667 325 130 c 0
 325.667 91.3333 312.333 59.1667 285 33.5 c 0
 257.667 7.83333 224.333 -5 185 -5 c 0
 145.667 -5 111.833 13.6667 83.5 51 c 0
 55.1667 88.3333 40.6667 134.667 40 190 c 0
 39.3333 258.667 61 317.667 105 367 c 0
 150.333 419 207 445 275 445 c 0
 366.333 445 431.333 415 470 355 c 1
 504 415 555.667 445 625 445 c 0
 683 445 733.167 425.333 775.5 386 c 0
 817.833 346.667 839.333 298 840 240 c 0
 840.667 145.333 809 75.3333 745 30 c 1
 1085 30 l 1
 1085 440 l 1
 1135 440 l 1
 1135 -70 l 2
780 240 m 0
 780 285.333 765.667 324.667 737 358 c 0
 706.333 392.667 669 410 625 410 c 0
 589.667 410 559.167 398.667 533.5 376 c 0
 507.833 353.333 495 324.667 495 290 c 2
 495 30 l 1
 695 30 l 1
 724.333 45.3333 746.667 76.3333 762 123 c 0
 774 160.333 780 199.333 780 240 c 0
1085 -75 m 2
 1085 0 l 1
 785 0 l 1
 805 -4 825 -32.3333 845 -85 c 0
 857 -116.333 874.667 -142 898 -162 c 0
 924 -183.333 953 -194.333 985 -195 c 0
 1015 -195.667 1039.67 -183 1059 -157 c 0
 1076.33 -133 1085 -105.667 1085 -75 c 2
630 -95 m 0
 630.667 -69 622.333 -46.8333 605 -28.5 c 0
 587.667 -10.1667 566 -0.666667 540 0 c 0
 513.333 0.666667 491.833 -9 475.5 -29 c 0
 459.167 -49 450.667 -72.6667 450 -100 c 0
 449.333 -124.667 458.667 -144.833 478 -160.5 c 0
 497.333 -176.167 519.667 -184.333 545 -185 c 0
 569 -185.667 589 -176.833 605 -158.5 c 0
 621 -140.167 629.333 -119 630 -95 c 0
265 130 m 0
 265.667 156 257.333 178.167 240 196.5 c 0
 222.667 214.833 201 224.333 175 225 c 0
 149.667 225.667 128.5 216.5 111.5 197.5 c 0
 94.5 178.5 85.6667 156 85 130 c 0
 84.3333 103.333 92.5 80.1667 109.5 60.5 c 0
 126.5 40.8333 148.333 30.6667 175 30 c 0
 201.667 29.3333 223.167 39 239.5 59 c 0
 255.833 79 264.333 102.667 265 130 c 0
EndSplineSet
EndChar
StartChar: 30
Encoding: 65571 -1
Width: 1076
Flags: HW
Fore
1034 200 m 0
 1034.67 102.667 1004.67 34.3333 944 -5 c 1
 919 20 l 1
 955 56 973.333 116 974 200 c 0
 974.667 244.667 960 284.167 930 318.5 c 0
 900 352.833 863 370 819 370 c 0
 778.333 370 742.833 358.833 712.5 336.5 c 0
 682.167 314.167 661 283.667 649 245 c 1
 739 245 l 2
 775.667 245 808 233.667 836 211 c 0
 864.667 186.333 879 156 879 120 c 0
 879 85.3333 867.667 55.8333 845 31.5 c 0
 822.333 7.16667 793.667 -5 759 -5 c 0
 711.667 -5 675.333 10.6667 650 42 c 0
 621.333 76.6667 608.667 122 612 178 c 1
 614 215 l 1
 539 215 l 1
 539 162.333 526.667 114.667 502 72 c 0
 472 21.3333 432.667 -4.33333 384 -5 c 0
 340 -5.66667 301.667 13 269 51 c 1
 241 14.3333 201 -4.33333 149 -5 c 0
 114.333 -5.66667 85.8333 6.33333 63.5 31 c 0
 41.1667 55.6667 29.6667 85.3333 29 120 c 0
 28.3333 154 39.8333 183.333 63.5 208 c 0
 87.1667 232.667 115.667 245 149 245 c 2
 224 245 l 1
 224 295 237 339.333 263 378 c 0
 292.333 422 331 444.333 379 445 c 0
 427 445.667 466.333 423.667 497 379 c 0
 524.333 340.333 538.333 295.667 539 245 c 1
 619 245 l 1
 631 292.333 655.333 331.5 692 362.5 c 0
 728.667 393.5 771 409.333 819 410 c 0
 877.667 410.667 928 390.5 970 349.5 c 0
 1012 308.5 1033.33 258.667 1034 200 c 0
819 130 m 0
 819 154 810 174.167 792 190.5 c 0
 774 206.833 753 215 729 215 c 2
 644 215 l 1
 643 183 l 2
 641.667 141.667 648.667 108 664 82 c 0
 682 51.3333 710.333 35.6667 749 35 c 0
 771 34.3333 788.667 45 802 67 c 0
 813.333 85.6667 819 106.667 819 130 c 0
479 245 m 1
 479 283.667 469.667 318.667 451 350 c 0
 429 386.667 400 405 364 405 c 0
 328.667 405 300.667 386.333 280 349 c 0
 263.333 318.333 254.667 283.667 254 245 c 1
 479 245 l 1
479 215 m 1
 254 215 l 1
 254 165 264.667 122.667 286 88 c 0
 307.333 53.3333 333.333 35.6667 364 35 c 0
 401.333 34.3333 430.667 56 452 100 c 0
 469.333 135.333 478.333 173.667 479 215 c 1
259 72 m 1
 237 99.3333 225.333 147 224 215 c 1
 169 215 l 2
 145.667 215 126.5 205.167 111.5 185.5 c 0
 96.5 165.833 89 144 89 120 c 0
 89 95.3333 96.3333 74.3333 111 57 c 0
 125.667 39.6667 145 30.6667 169 30 c 0
 190.333 29.3333 220.333 43.3333 259 72 c 1
EndSplineSet
EndChar
StartChar: 31
Encoding: 65572 -1
Width: 855
Flags: HW
Fore
796 253 m 0
 796.667 213.667 787.167 172.167 767.5 128.5 c 0
 747.833 84.8333 723.333 49.6667 694 23 c 1
 694 -232 l 1
 161 -232 l 1
 160 -227 l 1
 627 14 l 1
 629 10 l 1
 593 -2 561.333 -8 534 -8 c 2
 520 -8 l 1
 473 -7 l 2
 469 -7 463.333 -6.66667 456 -6 c 0
 451.333 -6 443.333 -3.66667 432 1 c 1
 415.333 -3.66667 398.667 -6.66667 382 -8 c 2
 328 -12 l 2
 247.333 -18 175.333 5.66667 112 59 c 0
 52 109.667 21.6667 176.667 21 260 c 0
 20.3333 314.667 31.3333 361.667 54 401 c 0
 80.6667 449 119.333 473.333 170 474 c 0
 228.667 474.667 268 441 288 373 c 1
 300 403 319 427.167 345 445.5 c 0
 371 463.833 400 473.333 432 474 c 0
 486 474.667 532.5 457.667 571.5 423 c 0
 610.5 388.333 630.333 344.333 631 291 c 0
 631.667 233.667 617.5 179.333 588.5 128 c 0
 559.5 76.6667 523.667 39.3333 481 16 c 1
 480 20 l 1
 558 20 622.667 40 674 80 c 0
 730 124 758.333 184 759 260 c 0
 759 292.667 749 329.333 729 370 c 0
 709 410.667 686 440 660 458 c 1
 660 467 l 1
 662 470.333 666.333 473 673 475 c 1
 730.333 441.667 768.667 389.667 788 319 c 0
 792.667 300.333 795.333 278.333 796 253 c 0
589 275 m 0
 589 315.667 575.667 351.667 549 383 c 0
 520.333 415.667 486.333 432 447 432 c 0
 403.667 432 370 413.333 346 376 c 0
 325.333 344 315 305.333 315 260 c 0
 315 215.333 327 170.333 351 125 c 0
 377 77.6667 409.333 45 448 27 c 1
 484 54.3333 516 91.3333 544 138 c 0
 574 188 589 233.667 589 275 c 0
398 13 m 1
 360.667 37.6667 328.5 73 301.5 119 c 0
 274.5 165 261 209.667 261 253 c 0
 261 293 256 328.667 246 360 c 0
 230.667 408 205.333 432 170 432 c 0
 132 432 101.333 412 78 372 c 0
 58 338 47.6667 300.667 47 260 c 0
 46.3333 210.667 65.6667 163.667 105 119 c 0
 157 59.6667 223 24.6667 303 14 c 2
 326 11 l 1
 356 10 l 1
 398 13 l 1
636 -198 m 1
 636 -26 l 1
 283 -198 l 1
 636 -198 l 1
EndSplineSet
EndChar
StartChar: 32
Encoding: 65573 -1
Width: 1183
Flags: HW
Fore
1141 175 m 0
 1141 129.667 1130.67 88.6667 1110 52 c 0
 1085.33 8 1052.33 -14.3333 1011 -15 c 0
 972.333 -15.6667 940 2 914 38 c 0
 889.333 72 876.667 116 876 170 c 0
 875.333 244 907 319 971 395 c 1
 954.333 405 936 410 916 410 c 0
 880 410 849.333 399.333 824 378 c 0
 798.667 356.667 786 330.667 786 300 c 2
 786 0 l 1
 736 0 l 1
 736 300 l 2
 736 333.333 722.333 360.333 695 381 c 0
 669.667 399.667 640 409.333 606 410 c 0
 571.333 410.667 541 399.5 515 376.5 c 0
 489 353.5 476 324.667 476 290 c 2
 476 0 l 1
 426 0 l 1
 426 290 l 2
 426 326 411.333 355.333 382 378 c 0
 354.667 398.667 322.667 409.333 286 410 c 0
 226.667 410.667 176 390.667 134 350 c 0
 92 309.333 71 259.333 71 200 c 1
 76 150 l 1
 76 180.667 87.5 206.667 110.5 228 c 0
 133.5 249.333 160.333 260 191 260 c 0
 229 260 261 247 287 221 c 0
 313 195 326 163 326 125 c 0
 326 88.3333 312.667 57.6667 286 33 c 0
 259.333 8.33333 227.667 -4.33333 191 -5 c 0
 144.333 -5.66667 106.667 17.6667 78 65 c 0
 54 105 41.6667 150 41 200 c 0
 40.3333 267.333 62.6667 325 108 373 c 0
 153.333 421 209.333 445 276 445 c 0
 314 445 348.333 437.667 379 423 c 0
 414.333 406.333 438.333 382 451 350 c 1
 464.333 379.333 485.167 402.333 513.5 419 c 0
 541.833 435.667 572.667 444.333 606 445 c 0
 640.667 445.667 673.333 438 704 422 c 0
 732 407.333 752.667 386.667 766 360 c 1
 784.667 398.667 820 425 872 439 c 0
 886.667 443 904.667 445 926 445 c 0
 944 445 964 438.333 986 425 c 1
 1002 447.667 1010.33 466 1011 480 c 0
 1011.67 503.333 1003.5 523.167 986.5 539.5 c 0
 969.5 555.833 949.333 564.333 926 565 c 0
 894 565.667 864 549 836 515 c 1
 811 540 l 1
 850.333 586 892 609.333 936 610 c 0
 966 610.667 991.667 601.5 1013 582.5 c 0
 1034.33 563.5 1045.33 539.333 1046 510 c 0
 1046.67 484 1035 450.667 1011 410 c 1
 1051 387.333 1082.67 354.333 1106 311 c 0
 1129.33 267.667 1141 222.333 1141 175 c 0
1081 200 m 0
 1081 240 1073.5 276 1058.5 308 c 0
 1043.5 340 1022.67 364 996 380 c 1
 937.333 323.333 907.333 255 906 175 c 0
 905.333 143.667 911.667 113.667 925 85 c 0
 941 49 963 30.6667 991 30 c 0
 1015 29.3333 1035.67 44.6667 1053 76 c 0
 1065.67 100 1074 126.333 1078 155 c 0
 1080 169 1081 184 1081 200 c 0
266 130 m 0
 266.667 154.667 258.833 176.5 242.5 195.5 c 0
 226.167 214.5 205.667 224.333 181 225 c 0
 156.333 225.667 136.167 216.333 120.5 197 c 0
 104.833 177.667 96.6667 155.333 96 130 c 0
 95.3333 103.333 102.833 80.1667 118.5 60.5 c 0
 134.167 40.8333 155 30.6667 181 30 c 0
 206.333 29.3333 227 40 243 62 c 0
 257.667 81.3333 265.333 104 266 130 c 0
EndSplineSet
EndChar
StartChar: 33
Encoding: 65574 -1
Width: 1308
Flags: HW
Fore
1274 210 m 0
 1274.67 154.667 1260.33 105.667 1231 63 c 0
 1199 14.3333 1156.33 -10 1103 -10 c 0
 1064.33 -10 1030 -2.33333 1000 13 c 0
 963.333 31 940.667 56.6667 932 90 c 1
 919.333 61.3333 902 38 880 20 c 0
 855.333 0 828.333 -10 799 -10 c 0
 749.667 -10 708.167 6 674.5 38 c 0
 640.833 70 624 110.667 624 160 c 2
 624 260 l 2
 624 297.333 613.667 330 593 358 c 0
 570.333 389.333 541 405 505 405 c 0
 468.333 405 437 391.667 411 365 c 0
 385 338.333 372 306.667 372 270 c 2
 372 0 l 1
 324 0 l 1
 324 265 l 2
 324 301 312.333 333.333 289 362 c 0
 265.667 390.667 236.333 405 201 405 c 0
 153 405 112.667 386 80 348 c 0
 50 311.333 34.6667 268.667 34 220 c 0
 33.3333 128 73 58 153 10 c 1
 139 -10 l 1
 98.3333 14.6667 66 47.3333 42 88 c 0
 18 128.667 6 172.667 6 220 c 0
 6 282 24.3333 335 61 379 c 0
 99.6667 425.667 149.333 449.333 210 450 c 0
 244 450.667 274.5 440.833 301.5 420.5 c 0
 328.5 400.167 345.667 373.333 353 340 c 1
 357 371.333 373.667 397.333 403 418 c 0
 432.333 438.667 466.333 449.333 505 450 c 0
 550.333 450.667 589.333 432.333 622 395 c 0
 654.667 357.667 671 314.333 671 265 c 2
 671 190 l 2
 671 148.667 681.667 112.667 703 82 c 0
 727 48 759 30.6667 799 30 c 0
 831.667 29.3333 858.833 41 880.5 65 c 0
 902.167 89 913 117.333 913 150 c 2
 913 440 l 1
 961 440 l 1
 961 145 l 2
 961 111 975 83 1003 61 c 0
 1029 41 1059.33 30.6667 1094 30 c 0
 1138.67 29.3333 1176.33 48.3333 1207 87 c 0
 1235 123 1249.33 164 1250 210 c 0
 1250.67 262 1238.67 309 1214 351 c 0
 1190.67 391 1160 417.333 1122 430 c 1
 1136 450 l 1
 1180.67 434 1215.33 401.333 1240 352 c 0
 1262 309.333 1273.33 262 1274 210 c 0
EndSplineSet
EndChar
StartChar: 34
Encoding: 65575 -1
Width: 1109
Flags: HW
Fore
1067 210 m 0
 1067.67 166 1057.17 124.5 1035.5 85.5 c 0
 1013.83 46.5 984.333 16.3333 947 -5 c 1
 922 30 l 1
 978 75.3333 1006.33 137 1007 215 c 0
 1007.67 261 995.333 303 970 341 c 0
 942 383.667 906 405 862 405 c 0
 824.667 405 792.833 393.333 766.5 370 c 0
 740.167 346.667 727 316.667 727 280 c 2
 727 0 l 1
 677 0 l 1
 677 280 l 2
 677 314.667 664.167 344 638.5 368 c 0
 612.833 392 582.333 404.333 547 405 c 0
 509.667 405.667 478.667 391.167 454 361.5 c 0
 429.333 331.833 417 298 417 260 c 2
 417 0 l 1
 367 0 l 1
 367 260 l 2
 367 298.667 354.833 332.333 330.5 361 c 0
 306.167 389.667 275 404.333 237 405 c 0
 189 405.667 149 386.667 117 348 c 0
 87 312 72 269.333 72 220 c 0
 72 131.333 108.667 64.6667 182 20 c 1
 167 -5 l 1
 127.667 18.3333 97.1667 50 75.5 90 c 0
 53.8333 130 42.6667 173.333 42 220 c 0
 41.3333 278.667 58.6667 330 94 374 c 0
 132 421.333 179.667 445 237 445 c 0
 275 445 308.5 434.167 337.5 412.5 c 0
 366.5 390.833 384.667 361.667 392 325 c 1
 398.667 361 417 390.333 447 413 c 0
 475.667 433.667 509 444.333 547 445 c 0
 582.333 445.667 613.667 435.167 641 413.5 c 0
 668.333 391.833 688.667 364 702 330 c 1
 717.333 364 739.667 391.5 769 412.5 c 0
 798.333 433.5 831 444.333 867 445 c 0
 925.667 445.667 974.333 420.667 1013 370 c 0
 1048.33 324 1066.33 270.667 1067 210 c 0
EndSplineSet
EndChar
StartChar: 35
Encoding: 65576 -1
Width: 714
Flags: HW
Fore
672 180 m 0
 672.667 132.667 659 91 631 55 c 0
 601 15 563 -5 517 -5 c 0
 474.333 -5 440 12.3333 414 47 c 0
 390 78.3333 377.667 116 377 160 c 0
 376.333 231.333 391.333 284.667 422 320 c 2
 456 359 l 2
 464 367.667 472.667 378 482 390 c 1
 471.333 400 448 405 412 405 c 0
 360.667 405 323.333 379.333 300 328 c 0
 292.667 312.667 287.667 284 285 242 c 1
 276 112 l 1
 266 80.6667 250.333 55.3333 229 36 c 0
 205.667 14.6667 178.667 3.66667 148 3 c 0
 103.333 2.33333 69.6667 21.6667 47 61 c 0
 29.6667 91.6667 20.6667 131.333 20 180 c 0
 19.3333 216 24.6667 256 36 300 c 0
 50 354 68 389 90 405 c 1
 119 390 l 1
 95.6667 366.667 80.6667 330.333 74 281 c 0
 70.6667 257.667 68.6667 217.333 68 160 c 0
 68 128 76.6667 101.333 94 80 c 0
 108.667 62 126.667 52.6667 148 52 c 0
 177.333 51.3333 202.333 71.3333 223 112 c 1
 230.333 131.333 235.833 166.167 239.5 216.5 c 0
 243.167 266.833 248 301.333 254 320 c 0
 265.333 354.667 286.167 384.167 316.5 408.5 c 0
 346.833 432.833 378.667 445 412 445 c 0
 446 445 477.667 436.667 507 420 c 1
 513 438.667 516.333 455.333 517 470 c 0
 517.667 490 510 508.333 494 525 c 0
 478 541.667 459 550 437 550 c 0
 398.333 550 366.667 536.667 342 510 c 1
 322 530 l 1
 356 570 399.333 590 452 590 c 0
 480.667 590 505.167 578.833 525.5 556.5 c 0
 545.833 534.167 556.333 508.667 557 480 c 0
 557.667 450 549.333 425 532 405 c 1
 573.333 381 606.667 349.667 632 311 c 0
 658 269.667 671.333 226 672 180 c 0
612 190 m 0
 612 226.667 602.5 261.167 583.5 293.5 c 0
 564.5 325.833 539 351.333 507 370 c 1
 504 364 l 2
 503.333 362.667 499 357.333 491 348 c 2
 467 320 l 2
 427 273.333 407 220 407 160 c 0
 407 126 416.667 97.6667 436 75 c 0
 455.333 52.3333 480.667 40.6667 512 40 c 0
 544 39.3333 569.333 57 588 93 c 0
 604 123 612 155.333 612 190 c 0
EndSplineSet
EndChar
StartChar: 36
Encoding: 65577 -1
Width: 1308
Flags: HW
Fore
1269 0 m 1
 514 0 l 1
 514 30 l 1
 784 30 l 2
 837.333 30 882.333 49.8333 919 89.5 c 0
 955.667 129.167 974 176 974 230 c 0
 974 278.667 958.333 320 927 354 c 0
 895.667 388 858 405 814 405 c 0
 790.667 405 767.333 400 744 390 c 1
 804 355.333 834 308.667 834 250 c 0
 834 212 821.833 180 797.5 154 c 0
 773.167 128 742 115 704 115 c 0
 669.333 115 640.833 127.167 618.5 151.5 c 0
 596.167 175.833 584.667 205.333 584 240 c 0
 583.333 269.333 591.333 298 608 326 c 0
 622 349.333 644 370.667 674 390 c 1
 665.333 400 642 405 604 405 c 0
 564 405 529 392.333 499 367 c 0
 469 341.667 454 309.333 454 270 c 2
 454 0 l 1
 404 0 l 1
 404 280 l 2
 404 334.667 373 373 311 395 c 0
 293 401.667 274 405 254 405 c 0
 202 405.667 158.333 386.5 123 347.5 c 0
 87.6667 308.5 69.6667 262.667 69 210 c 1
 72 180 l 1
 76 204 88.6667 223.333 110 238 c 0
 131.333 252.667 154.333 260 179 260 c 0
 215.667 260 247.167 247.5 273.5 222.5 c 0
 299.833 197.5 313.333 166.667 314 130 c 0
 314.667 92 302.5 60 277.5 34 c 0
 252.5 8 221.333 -5 184 -5 c 0
 140 -5 105 13.6667 79 51 c 0
 53 88.3333 39.6667 138 39 200 c 0
 38.3333 265.333 59 322.333 101 371 c 0
 143 419.667 194 444.333 254 445 c 0
 292.667 445.667 327.333 438 358 422 c 0
 391.333 404 415 378.333 429 345 c 1
 445 375.667 469.667 400 503 418 c 0
 534.333 435.333 568 444.333 604 445 c 0
 649.333 445.667 684.333 435.667 709 415 c 1
 738.333 435 773.333 445 814 445 c 0
 874.667 445 926.333 425.167 969 385.5 c 0
 1011.67 345.833 1033.33 295.667 1034 235 c 0
 1034.67 193.667 1026 155.667 1008 121 c 0
 989.333 83.6667 963 55 929 35 c 1
 1219 35 l 1
 1219 440 l 1
 1269 440 l 1
 1269 0 l 1
774 250 m 0
 774 300 749 340 699 370 c 1
 643.667 344.667 615.333 301.333 614 240 c 0
 613.333 216 620.5 195.167 635.5 177.5 c 0
 650.5 159.833 670 150.667 694 150 c 0
 718 149.333 737.667 160.333 753 183 c 0
 767 203 774 225.333 774 250 c 0
254 130 m 0
 254.667 155.333 246.833 178.333 230.5 199 c 0
 214.167 219.667 193.667 230 169 230 c 0
 144.333 230 124.167 219.833 108.5 199.5 c 0
 92.8333 179.167 84.6667 156 84 130 c 0
 83.3333 103.333 90.8333 80.1667 106.5 60.5 c 0
 122.167 40.8333 143 30.6667 169 30 c 0
 194.333 29.3333 215 40 231 62 c 0
 245.667 81.3333 253.333 104 254 130 c 0
EndSplineSet
EndChar
StartChar: 37
Encoding: 65578 -1
Width: 941
Flags: HW
Fore
841 30 m 1
 841 240 l 2
 841 290.667 820.667 333 780 367 c 0
 742 398.333 697.333 414.333 646 415 c 0
 606 415.667 567.667 405.667 531 385 c 1
 551 387 l 1
 591.667 387 625.667 369 653 333 c 0
 678.333 299.667 691 262 691 220 c 0
 691 179.333 679.5 142 656.5 108 c 0
 633.5 74 603.333 48 566 30 c 1
 841 30 l 1
626 230 m 0
 626.667 262 619 291.333 603 318 c 0
 585 348.667 561 364.333 531 365 c 0
 505 365.667 482 351 462 321 c 0
 448 297.667 437.667 270.667 431 240 c 1
 431 30 l 1
 501 30 l 1
 541 44 572.333 70.3333 595 109 c 0
 615 144.333 625.333 184.667 626 230 c 0
401 240 m 2
 401 289.333 382.667 330.667 346 364 c 0
 309.333 397.333 266 414.333 216 415 c 0
 183.333 415.667 152.333 392.667 123 346 c 0
 101 311.333 89.6667 269.333 89 220 c 0
 88.3333 179.333 94.6667 140.667 108 104 c 2
 145 0 l 1
 113 0 l 1
 93 30.6667 75.3333 66 60 106 c 0
 43.3333 150.667 35 188.667 35 220 c 0
 35 294.667 54 352.667 92 394 c 0
 123.333 428 161.333 445 206 445 c 0
 254 445 297.333 433.667 336 411 c 0
 377.333 386.333 405.667 352.667 421 310 c 1
 436.333 353.333 466.667 387.333 512 412 c 0
 552 433.333 596.667 444.333 646 445 c 0
 706.667 445.667 759.333 428 804 392 c 0
 852 353.333 876 304.333 876 245 c 2
 876 0 l 1
 401 0 l 1
 401 240 l 2
EndSplineSet
EndChar
StartChar: 38
Encoding: 65579 -1
Width: 957
Flags: HW
Fore
817 -345 m 1
 267 -345 l 1
 267 -325 l 1
 316.333 -303.667 341.333 -265.333 342 -210 c 0
 342.667 -172.667 328.667 -141.333 300 -116 c 0
 272.667 -92.6667 240 -80.6667 202 -80 c 0
 164 -79.3333 131.333 -91.5 104 -116.5 c 0
 76.6667 -141.5 62.6667 -172.667 62 -210 c 0
 61.3333 -258.667 79.6667 -298.667 117 -330 c 1
 97 -345 l 1
 51 -299.667 27.6667 -254.667 27 -210 c 0
 26.3333 -159.333 44.3333 -116.833 81 -82.5 c 0
 117.667 -48.1667 161.333 -30.6667 212 -30 c 0
 264 -29.3333 309.5 -46.3333 348.5 -81 c 0
 387.5 -115.667 407 -158.667 407 -210 c 0
 407 -256 387 -291 347 -315 c 1
 767 -315 l 1
 767 15 l 1
 267 15 l 1
 267 40 l 1
 313 67.3333 336.333 102.333 337 145 c 0
 337.667 183 324.833 215 298.5 241 c 0
 272.167 267 240 280 202 280 c 0
 164 280 131.333 267.667 104 243 c 0
 76.6667 218.333 62.6667 187.333 62 150 c 0
 61.3333 92.6667 84.6667 52.6667 132 30 c 1
 112 10 l 1
 59.3333 45.3333 32.6667 92 32 150 c 0
 31.3333 199.333 49.5 241.667 86.5 277 c 0
 123.5 312.333 167 330 217 330 c 0
 268.333 330 312 312.333 348 277 c 0
 384 241.667 402 199.333 402 150 c 0
 402 108 382 73 342 45 c 1
 767 45 l 1
 767 440 l 1
 817 440 l 1
 817 -345 l 1
EndSplineSet
EndChar
StartChar: 39
Encoding: 65580 -1
Width: 867
Flags: HW
Fore
764 -70 m 0
 764.667 -114.667 742.667 -151.667 698 -181 c 0
 658.667 -207 615.667 -220 569 -220 c 0
 524.333 -220 485.167 -208.667 451.5 -186 c 0
 417.833 -163.333 393.667 -131.333 379 -90 c 0
 370.333 -65.3333 358.667 -44 344 -26 c 0
 324.667 -2 304.667 10 284 10 c 2
 199 10 l 1
 223 6 241.5 -5.5 254.5 -24.5 c 0
 267.5 -43.5 274 -65.3333 274 -90 c 0
 274 -125.333 260.5 -154.833 233.5 -178.5 c 0
 206.5 -202.167 175 -214.333 139 -215 c 0
 105 -215.667 75.8333 -203.667 51.5 -179 c 0
 27.1667 -154.333 14.6667 -124.667 14 -90 c 0
 13.3333 -40.6667 38.3333 -4 89 20 c 1
 49 42 29 77 29 125 c 0
 29 161 41.6667 191.667 67 217 c 0
 92.3333 242.333 123 255 159 255 c 2
 234 255 l 1
 234 303 246.667 345.333 272 382 c 0
 300.667 423.333 338 444.333 384 445 c 0
 431.333 445.667 470.333 425.333 501 384 c 0
 529 347.333 543.333 304.333 544 255 c 1
 619 255 l 2
 656.333 255 688.167 243.333 714.5 220 c 0
 740.833 196.667 754 166.667 754 130 c 0
 754 104 750.5 82 743.5 64 c 0
 736.5 46 726.667 34.6667 714 30 c 1
 746.667 3.33333 763.333 -30 764 -70 c 0
484 255 m 1
 484 291 475.667 323.333 459 352 c 0
 439 386.667 412.333 404.333 379 405 c 0
 331 405.667 295.667 375 273 313 c 0
 267 296.333 264 277 264 255 c 1
 484 255 l 1
704 -70 m 0
 704 -41.3333 694 -18 674 0 c 1
 620.667 0 585.667 8.33333 569 25 c 1
 579 50 l 1
 596.333 40 609.667 35 619 35 c 0
 642.333 35 661.667 45.3333 677 66 c 0
 691 84.6667 698.333 106 699 130 c 0
 699.667 154.667 692.5 176.667 677.5 196 c 0
 662.5 215.333 643 225 619 225 c 2
 544 225 l 1
 544 163 533 112 511 72 c 0
 483 22 440.667 -3.66667 384 -5 c 1
 398.667 -19 413.667 -44 429 -80 c 0
 443 -113.333 462.333 -139 487 -157 c 0
 511.667 -175 540.667 -184.333 574 -185 c 0
 608 -185.667 638.167 -175 664.5 -153 c 0
 690.833 -131 704 -103.333 704 -70 c 0
484 225 m 1
 264 225 l 1
 264 181 271.667 140.667 287 104 c 0
 307 55.3333 336 30.6667 374 30 c 0
 413.333 29.3333 442.667 53.3333 462 102 c 0
 476 136.667 483.333 177.667 484 225 c 1
264 80 m 1
 244 112.667 234 161 234 225 c 1
 159 225 l 2
 130.333 225 106.667 215.5 88 196.5 c 0
 69.3333 177.5 59.6667 153.667 59 125 c 0
 58.3333 106.333 63.6667 88.8333 75 72.5 c 0
 86.3333 56.1667 101 44.3333 119 37 c 0
 129.667 32.3333 143 30 159 30 c 0
 201 29.3333 236 46 264 80 c 1
214 -90 m 0
 214.667 -65.3333 206.833 -43.5 190.5 -24.5 c 0
 174.167 -5.5 153.667 4.33333 129 5 c 0
 104.333 5.66667 84.1667 -3.66667 68.5 -23 c 0
 52.8333 -42.3333 44.6667 -64.6667 44 -90 c 0
 43.3333 -114.667 51.3333 -135.833 68 -153.5 c 0
 84.6667 -171.167 105 -180 129 -180 c 0
 153 -180 173 -171 189 -153 c 0
 205 -135 213.333 -114 214 -90 c 0
EndSplineSet
EndChar
